<?xml version="1.0" encoding="UTF-8"?>
<COLLADA xmlns="http://www.collada.org/2005/11/COLLADASchema" version="1.4.1">
    <asset>
        <contributor>
            <author>VCGLab</author>
            <authoring_tool>VCGLib | MeshLab</authoring_tool>
        </contributor>
        <created>Tue Jan 13 14:19:11 2026 GMT</created>
        <modified>Tue Jan 13 14:19:11 2026 GMT</modified>
        <up_axis>Y_UP</up_axis>
    </asset>
    <library_geometries>
        <geometry id="shape0-lib" name="shape0">
            <mesh>
                <source id="shape0-lib-positions" name="position">
                    <float_array id="shape0-lib-positions-array" count="348">0.0233274 -0.041865 0 0.0373508 0.0398167 0 0.0237707 0.0273167 0 0.0238508 0.0398167 0 0.0184048 0.00359653 0 0.0724945 0.0511654 -1.20114e-05 0.0568885 0.0458172 6.52545e-09 0.019287 0.017385 -4.26405e-17 0.019287 0.00938502 -5.52307e-20 -0.00233326 0.0266812 0 0.01182 0.0109264 0 0.0234182 -0.0277082 0 0.0376613 -0.0419568 0 -0.0427382 -0.056864 4.55614e-05 -0.0276345 -0.0555754 1.33596e-26 -0.0159286 -0.043865 0 -0.0320229 -0.0514612 -1.40888e-07 0.000167861 -0.0192753 -1.7877e-12 -0.000210785 0.0398167 0 -8.69359e-05 0.0204806 4.56123e-15 -0.0137108 0.0398167 1.52619e-17 -0.030285 0.0458293 4.97475e-07 -0.0472056 0.0517305 -6.19119e-07 -0.0402575 0.0367707 0 -0.0217307 0.0403667 -3.28919e-08 -0.00594733 0.0127358 7.31412e-05 -5.76115e-06 0.00704647 1.33384e-06 0.000221896 -0.0277082 0 -0.0139294 -0.041865 0 -0.0351259 -0.070336 0.000210245 0.0480523 -0.043865 8.24779e-19 0.0395687 -0.043865 0 0.0512746 -0.0555754 0 0.0555428 -0.0513583 -1.25817e-09 0.0670894 -0.0557082 0.000112619 0.0234722 -0.0192753 0 0.0236418 0.00688963 -3.49662e-08 0.0295355 0.0130928 1.99197e-05 0.0228953 0.0196933 -2.67777e-06 0.000312609 -0.041865 0 0.0183865 0.0399514 1.52301e-08 0.00594406 0.0403435 0 0.00529216 0.0296534 -0.000168943 0.0189708 0.0220509 1.15384e-11 0.012126 0.0139859 0.000220751 0.0162328 -0.0354441 8.71274e-07 0.00738812 -0.0341974 0 0.0178672 -0.0140905 0 0.0075741 -0.0195868 -4.86397e-16 0.00523522 0.00359654 6.68401e-15 0.0457276 0.0406619 -8.58602e-07 0.00226256 0.023411 -2.60397e-05 0.0158306 0.00688514 0.00300035 -0.000130688 0.0273167 0.003 -0.0139294 -0.041865 0.003 0.0512746 -0.0555754 0.003 0.0278481 0.024274 0.003 0.0552467 0.0459754 0.00300893 0.0238508 0.0398167 0.003 0.0237707 0.0273167 0.003 0.0460916 0.0408209 0.00300634 0.0373508 0.0398167 0.003 0.0714599 0.049111 0.003 0.065962 0.0360328 0.000197107 0.0582368 -0.0702314 6.61375e-05 0.019287 0.00938502 0.003 0.019287 0.017385 0.003 0.00904056 0.0141932 0.00300047 0.00493577 0.00687569 0.00292771 -0.0274971 -0.0554642 0.00300022 -0.0159286 -0.043865 0.003 -0.032187 -0.0516425 0.00299991 -0.0432603 -0.0552047 0.00294974 -0.0137108 0.0398167 0.003 0.0676681 0.0357052 0.00299315 0.0249762 0.0118758 0.00300003 0.0234182 -0.0277082 0.003 0.0555629 -0.0513785 0.003 0.06609 -0.055712 0.00298398 0.0594163 -0.0697523 0.00290883 0.0234722 -0.0192753 0.003 0.0233274 -0.041865 0.003 0.0376613 -0.0419568 0.003 0.0395687 -0.043865 0.003 -0.0350619 -0.0701213 0.00303068 -0.022413 -0.041865 0.003 -0.00100106 0.0109663 0.00298902 7.36198e-05 0.0203324 0.00300002 -0.0211022 0.0398245 0.003 -0.042514 0.0365857 0.00301319 -0.0487358 0.0512883 0.00300187 -0.0467555 0.0407757 2.38426e-07 0.0034686 0.0458276 0.00300016 0.00799852 -0.0114437 9.24425e-10 0.000312609 -0.041865 0.003 0.000409194 -0.0275803 0.00299953 0.00476999 0.0395737 0.00312548 0.018947 0.0399707 0.00298844 0.00526755 0.022666 0.003 0.0190186 0.0222025 0.00299976 0.0119568 0.0304035 8.63364e-05 0.00526265 -0.010084 0.00208058 0.0114658 -0.00468833 0.00031401 0.0184048 -0.0105648 0.003 0.017888 -0.0141131 0.00299994 0.00625636 -0.0140239 0.00111139 0.017944 -0.0182088 -9.0742e-07 0.00732204 -0.0197197 0.003 0.000167586 -0.0192793 0.00300004 0.0159928 -0.035275 0.003 0.00735046 -0.0352866 0.00300001 0.0163195 -0.0193689 0.003 -0.032451 0.04582 0.00299997 -0.000210785 0.0398167 0.003 0.0120411 0.0151818 0.003 0.01182 -0.00741754 0.003</float_array>
                    <technique_common>
                        <accessor count="116" source="#shape0-lib-positions-array" stride="3">
                            <param name="X" type="float"/>
                            <param name="Y" type="float"/>
                            <param name="Z" type="float"/>
                        </accessor>
                    </technique_common>
                </source>
                <source id="shape0-lib-normals" name="normal">
                    <float_array id="shape0-lib-normals-array" count="810">-0.362762 0.114253 -0.924851 -0.000115118 0.000125065 -1 3.9257e-05 -2.51551e-07 1 3.14897e-05 0.000200785 1 0 8.27385e-05 -1 -5.19177e-05 -0.000501284 -1 -3.3287e-05 4.23179e-05 -1 0.00891227 -0.00223207 -0.999958 0.00465367 -0.0158261 -0.999864 -4.5707e-05 -8.90072e-05 -1 2.82997e-05 3.53747e-05 1 -0.0719329 -0.0646208 0.995314 -4.2666e-06 -3.83289e-06 -1 3.16104e-06 3.90781e-05 1 0.000163943 -1.05047e-06 -1 0.000163943 -1.05052e-06 -1 8.96759e-17 5.60993e-17 -1 0 0 -1 -0.672037 0.458094 -0.581821 0.986867 0.147969 -0.0647945 -0.00902587 -0.0096616 -0.999913 -1.01379e-05 4.30841e-05 -1 -9.49842e-06 8.22169e-05 -1 3.92517e-05 -7.66671e-05 -1 0.00214852 -0.0239284 -0.999711 -4.01527e-08 -7.81182e-08 1 -0.000310135 -0.00163399 0.999999 -1.13051e-15 8.27385e-05 -1 -0.00589889 -0.00415625 -0.999974 -4.0321e-05 -2.84094e-05 -1 0.000206752 0.000226679 1 0.0257384 0.0394868 -0.998889 -0.000222109 4.92093e-05 -1 -1.08993e-07 1.0895e-07 -1 -1.17738e-07 -5.4244e-10 1 0 2.85129e-08 -1 1.82838e-05 -1.47418e-05 -1 -1.08993e-07 1.0895e-07 -1 0.00147738 -0.0113886 -0.999934 -2.86981e-18 -4.47867e-16 -1 9.72201e-17 9.71823e-17 -1 -2.31767e-07 -6.37731e-08 -1 0.00303418 -0.00307124 -0.999991 0.00118832 0.0020878 -0.999997 0.00233311 -0.00107644 -0.999997 -0.000469011 0.00042394 1 -5.60694e-06 0.000179951 -1 0.00656788 -0.0140513 -0.99988 0 -3.03874e-08 1 1.173e-07 7.51628e-10 -1 1.17738e-07 5.4244e-10 -1 0.000161334 0.00141796 -0.999999 -4.93486e-05 -0.00152712 0.999999 0.0124316 -0.00116517 -0.999922 9.84428e-06 -5.2884e-07 1 -1.91088e-05 -1.86622e-05 -1 -0.031314 -0.000781783 -0.999509 -3.15425e-05 -7.86578e-07 -1 0.0308122 5.95061e-09 0.999525 0.835393 0.0842799 0.543153 -0.0897206 0.0806003 -0.9927 0.335752 -0.107428 0.935804 -0.000105718 -5.1153e-05 1 4.51243e-05 9.87207e-05 1 2.41181e-10 -3.10335e-12 -1 -0.0928451 0.173874 -0.980381 -0.000116494 0.000218163 -1 0.0500416 0.000714206 0.998747 2.42353e-10 2.47594e-11 -1 -0.00881003 -0.00277708 -0.999957 -0.0079551 -0.00250759 -0.999965 -0.0431599 0.0437955 0.998108 0.000163683 -2.39752e-06 -1 0 3.29409e-05 1 0 0 1 0 0 1 0 -2.65334e-05 1 -0.000438409 -0.00249777 0.999997 -0.000780191 0.000477008 1 0 0 1 -5.16523e-05 1.22609e-05 -1 0.00102714 -0.00584092 0.999982 0.000686896 -0.000705114 1 0.000887534 0.00632133 -0.99998 5.27127e-05 6.58909e-05 1 0.27602 -0.886047 0.372471 -0.00314145 0.00369963 0.999988 4.43641e-06 1.43837e-05 1 -0.003267 -0.00392869 0.999987 -4.0286e-05 3.11032e-05 1 0.000436838 0.000954889 1 -1.8159e-05 4.69007e-05 1 1.48329e-06 4.04388e-06 -1 -9.80245e-09 2.0132e-10 1 2.83828e-07 3.08352e-07 1 -0.000164353 -0.00173467 0.999999 2.68582e-05 -3.89279e-06 1 1.7891e-05 1.28371e-05 1 3.54135e-05 4.74563e-05 -1 -3.31673e-05 -3.9491e-05 -1 -4.71244e-06 3.7415e-07 1 -2.04418e-08 -9.25818e-07 1 -3.25542e-08 2.08604e-10 1 -1.55162e-07 -1.18839e-07 1 0.00107091 -0.00109452 0.999999 -3.22751e-08 -2.11274e-08 1 -6.64512e-11 -1.03705e-08 -1 3.22872e-08 2.01982e-08 -1 0 0 1 5.81297e-05 -5.99311e-05 1 0.0108674 0.000784125 0.999941 0.0025076 -0.0113486 0.999932 -0.000791509 -0.00108267 0.999999 1.417e-06 2.20831e-06 1 2.88903e-07 5.09048e-06 1 0.000478231 0.000909782 0.999999 -0.73498 -0.310562 0.60279 -5.13773e-06 -1.18495e-05 1 -3.81038e-05 -6.2732e-05 1 -0.348902 -0.0100975 -0.937105 0.348902 0.0100975 0.937105 0 0 1 1.67768e-06 3.29295e-05 1 0.00904965 0.0219162 0.999719 1.91503e-06 2.22288e-06 1 -6.35772e-06 -7.37975e-06 1 -0.151898 -0.0118047 0.988326 -5.5399e-05 -1.94436e-05 -1 0.000108471 -1.12028e-05 1 7.84594e-08 0 -1 -0.00666433 -0.00300214 0.999973 0.117976 0.0518069 -0.991664 -0.353769 0.632358 0.689182 0.326967 0.684102 0.651995 2.60658e-06 9.94276e-06 1 -0.137723 0.472415 0.87055 0.673363 -0.661478 0.330195 6.21401e-06 1.0284e-06 1 -1.51014e-06 1.08234e-06 -1 -0.996512 0.0204661 -0.0808984 7.81014e-06 -5.00458e-08 1 -0.000999454 -0.000640822 -0.999999 0 -2.65334e-05 1 -4.28976e-05 -2.74876e-07 1 -0.00345228 0.0033948 0.999988 -1.13544e-08 -2.37563e-08 1 -1.59133e-05 -5.97159e-06 -1 -3.25542e-08 2.08593e-10 1 0.996481 0.00181946 0.083805 0.0613604 0.996897 0.0493167 0.00645283 0.999951 0.00747881 0.996256 0.0149484 0.0851549 0.997041 0.0288121 0.0712698 -0.000876098 -0.315206 0.949023 0.779003 0.474781 0.409557 0.025012 -0.972824 -0.230192 -0.0314952 -0.999428 0.0123556 0.705774 -0.708437 0 0.707175 -0.7069 -0.0140146 0.679269 0.661872 -0.317047 0.677242 0.735761 5.25609e-07 -0.557876 -0.598869 -0.57457 -0.707244 -0.706969 0 -0.707244 -0.706969 0 0.624695 0.780869 3.87862e-07 0.624695 0.780869 1.05116e-06 -0.63408 -0.717153 0.289196 0.707244 0.70697 -6.2305e-06 0.707242 0.706971 -2.93004e-05 0.707244 0.706969 5.58053e-07 0.250333 -0.130887 -0.959272 -0.707244 -0.706969 0 -0.707244 -0.706969 0 -0.795016 0.602264 0.0723006 -0.492256 0.055463 0.868681 -0.556368 -0.588437 0.586682 0 1 0 0 -1 0 0 -1 0 -0.889865 0.0883052 -0.447596 -0.707185 0.707028 0.000884756 0.707148 -0.707064 -0.00143659 -0.707238 0.706976 -0.000359247 -0.707066 0.707136 0.0040754 0.320149 0.918005 0.234031 0.304771 0.907521 0.288999 -0.888186 -0.0365286 -0.45803 -0.479337 -0.777701 -0.406716 0.189898 -0.978361 0.0821487 0.146243 -0.967662 -0.205529 -0.306149 0.951111 0.0407519 -0.389342 0.767879 -0.508698 -0.864675 -0.487081 0.122839 -0.875089 -0.48066 0.056447 0.88854 -0.458562 0.0147452 0.89133 -0.452717 -0.024041 0.708045 -0.706168 4.39612e-07 0.707231 -0.706956 -0.00618534 -0.961718 -0.0372582 -0.271497 -0.999978 -0.00659598 -0.000100407 0 -1 0 0 -1 0 0.999979 -0.0064828 -4.02505e-09 0.938559 -0.0453129 -0.342131 -0.787493 -0.00504604 -0.616303 -0.988826 -0.149077 0 -0.625702 0.779507 -0.029432 -0.573732 0.468543 -0.671788 0.428813 -0.903393 0 -0.67655 -0.736346 0.00864983 -0.677252 -0.735751 -0.000102131 -1 -2.32831e-07 -6.20882e-07 -1 0 0 0.999979 -0.00640767 0 0.999979 -0.00640767 0 0.00640758 0.999979 0 0.00640758 0.999979 0 -0.725886 0.623474 -0.290465 -0.000210134 0.999996 0.00294326 0.999979 -0.00640744 0 0.999979 -0.00640744 0 -0.999977 0.00676129 0 -0.998019 -0.00639503 0.0625915 -0.903263 -0.429087 0 -0.791547 -0.45719 0.405501 0.825375 -0.502281 -0.257818 0.861173 -0.410939 0.299182 0.377474 0.916482 0.132566 0.352505 0.935802 0.00391929 0 -1 0 0 -1 0 -0.994844 0.0210192 0.0992197 -0.814705 -0.120177 -0.567286 0.55812 -0.532324 0.6365 0.415135 0.420394 0.806803 0.604844 -0.140108 -0.783922 0.676387 -0.736504 0.00790249 0.671236 -0.740046 -0.0421241 -0.223054 -0.97165 0.0783833 -0.230603 -0.97268 0.0267442 0.782695 -0.345038 -0.518013 0.952292 -0.269428 0.143348 -0.162215 0.840234 0.517391 -0.316323 0.922527 -0.221095 0.000138496 1 -0.000979695 -0.00284153 0.998535 -0.0540363 0 1 0 0 -1 0 0 1 0 -0.819429 0.553173 0.150119 0.131237 0.931305 0.339776 -0.677242 0.735761 0 -0.677242 0.735761 0 0.819429 -0.553173 -0.150119 -0.982851 -0.00384483 0.184363 -0.999313 -0.0326195 0.0175786 0.651249 0.290045 0.701248 0.664399 0.306749 0.681527 0.00588518 -0.592316 -0.805684 0.573942 -0.5156 0.636197 0.740624 0.665338 -0.0938131 -0.740624 -0.665338 0.0938133 0.542566 0.278423 -0.792529 0.711699 -0.443666 -0.544651 -0.639688 -0.579722 -0.5047 -0.826583 -0.562813 0.0015053 -0.00516569 -0.931783 -0.362979 0.121179 -0.911689 0.392604 -0.00134798 0.998406 -0.0564154 0.999888 -0.0127279 0.00792917</float_array>
                    <technique_common>
                        <accessor count="270" source="#shape0-lib-normals-array" stride="3">
                            <param name="X" type="float"/>
                            <param name="Y" type="float"/>
                            <param name="Z" type="float"/>
                        </accessor>
                    </technique_common>
                </source>
                <vertices id="shape0-lib-vertices">
                    <input semantic="POSITION" source="#shape0-lib-positions"/>
                </vertices>
                <triangles count="270">
                    <input offset="0" semantic="VERTEX" source="#shape0-lib-vertices"/>
                    <input offset="1" semantic="NORMAL" source="#shape0-lib-normals"/>
                    <p>48 0 101 0 102 0 2 1 1 1 50 1 2 2 50 2 3 2 50 3 21 3 3 3 3 4 21 4 1 4 1 5 21 5 50 5 4 6 36 6 106 6 34 7 64 7 33 7 5 8 63 8 6 8 30 9 17 9 106 9 36 10 9 10 8 10 44 11 9 11 10 11 9 12 36 12 4 12 30 13 106 13 0 13 0 14 106 14 11 14 106 15 35 15 11 15 30 16 12 16 35 16 35 17 12 17 11 17 44 18 49 18 68 18 68 19 49 19 51 19 14 20 29 20 16 20 23 21 91 21 24 21 24 22 91 22 21 22 21 23 91 23 22 23 42 24 44 24 51 24 93 25 17 25 30 25 51 26 18 26 21 26 18 27 20 27 21 27 51 28 19 28 20 28 20 29 19 29 21 29 19 30 24 30 21 30 25 31 49 31 26 31 17 32 26 32 49 32 93 33 27 33 28 33 17 34 27 34 93 34 93 35 30 35 15 35 16 36 93 36 14 36 14 37 93 37 15 37 16 38 29 38 13 38 0 39 12 39 30 39 31 40 30 40 32 40 30 41 33 41 32 41 64 42 32 42 33 42 37 43 36 43 8 43 8 44 38 44 37 44 50 45 38 45 8 45 6 46 50 46 21 46 63 47 50 47 6 47 28 48 39 48 93 48 39 49 27 49 93 49 27 50 17 50 93 50 21 51 40 51 51 51 40 52 41 52 51 52 100 53 51 53 41 53 40 54 21 54 43 54 21 55 50 55 43 55 44 56 43 56 8 56 8 57 43 57 50 57 44 58 8 58 7 58 48 59 49 59 101 59 49 60 44 60 10 60 102 61 105 61 48 61 46 62 45 62 17 62 17 63 45 63 106 63 48 64 46 64 17 64 105 65 47 65 48 65 48 66 47 66 106 66 47 67 102 67 106 67 17 68 49 68 48 68 25 69 19 69 49 69 19 70 51 70 49 70 51 71 100 71 42 71 36 72 35 72 106 72 54 73 95 73 85 73 70 74 83 74 85 74 55 75 80 75 83 75 58 76 61 76 92 76 92 77 61 77 60 77 60 78 61 78 56 78 61 79 59 79 56 79 52 80 103 80 111 80 55 81 79 81 78 81 62 82 57 82 74 82 60 83 74 83 92 83 114 84 52 84 65 84 44 85 66 85 67 85 84 86 69 86 72 86 70 87 85 87 69 87 71 88 72 88 69 88 85 89 71 89 69 89 89 90 112 90 90 90 98 91 87 91 67 91 109 92 108 92 83 92 111 93 109 93 83 93 73 94 88 94 53 94 92 95 74 95 57 95 75 96 56 96 67 96 67 97 56 97 92 97 92 98 56 98 59 98 66 99 75 99 67 99 111 100 75 100 66 100 75 101 111 101 80 101 111 102 76 102 80 102 55 103 77 103 80 103 78 104 77 104 55 104 80 105 111 105 83 105 81 106 111 106 82 106 111 107 80 107 82 107 82 108 80 108 76 108 85 109 95 109 108 109 86 110 108 110 68 110 67 111 86 111 68 111 87 112 86 112 67 112 87 113 53 113 88 113 88 114 73 114 112 114 112 115 89 115 88 115 90 116 91 116 89 116 92 117 112 117 73 117 108 118 95 118 83 118 108 119 93 119 95 119 95 120 93 120 108 120 83 121 94 121 85 121 83 122 95 122 94 122 92 123 96 123 97 123 87 124 98 124 53 124 53 125 98 125 92 125 98 126 96 126 92 126 92 127 99 127 67 127 52 128 111 128 65 128 65 129 111 129 66 129 114 130 68 130 52 130 68 131 115 131 101 131 101 132 115 132 102 132 102 133 115 133 103 133 108 134 111 134 104 134 104 135 105 135 108 135 105 136 115 136 108 136 110 137 107 137 108 137 108 138 109 138 110 138 45 139 109 139 111 139 58 140 92 140 59 140 92 141 97 141 99 141 73 142 113 142 92 142 92 143 113 143 53 143 108 144 115 144 68 144 103 145 115 145 111 145 115 146 104 146 111 146 76 147 111 147 81 147 110 148 48 148 107 148 107 149 48 149 108 149 104 150 47 150 105 150 49 151 68 151 101 151 98 152 42 152 96 152 42 153 100 153 96 153 100 154 41 154 96 154 96 155 41 155 97 155 41 156 40 156 97 156 54 157 28 157 95 157 28 158 27 158 95 158 51 159 20 159 53 159 53 160 20 160 73 160 67 161 51 161 44 161 11 162 12 162 76 162 76 163 12 163 82 163 65 164 8 164 114 164 8 165 9 165 114 165 9 166 44 166 114 166 77 167 33 167 80 167 33 168 30 168 80 168 30 169 35 169 80 169 51 170 67 170 68 170 55 171 83 171 32 171 83 172 31 172 32 172 87 173 19 173 25 173 87 174 25 174 86 174 25 175 26 175 86 175 31 176 83 176 30 176 83 177 70 177 30 177 30 178 70 178 15 178 106 179 45 179 111 179 108 180 17 180 85 180 17 181 93 181 85 181 85 182 93 182 71 182 93 183 16 183 71 183 112 184 21 184 22 184 112 185 22 185 90 185 90 186 22 186 91 186 91 187 23 187 89 187 23 188 24 188 89 188 89 189 24 189 88 189 71 190 16 190 72 190 16 191 13 191 72 191 13 192 29 192 72 192 72 193 29 193 84 193 84 194 29 194 69 194 29 195 14 195 69 195 70 196 69 196 15 196 69 197 14 197 15 197 86 198 26 198 108 198 26 199 17 199 108 199 1 200 61 200 3 200 61 201 58 201 3 201 35 202 36 202 80 202 80 203 36 203 75 203 53 204 113 204 51 204 113 205 18 205 51 205 99 206 43 206 67 206 43 207 44 207 67 207 7 208 66 208 44 208 24 209 19 209 88 209 88 210 19 210 87 210 8 211 65 211 7 211 65 212 66 212 7 212 58 213 59 213 3 213 59 214 2 214 3 214 81 215 82 215 0 215 82 216 12 216 0 216 114 217 44 217 68 217 112 218 92 218 21 218 76 219 81 219 11 219 81 220 0 220 11 220 94 221 95 221 39 221 95 222 27 222 39 222 55 223 32 223 64 223 55 224 64 224 79 224 64 225 34 225 79 225 79 226 34 226 78 226 78 227 34 227 77 227 34 228 33 228 77 228 18 229 113 229 20 229 113 230 73 230 20 230 106 231 103 231 4 231 103 232 52 232 4 232 36 233 37 233 75 233 37 234 38 234 75 234 75 235 38 235 56 235 38 236 50 236 56 236 56 237 50 237 60 237 50 238 63 238 60 238 60 239 63 239 74 239 63 240 5 240 74 240 74 241 5 241 62 241 62 242 5 242 57 242 5 243 6 243 57 243 21 244 92 244 6 244 92 245 57 245 6 245 28 246 54 246 39 246 54 247 85 247 39 247 85 248 94 248 39 248 97 249 40 249 100 249 45 250 46 250 110 250 61 251 1 251 59 251 1 252 2 252 59 252 100 253 40 253 97 253 97 254 40 254 99 254 40 255 43 255 99 255 67 256 44 256 98 256 44 257 42 257 98 257 52 258 68 258 10 258 68 259 49 259 10 259 10 260 9 260 52 260 9 261 4 261 52 261 103 262 106 262 102 262 105 263 102 263 115 263 115 264 102 264 104 264 102 265 47 265 104 265 111 266 108 266 106 266 108 267 48 267 106 267 110 268 109 268 45 268 48 269 110 269 46 269</p>
                </triangles>
            </mesh>
        </geometry>
    </library_geometries>
    <library_visual_scenes>
        <visual_scene id="VisualSceneNode" name="VisualScene">
            <node id="node" name="node">
                <instance_geometry url="#shape0-lib"/>
            </node>
        </visual_scene>
    </library_visual_scenes>
    <scene>
        <instance_visual_scene url="#VisualSceneNode"/>
    </scene>
</COLLADA>
