%TF.GenerationSoftware,KiCad,Pcbnew,9.0.2-9.0.2-0~ubuntu22.04.1*%
%TF.CreationDate,2025-07-03T15:54:24-04:00*%
%TF.ProjectId,TeensyDrone,5465656e-7379-4447-926f-6e652e6b6963,rev?*%
%TF.SameCoordinates,Original*%
%TF.FileFunction,Soldermask,Bot*%
%TF.FilePolarity,Negative*%
%FSLAX46Y46*%
G04 Gerber Fmt 4.6, Leading zero omitted, Abs format (unit mm)*
G04 Created by KiCad (PCBNEW 9.0.2-9.0.2-0~ubuntu22.04.1) date 2025-07-03 15:54:24*
%MOMM*%
%LPD*%
G01*
G04 APERTURE LIST*
%ADD10C,2.000000*%
%ADD11R,2.000000X2.000000*%
%ADD12C,2.100000*%
%ADD13C,2.204000*%
%ADD14C,3.204000*%
%ADD15O,2.204000X3.204000*%
G04 APERTURE END LIST*
D10*
%TO.C,J1*%
X47500000Y-81280000D03*
X47500000Y-78740000D03*
X47500000Y-76200000D03*
X47500000Y-73660000D03*
X47500000Y-71120000D03*
X47500000Y-68580000D03*
X47500000Y-66040000D03*
D11*
X47500000Y-63500000D03*
%TD*%
D12*
%TO.C,MountHole1*%
X35000000Y-35000000D03*
%TD*%
%TO.C,MountHole4*%
X55000000Y-120000000D03*
%TD*%
D10*
%TO.C,Mounting_hole_esc_3*%
X55010700Y-50750000D03*
%TD*%
D13*
%TO.C,U1*%
X27760000Y-58920000D03*
X27760000Y-61460000D03*
X27760000Y-64000000D03*
X27760000Y-66540000D03*
X43000000Y-61460000D03*
X27760000Y-91940000D03*
X27760000Y-69080000D03*
X27760000Y-71620000D03*
X43000000Y-56380000D03*
X27760000Y-74160000D03*
X27760000Y-76700000D03*
X27760000Y-79240000D03*
X27760000Y-81780000D03*
X27760000Y-84320000D03*
X27760000Y-86860000D03*
X27760000Y-89400000D03*
X43000000Y-89400000D03*
X43000000Y-86860000D03*
X43000000Y-84320000D03*
X43000000Y-81780000D03*
X43000000Y-79240000D03*
X43000000Y-76700000D03*
X43000000Y-74160000D03*
X43000000Y-71620000D03*
X43000000Y-69080000D03*
X43000000Y-66540000D03*
X43000000Y-64000000D03*
X27760000Y-94480000D03*
X27760000Y-97020000D03*
X27760000Y-99560000D03*
X27760000Y-102100000D03*
X27760000Y-104640000D03*
X27760000Y-107180000D03*
X27760000Y-109720000D03*
X27760000Y-112260000D03*
X27760000Y-114800000D03*
X43000000Y-114800000D03*
X43000000Y-112260000D03*
X43000000Y-109720000D03*
X43000000Y-107180000D03*
X43000000Y-104640000D03*
X43000000Y-102100000D03*
X43000000Y-99560000D03*
X43000000Y-97020000D03*
X43000000Y-94480000D03*
X43000000Y-58920000D03*
X27760000Y-56380000D03*
X43000000Y-91940000D03*
%TD*%
D12*
%TO.C,MountHole3*%
X35000000Y-120000000D03*
%TD*%
D11*
%TO.C,J2*%
X63000000Y-67390000D03*
D10*
X63000000Y-64850000D03*
X63000000Y-62310000D03*
X63000000Y-59770000D03*
X63000000Y-57230000D03*
X63000000Y-54690000D03*
X63000000Y-52150000D03*
X63000000Y-49610000D03*
%TD*%
%TO.C,Mounting_hole_esc_4*%
X55010700Y-30750000D03*
%TD*%
%TO.C,Mounting_hole_esc_2*%
X35110700Y-50800000D03*
%TD*%
D11*
%TO.C,U2*%
X56176600Y-81833400D03*
D10*
X56176600Y-79293400D03*
X56176600Y-76753400D03*
X56176600Y-74213400D03*
%TD*%
%TO.C,Mounting_hole_esc_1*%
X35000000Y-30750000D03*
%TD*%
D14*
%TO.C,MountingHoleAcc1*%
X50900000Y-69750030D03*
%TD*%
D12*
%TO.C,MountHole2*%
X55000000Y-35000000D03*
%TD*%
D15*
%TO.C,5V_BEC1*%
X63025000Y-90975000D03*
X60485000Y-90975000D03*
X49515000Y-90975000D03*
X46975000Y-91000000D03*
X63025000Y-110525000D03*
X60485000Y-110525000D03*
X49515000Y-110525000D03*
X46975000Y-110525000D03*
%TD*%
D14*
%TO.C,MountingHoleAcc2*%
X50900000Y-86493230D03*
%TD*%
M02*
