%TF.GenerationSoftware,KiCad,Pcbnew,9.0.2-9.0.2-0~ubuntu22.04.1*%
%TF.CreationDate,2025-07-03T15:54:24-04:00*%
%TF.ProjectId,TeensyDrone,5465656e-7379-4447-926f-6e652e6b6963,rev?*%
%TF.SameCoordinates,Original*%
%TF.FileFunction,Legend,Top*%
%TF.FilePolarity,Positive*%
%FSLAX46Y46*%
G04 Gerber Fmt 4.6, Leading zero omitted, Abs format (unit mm)*
G04 Created by KiCad (PCBNEW 9.0.2-9.0.2-0~ubuntu22.04.1) date 2025-07-03 15:54:24*
%MOMM*%
%LPD*%
G01*
G04 APERTURE LIST*
%ADD10C,0.200000*%
%ADD11C,0.150000*%
%ADD12C,0.100000*%
%ADD13C,0.120000*%
%ADD14C,0.127000*%
%ADD15C,0.406400*%
G04 APERTURE END LIST*
D10*
X35901388Y-50750000D02*
G75*
G02*
X34098612Y-50750000I-901388J0D01*
G01*
X34098612Y-50750000D02*
G75*
G02*
X35901388Y-50750000I901388J0D01*
G01*
X52567262Y-69750000D02*
G75*
G02*
X49245538Y-69750000I-1660862J0D01*
G01*
X49245538Y-69750000D02*
G75*
G02*
X52567262Y-69750000I1660862J0D01*
G01*
X56071320Y-30750000D02*
G75*
G02*
X53950000Y-30750000I-1060660J0D01*
G01*
X53950000Y-30750000D02*
G75*
G02*
X56071320Y-30750000I1060660J0D01*
G01*
X36060660Y-30750000D02*
G75*
G02*
X33939340Y-30750000I-1060660J0D01*
G01*
X33939340Y-30750000D02*
G75*
G02*
X36060660Y-30750000I1060660J0D01*
G01*
X56060660Y-30750000D02*
G75*
G02*
X53939340Y-30750000I-1060660J0D01*
G01*
X53939340Y-30750000D02*
G75*
G02*
X56060660Y-30750000I1060660J0D01*
G01*
X36171320Y-50800000D02*
G75*
G02*
X34050000Y-50800000I-1060660J0D01*
G01*
X34050000Y-50800000D02*
G75*
G02*
X36171320Y-50800000I1060660J0D01*
G01*
X30500000Y-26000000D02*
X59500000Y-26000000D01*
X59500000Y-55000000D01*
X30500000Y-55000000D01*
X30500000Y-26000000D01*
X52556751Y-86514000D02*
G75*
G02*
X49256049Y-86514000I-1650351J0D01*
G01*
X49256049Y-86514000D02*
G75*
G02*
X52556751Y-86514000I1650351J0D01*
G01*
X56071320Y-50750000D02*
G75*
G02*
X53950000Y-50750000I-1060660J0D01*
G01*
X53950000Y-50750000D02*
G75*
G02*
X56071320Y-50750000I1060660J0D01*
G01*
X37070000Y-66500000D02*
X53220000Y-66500000D01*
X53220000Y-88500000D01*
X37070000Y-88500000D01*
X37070000Y-66500000D01*
X56060660Y-50750000D02*
G75*
G02*
X53939340Y-50750000I-1060660J0D01*
G01*
X53939340Y-50750000D02*
G75*
G02*
X56060660Y-50750000I1060660J0D01*
G01*
D11*
X51000000Y-72936128D02*
X51000000Y-74007557D01*
X51000000Y-74007557D02*
X50928571Y-74221842D01*
X50928571Y-74221842D02*
X50785714Y-74364700D01*
X50785714Y-74364700D02*
X50571428Y-74436128D01*
X50571428Y-74436128D02*
X50428571Y-74436128D01*
X52500000Y-74436128D02*
X51642857Y-74436128D01*
X52071428Y-74436128D02*
X52071428Y-72936128D01*
X52071428Y-72936128D02*
X51928571Y-73150414D01*
X51928571Y-73150414D02*
X51785714Y-73293271D01*
X51785714Y-73293271D02*
X51642857Y-73364700D01*
X27357142Y-53086128D02*
X27357142Y-54300414D01*
X27357142Y-54300414D02*
X27428571Y-54443271D01*
X27428571Y-54443271D02*
X27500000Y-54514700D01*
X27500000Y-54514700D02*
X27642857Y-54586128D01*
X27642857Y-54586128D02*
X27928571Y-54586128D01*
X27928571Y-54586128D02*
X28071428Y-54514700D01*
X28071428Y-54514700D02*
X28142857Y-54443271D01*
X28142857Y-54443271D02*
X28214285Y-54300414D01*
X28214285Y-54300414D02*
X28214285Y-53086128D01*
X29714286Y-54586128D02*
X28857143Y-54586128D01*
X29285714Y-54586128D02*
X29285714Y-53086128D01*
X29285714Y-53086128D02*
X29142857Y-53300414D01*
X29142857Y-53300414D02*
X29000000Y-53443271D01*
X29000000Y-53443271D02*
X28857143Y-53514700D01*
X59850000Y-62536128D02*
X59850000Y-63607557D01*
X59850000Y-63607557D02*
X59778571Y-63821842D01*
X59778571Y-63821842D02*
X59635714Y-63964700D01*
X59635714Y-63964700D02*
X59421428Y-64036128D01*
X59421428Y-64036128D02*
X59278571Y-64036128D01*
X60492857Y-62678985D02*
X60564285Y-62607557D01*
X60564285Y-62607557D02*
X60707143Y-62536128D01*
X60707143Y-62536128D02*
X61064285Y-62536128D01*
X61064285Y-62536128D02*
X61207143Y-62607557D01*
X61207143Y-62607557D02*
X61278571Y-62678985D01*
X61278571Y-62678985D02*
X61350000Y-62821842D01*
X61350000Y-62821842D02*
X61350000Y-62964700D01*
X61350000Y-62964700D02*
X61278571Y-63178985D01*
X61278571Y-63178985D02*
X60421428Y-64036128D01*
X60421428Y-64036128D02*
X61350000Y-64036128D01*
D12*
X55207142Y-70888728D02*
X55207142Y-72103014D01*
X55207142Y-72103014D02*
X55278571Y-72245871D01*
X55278571Y-72245871D02*
X55350000Y-72317300D01*
X55350000Y-72317300D02*
X55492857Y-72388728D01*
X55492857Y-72388728D02*
X55778571Y-72388728D01*
X55778571Y-72388728D02*
X55921428Y-72317300D01*
X55921428Y-72317300D02*
X55992857Y-72245871D01*
X55992857Y-72245871D02*
X56064285Y-72103014D01*
X56064285Y-72103014D02*
X56064285Y-70888728D01*
X56707143Y-71031585D02*
X56778571Y-70960157D01*
X56778571Y-70960157D02*
X56921429Y-70888728D01*
X56921429Y-70888728D02*
X57278571Y-70888728D01*
X57278571Y-70888728D02*
X57421429Y-70960157D01*
X57421429Y-70960157D02*
X57492857Y-71031585D01*
X57492857Y-71031585D02*
X57564286Y-71174442D01*
X57564286Y-71174442D02*
X57564286Y-71317300D01*
X57564286Y-71317300D02*
X57492857Y-71531585D01*
X57492857Y-71531585D02*
X56635714Y-72388728D01*
X56635714Y-72388728D02*
X57564286Y-72388728D01*
X50500000Y-114188728D02*
X49785714Y-114188728D01*
X49785714Y-114188728D02*
X49714286Y-114903014D01*
X49714286Y-114903014D02*
X49785714Y-114831585D01*
X49785714Y-114831585D02*
X49928572Y-114760157D01*
X49928572Y-114760157D02*
X50285714Y-114760157D01*
X50285714Y-114760157D02*
X50428572Y-114831585D01*
X50428572Y-114831585D02*
X50500000Y-114903014D01*
X50500000Y-114903014D02*
X50571429Y-115045871D01*
X50571429Y-115045871D02*
X50571429Y-115403014D01*
X50571429Y-115403014D02*
X50500000Y-115545871D01*
X50500000Y-115545871D02*
X50428572Y-115617300D01*
X50428572Y-115617300D02*
X50285714Y-115688728D01*
X50285714Y-115688728D02*
X49928572Y-115688728D01*
X49928572Y-115688728D02*
X49785714Y-115617300D01*
X49785714Y-115617300D02*
X49714286Y-115545871D01*
X51000000Y-114188728D02*
X51500000Y-115688728D01*
X51500000Y-115688728D02*
X52000000Y-114188728D01*
X52142857Y-115831585D02*
X53285714Y-115831585D01*
X54142856Y-114903014D02*
X54357142Y-114974442D01*
X54357142Y-114974442D02*
X54428571Y-115045871D01*
X54428571Y-115045871D02*
X54499999Y-115188728D01*
X54499999Y-115188728D02*
X54499999Y-115403014D01*
X54499999Y-115403014D02*
X54428571Y-115545871D01*
X54428571Y-115545871D02*
X54357142Y-115617300D01*
X54357142Y-115617300D02*
X54214285Y-115688728D01*
X54214285Y-115688728D02*
X53642856Y-115688728D01*
X53642856Y-115688728D02*
X53642856Y-114188728D01*
X53642856Y-114188728D02*
X54142856Y-114188728D01*
X54142856Y-114188728D02*
X54285714Y-114260157D01*
X54285714Y-114260157D02*
X54357142Y-114331585D01*
X54357142Y-114331585D02*
X54428571Y-114474442D01*
X54428571Y-114474442D02*
X54428571Y-114617300D01*
X54428571Y-114617300D02*
X54357142Y-114760157D01*
X54357142Y-114760157D02*
X54285714Y-114831585D01*
X54285714Y-114831585D02*
X54142856Y-114903014D01*
X54142856Y-114903014D02*
X53642856Y-114903014D01*
X55142856Y-114903014D02*
X55642856Y-114903014D01*
X55857142Y-115688728D02*
X55142856Y-115688728D01*
X55142856Y-115688728D02*
X55142856Y-114188728D01*
X55142856Y-114188728D02*
X55857142Y-114188728D01*
X57357142Y-115545871D02*
X57285714Y-115617300D01*
X57285714Y-115617300D02*
X57071428Y-115688728D01*
X57071428Y-115688728D02*
X56928571Y-115688728D01*
X56928571Y-115688728D02*
X56714285Y-115617300D01*
X56714285Y-115617300D02*
X56571428Y-115474442D01*
X56571428Y-115474442D02*
X56499999Y-115331585D01*
X56499999Y-115331585D02*
X56428571Y-115045871D01*
X56428571Y-115045871D02*
X56428571Y-114831585D01*
X56428571Y-114831585D02*
X56499999Y-114545871D01*
X56499999Y-114545871D02*
X56571428Y-114403014D01*
X56571428Y-114403014D02*
X56714285Y-114260157D01*
X56714285Y-114260157D02*
X56928571Y-114188728D01*
X56928571Y-114188728D02*
X57071428Y-114188728D01*
X57071428Y-114188728D02*
X57285714Y-114260157D01*
X57285714Y-114260157D02*
X57357142Y-114331585D01*
X58785714Y-115688728D02*
X57928571Y-115688728D01*
X58357142Y-115688728D02*
X58357142Y-114188728D01*
X58357142Y-114188728D02*
X58214285Y-114403014D01*
X58214285Y-114403014D02*
X58071428Y-114545871D01*
X58071428Y-114545871D02*
X57928571Y-114617300D01*
D13*
%TO.C,J1*%
X48880000Y-64770000D02*
X48880000Y-82660000D01*
X46120000Y-82660000D02*
X48880000Y-82660000D01*
X46120000Y-64770000D02*
X48880000Y-64770000D01*
X46120000Y-64770000D02*
X46120000Y-82660000D01*
X46120000Y-63500000D02*
X46120000Y-62120000D01*
X46120000Y-62120000D02*
X47500000Y-62120000D01*
D14*
%TO.C,U1*%
X26490000Y-55110000D02*
X31350000Y-55110000D01*
X26490000Y-116070000D02*
X26490000Y-55110000D01*
X31350000Y-54410000D02*
X39410000Y-54410000D01*
X31350000Y-55110000D02*
X31350000Y-54410000D01*
X39410000Y-55110000D02*
X39410000Y-54410000D01*
X44270000Y-55110000D02*
X39410000Y-55110000D01*
X44270000Y-55110000D02*
X44270000Y-116070000D01*
X44270000Y-116070000D02*
X26490000Y-116070000D01*
D13*
%TO.C,J2*%
X61620000Y-66120000D02*
X61620000Y-48230000D01*
X64380000Y-48230000D02*
X61620000Y-48230000D01*
X64380000Y-66120000D02*
X61620000Y-66120000D01*
X64380000Y-66120000D02*
X64380000Y-48230000D01*
X64380000Y-67390000D02*
X64380000Y-68770000D01*
X64380000Y-68770000D02*
X63000000Y-68770000D01*
%TO.C,U2*%
D15*
X64976600Y-73023400D02*
X54976600Y-73023400D01*
X54976600Y-83023400D01*
X64976600Y-83023400D01*
X64976600Y-73023400D01*
D14*
%TO.C,MountingHoleAcc1*%
X52506430Y-69750030D02*
G75*
G02*
X49293570Y-69750030I-1606430J0D01*
G01*
X49293570Y-69750030D02*
G75*
G02*
X52506430Y-69750030I1606430J0D01*
G01*
D15*
%TO.C,5V_BEC1*%
X45425000Y-88750000D02*
X45425000Y-112750000D01*
X64425000Y-88750000D02*
X45425000Y-88750000D01*
X64425000Y-88750000D02*
X64425000Y-112750000D01*
X64425000Y-112750000D02*
X45425000Y-112750000D01*
D14*
%TO.C,MountingHoleAcc2*%
X52506430Y-86493230D02*
G75*
G02*
X49293570Y-86493230I-1606430J0D01*
G01*
X49293570Y-86493230D02*
G75*
G02*
X52506430Y-86493230I1606430J0D01*
G01*
%TD*%
M02*
