%TF.GenerationSoftware,KiCad,Pcbnew,9.0.2-9.0.2-0~ubuntu22.04.1*%
%TF.CreationDate,2025-07-03T15:54:24-04:00*%
%TF.ProjectId,TeensyDrone,5465656e-7379-4447-926f-6e652e6b6963,rev?*%
%TF.SameCoordinates,Original*%
%TF.FileFunction,Copper,L2,Bot*%
%TF.FilePolarity,Positive*%
%FSLAX46Y46*%
G04 Gerber Fmt 4.6, Leading zero omitted, Abs format (unit mm)*
G04 Created by KiCad (PCBNEW 9.0.2-9.0.2-0~ubuntu22.04.1) date 2025-07-03 15:54:24*
%MOMM*%
%LPD*%
G01*
G04 APERTURE LIST*
%TA.AperFunction,ComponentPad*%
%ADD10C,2.000000*%
%TD*%
%TA.AperFunction,ComponentPad*%
%ADD11R,2.000000X2.000000*%
%TD*%
%TA.AperFunction,ComponentPad*%
%ADD12O,2.000000X3.000000*%
%TD*%
%TA.AperFunction,Conductor*%
%ADD13C,1.000000*%
%TD*%
%TA.AperFunction,Conductor*%
%ADD14C,0.500000*%
%TD*%
G04 APERTURE END LIST*
D10*
%TO.P,J1,8,Pin_8*%
%TO.N,unconnected-(J1-Pin_8-Pad8)*%
X47500000Y-81280000D03*
%TO.P,J1,7,Pin_7*%
%TO.N,unconnected-(J1-Pin_7-Pad7)*%
X47500000Y-78740000D03*
%TO.P,J1,6,Pin_6*%
%TO.N,unconnected-(J1-Pin_6-Pad6)*%
X47500000Y-76200000D03*
%TO.P,J1,5,Pin_5*%
%TO.N,unconnected-(J1-Pin_5-Pad5)*%
X47500000Y-73660000D03*
%TO.P,J1,4,SDA*%
%TO.N,Net-(J1-SDA)*%
X47500000Y-71120000D03*
%TO.P,J1,3,SCL*%
%TO.N,Net-(J1-SCL)*%
X47500000Y-68580000D03*
%TO.P,J1,2,GND*%
%TO.N,GND*%
X47500000Y-66040000D03*
D11*
%TO.P,J1,1,3.3V*%
%TO.N,Net-(J1-3.3V)*%
X47500000Y-63500000D03*
%TD*%
D10*
%TO.P,U1,0,RX1*%
%TO.N,Net-(J2-Servo1)*%
X27760000Y-58920000D03*
%TO.P,U1,1,TX1*%
%TO.N,Net-(J2-Servo2)*%
X27760000Y-61460000D03*
%TO.P,U1,2,OUT2*%
%TO.N,Net-(J2-Servo3)*%
X27760000Y-64000000D03*
%TO.P,U1,3,LRCLK2*%
%TO.N,Net-(J2-Servo4)*%
X27760000Y-66540000D03*
%TO.P,U1,3.3V,3.3V*%
%TO.N,Net-(J1-3.3V)*%
X43000000Y-61460000D03*
%TO.P,U1,3.3V_1*%
%TO.N,N/C*%
X27760000Y-91940000D03*
%TO.P,U1,4,BCLK2*%
%TO.N,unconnected-(U1-BCLK2-Pad4)*%
X27760000Y-69080000D03*
%TO.P,U1,5,IN2*%
%TO.N,unconnected-(U1-IN2-Pad5)*%
X27760000Y-71620000D03*
%TO.P,U1,5V,5V*%
%TO.N,5V*%
X43000000Y-56380000D03*
%TO.P,U1,6,OUT1D*%
%TO.N,unconnected-(U1-OUT1D-Pad6)*%
X27760000Y-74160000D03*
%TO.P,U1,7,RX2*%
%TO.N,unconnected-(U1-RX2-Pad7)*%
X27760000Y-76700000D03*
%TO.P,U1,8,TX2*%
%TO.N,unconnected-(U1-TX2-Pad8)*%
X27760000Y-79240000D03*
%TO.P,U1,9,OUT1C*%
%TO.N,unconnected-(U1-OUT1C-Pad9)*%
X27760000Y-81780000D03*
%TO.P,U1,10,CS1*%
%TO.N,unconnected-(U1-CS1-Pad10)*%
X27760000Y-84320000D03*
%TO.P,U1,11,MOSI*%
%TO.N,unconnected-(U1-MOSI-Pad11)*%
X27760000Y-86860000D03*
%TO.P,U1,12,MISO*%
%TO.N,unconnected-(U1-MISO-Pad12)*%
X27760000Y-89400000D03*
%TO.P,U1,13,SCK*%
%TO.N,unconnected-(U1-SCK-Pad13)*%
X43000000Y-89400000D03*
%TO.P,U1,14,A0*%
%TO.N,unconnected-(U1-A0-Pad14)*%
X43000000Y-86860000D03*
%TO.P,U1,15,A1*%
%TO.N,unconnected-(U1-A1-Pad15)*%
X43000000Y-84320000D03*
%TO.P,U1,16,A2*%
%TO.N,Net-(U2-TX)*%
X43000000Y-81780000D03*
%TO.P,U1,17,A3*%
%TO.N,Net-(U2-RX)*%
X43000000Y-79240000D03*
%TO.P,U1,18,A4*%
%TO.N,Net-(J1-SDA)*%
X43000000Y-76700000D03*
%TO.P,U1,19,A5*%
%TO.N,Net-(J1-SCL)*%
X43000000Y-74160000D03*
%TO.P,U1,20,A6*%
%TO.N,unconnected-(U1-A6-Pad20)*%
X43000000Y-71620000D03*
%TO.P,U1,21,A7*%
%TO.N,unconnected-(U1-A7-Pad21)*%
X43000000Y-69080000D03*
%TO.P,U1,22,A8*%
%TO.N,unconnected-(U1-A8-Pad22)*%
X43000000Y-66540000D03*
%TO.P,U1,23,A9*%
%TO.N,unconnected-(U1-A9-Pad23)*%
X43000000Y-64000000D03*
%TO.P,U1,24,A10*%
%TO.N,unconnected-(U1-A10-Pad24)*%
X27760000Y-94480000D03*
%TO.P,U1,25,A11*%
%TO.N,unconnected-(U1-A11-Pad25)*%
X27760000Y-97020000D03*
%TO.P,U1,26,A12*%
%TO.N,unconnected-(U1-A12-Pad26)*%
X27760000Y-99560000D03*
%TO.P,U1,27,A13*%
%TO.N,unconnected-(U1-A13-Pad27)*%
X27760000Y-102100000D03*
%TO.P,U1,28,RX7*%
%TO.N,unconnected-(U1-RX7-Pad28)*%
X27760000Y-104640000D03*
%TO.P,U1,29,TX7*%
%TO.N,unconnected-(U1-TX7-Pad29)*%
X27760000Y-107180000D03*
%TO.P,U1,30,CRX3*%
%TO.N,unconnected-(U1-CRX3-Pad30)*%
X27760000Y-109720000D03*
%TO.P,U1,31,CTX3*%
%TO.N,unconnected-(U1-CTX3-Pad31)*%
X27760000Y-112260000D03*
%TO.P,U1,32,OUT1B*%
%TO.N,unconnected-(U1-OUT1B-Pad32)*%
X27760000Y-114800000D03*
%TO.P,U1,33,MCLK2*%
%TO.N,unconnected-(U1-MCLK2-Pad33)*%
X43000000Y-114800000D03*
%TO.P,U1,34,RX8*%
%TO.N,unconnected-(U1-RX8-Pad34)*%
X43000000Y-112260000D03*
%TO.P,U1,35,TX8*%
%TO.N,unconnected-(U1-TX8-Pad35)*%
X43000000Y-109720000D03*
%TO.P,U1,36,CS2*%
%TO.N,unconnected-(U1-CS2-Pad36)*%
X43000000Y-107180000D03*
%TO.P,U1,37,CS3*%
%TO.N,unconnected-(U1-CS3-Pad37)*%
X43000000Y-104640000D03*
%TO.P,U1,38,A14*%
%TO.N,unconnected-(U1-A14-Pad38)*%
X43000000Y-102100000D03*
%TO.P,U1,39,A15*%
%TO.N,unconnected-(U1-A15-Pad39)*%
X43000000Y-99560000D03*
%TO.P,U1,40,A16*%
%TO.N,unconnected-(U1-A16-Pad40)*%
X43000000Y-97020000D03*
%TO.P,U1,41,A17*%
%TO.N,unconnected-(U1-A17-Pad41)*%
X43000000Y-94480000D03*
%TO.P,U1,GND,GND*%
%TO.N,GND*%
X43000000Y-58920000D03*
%TO.P,U1,GND_1*%
%TO.N,N/C*%
X27760000Y-56380000D03*
%TO.P,U1,GND_2*%
X43000000Y-91940000D03*
%TD*%
D11*
%TO.P,J2,1,GND*%
%TO.N,GND*%
X63000000Y-67390000D03*
D10*
%TO.P,J2,2,VBat*%
%TO.N,Net-(J2-VBat)*%
X63000000Y-64850000D03*
%TO.P,J2,3,Servo1*%
%TO.N,Net-(J2-Servo1)*%
X63000000Y-62310000D03*
%TO.P,J2,4,Servo2*%
%TO.N,Net-(J2-Servo2)*%
X63000000Y-59770000D03*
%TO.P,J2,5,Servo3*%
%TO.N,Net-(J2-Servo3)*%
X63000000Y-57230000D03*
%TO.P,J2,6,Servo4*%
%TO.N,Net-(J2-Servo4)*%
X63000000Y-54690000D03*
%TO.P,J2,7,Pin_7*%
%TO.N,unconnected-(J2-Pin_7-Pad7)*%
X63000000Y-52150000D03*
%TO.P,J2,8,Pin_8*%
%TO.N,unconnected-(J2-Pin_8-Pad8)*%
X63000000Y-49610000D03*
%TD*%
D11*
%TO.P,U2,1,GND*%
%TO.N,GND*%
X56176600Y-81833400D03*
D10*
%TO.P,U2,2,5V*%
%TO.N,5V*%
X56176600Y-79293400D03*
%TO.P,U2,3,TX*%
%TO.N,Net-(U2-TX)*%
X56176600Y-76753400D03*
%TO.P,U2,4,RX*%
%TO.N,Net-(U2-RX)*%
X56176600Y-74213400D03*
%TD*%
D12*
%TO.P,5V_BEC1,1,VBat*%
%TO.N,Net-(J2-VBat)*%
X63025000Y-90975000D03*
%TO.P,5V_BEC1,2,VBat*%
%TO.N,unconnected-(5V_BEC1-VBat-Pad2)*%
X60485000Y-90975000D03*
%TO.P,5V_BEC1,3,GND*%
%TO.N,GND*%
X49515000Y-90975000D03*
%TO.P,5V_BEC1,4,GND*%
%TO.N,unconnected-(5V_BEC1-GND-Pad4)*%
X46975000Y-91000000D03*
%TO.P,5V_BEC1,5,5V*%
%TO.N,5V*%
X63025000Y-110525000D03*
%TO.P,5V_BEC1,6,5V*%
%TO.N,unconnected-(5V_BEC1-5V-Pad6)*%
X60485000Y-110525000D03*
%TO.P,5V_BEC1,7,GND*%
%TO.N,GND*%
X49515000Y-110525000D03*
%TO.P,5V_BEC1,8,GND*%
%TO.N,unconnected-(5V_BEC1-GND-Pad8)*%
X46975000Y-110525000D03*
%TD*%
D13*
%TO.N,5V*%
X63025000Y-110525000D02*
X63025000Y-98775000D01*
X63025000Y-98775000D02*
X56750000Y-92500000D01*
X56750000Y-92500000D02*
X56750000Y-87500000D01*
X56750000Y-87500000D02*
X58500000Y-85750000D01*
X58500000Y-85750000D02*
X58500000Y-78671700D01*
D14*
%TO.N,Net-(J2-Servo2)*%
X27710000Y-61460000D02*
X26960000Y-61460000D01*
X26960000Y-61460000D02*
X25752000Y-60252000D01*
X25752000Y-60252000D02*
X25752000Y-55498000D01*
X25752000Y-55498000D02*
X28000000Y-53250000D01*
X28000000Y-53250000D02*
X56480000Y-53250000D01*
X56480000Y-53250000D02*
X63000000Y-59770000D01*
D13*
%TO.N,Net-(J1-3.3V)*%
X47500000Y-63500000D02*
X46750000Y-63500000D01*
X44710000Y-61460000D02*
X42950000Y-61460000D01*
X46750000Y-63500000D02*
X44710000Y-61460000D01*
D14*
%TO.N,Net-(J2-Servo4)*%
X63000000Y-54690000D02*
X65249000Y-56939000D01*
X65249000Y-56939000D02*
X65249000Y-114001000D01*
X65249000Y-114001000D02*
X62000000Y-117250000D01*
X62000000Y-117250000D02*
X26000000Y-117250000D01*
X25250000Y-116500000D02*
X25250000Y-67750000D01*
X26000000Y-117250000D02*
X25250000Y-116500000D01*
X25250000Y-67750000D02*
X26500000Y-66500000D01*
X26500000Y-66500000D02*
X27670000Y-66500000D01*
X27670000Y-66500000D02*
X27710000Y-66540000D01*
D13*
%TO.N,Net-(J2-VBat)*%
X60750000Y-65638000D02*
X61538000Y-64850000D01*
X63025000Y-78025000D02*
X60750000Y-75750000D01*
X60750000Y-75750000D02*
X60750000Y-65638000D01*
X61538000Y-64850000D02*
X63000000Y-64850000D01*
X63025000Y-90975000D02*
X63025000Y-78025000D01*
D14*
%TO.N,Net-(J1-SDA)*%
X45000000Y-73620000D02*
X47500000Y-71120000D01*
X45000000Y-74650000D02*
X45000000Y-73620000D01*
X45000000Y-74650000D02*
X42950000Y-76700000D01*
%TO.N,Net-(J1-SCL)*%
X45000000Y-70830000D02*
X45000000Y-72110000D01*
X45000000Y-72110000D02*
X42950000Y-74160000D01*
X47250000Y-68580000D02*
X45000000Y-70830000D01*
%TO.N,Net-(J2-Servo3)*%
X58000000Y-52230000D02*
X63000000Y-57230000D01*
X55500000Y-46750000D02*
X58000000Y-49250000D01*
X58000000Y-49250000D02*
X58000000Y-52230000D01*
X25750000Y-64000000D02*
X24751000Y-63001000D01*
X27710000Y-64000000D02*
X25750000Y-64000000D01*
X31000000Y-46750000D02*
X55500000Y-46750000D01*
X24751000Y-52999000D02*
X31000000Y-46750000D01*
X24751000Y-63001000D02*
X24751000Y-52999000D01*
%TO.N,Net-(J2-Servo1)*%
X32130000Y-54500000D02*
X54250000Y-54500000D01*
X27710000Y-58920000D02*
X32130000Y-54500000D01*
X54250000Y-54500000D02*
X62060000Y-62310000D01*
X62060000Y-62310000D02*
X63000000Y-62310000D01*
%TO.N,Net-(U2-TX)*%
X55246600Y-76753400D02*
X56176600Y-76753400D01*
X42950000Y-81780000D02*
X46670000Y-85500000D01*
X53942100Y-78057900D02*
X55246600Y-76753400D01*
X53942100Y-80267735D02*
X53942100Y-78057900D01*
X46670000Y-85500000D02*
X48709835Y-85500000D01*
X48709835Y-85500000D02*
X53942100Y-80267735D01*
%TO.N,Net-(U2-RX)*%
X42950000Y-79240000D02*
X42990000Y-79240000D01*
X42990000Y-79240000D02*
X44750000Y-81000000D01*
X52250000Y-80500000D02*
X52250000Y-78140000D01*
X44750000Y-81000000D02*
X44750000Y-82164372D01*
X46835628Y-84250000D02*
X48500000Y-84250000D01*
X48500000Y-84250000D02*
X52250000Y-80500000D01*
X52250000Y-78140000D02*
X56176600Y-74213400D01*
X44750000Y-82164372D02*
X46835628Y-84250000D01*
D13*
%TO.N,5V*%
X48630000Y-56380000D02*
X42950000Y-56380000D01*
X58500000Y-78671700D02*
X58500000Y-66250000D01*
X58500000Y-66250000D02*
X48630000Y-56380000D01*
X57878300Y-79293400D02*
X56176600Y-79293400D01*
%TD*%
%TA.AperFunction,Conductor*%
%TO.N,GND*%
G36*
X41734628Y-55254047D02*
G01*
X41747173Y-55252970D01*
X41767518Y-55263705D01*
X41789586Y-55270185D01*
X41797829Y-55279699D01*
X41808968Y-55285576D01*
X41820280Y-55305608D01*
X41835341Y-55322989D01*
X41837132Y-55335449D01*
X41843325Y-55346415D01*
X41842011Y-55369380D01*
X41845285Y-55392147D01*
X41839958Y-55405270D01*
X41839335Y-55416171D01*
X41822867Y-55447381D01*
X41789454Y-55493371D01*
X41716657Y-55593566D01*
X41609433Y-55804003D01*
X41536446Y-56028631D01*
X41499500Y-56261902D01*
X41499500Y-56498097D01*
X41536446Y-56731368D01*
X41609433Y-56955996D01*
X41688875Y-57111908D01*
X41716657Y-57166433D01*
X41855483Y-57357510D01*
X42022490Y-57524517D01*
X42081716Y-57567547D01*
X42124381Y-57622875D01*
X42132448Y-57677593D01*
X42130893Y-57697340D01*
X42870591Y-58437037D01*
X42807007Y-58454075D01*
X42692993Y-58519901D01*
X42599901Y-58612993D01*
X42534075Y-58727007D01*
X42517037Y-58790591D01*
X41777340Y-58050894D01*
X41717084Y-58133830D01*
X41609897Y-58344197D01*
X41536934Y-58568752D01*
X41500000Y-58801947D01*
X41500000Y-59038052D01*
X41536934Y-59271247D01*
X41609897Y-59495802D01*
X41717087Y-59706174D01*
X41777338Y-59789104D01*
X41777340Y-59789105D01*
X42517037Y-59049408D01*
X42534075Y-59112993D01*
X42599901Y-59227007D01*
X42692993Y-59320099D01*
X42807007Y-59385925D01*
X42870590Y-59402962D01*
X42130893Y-60142658D01*
X42132448Y-60162405D01*
X42118084Y-60230783D01*
X42081717Y-60272451D01*
X42022490Y-60315482D01*
X41855485Y-60482487D01*
X41855485Y-60482488D01*
X41855483Y-60482490D01*
X41823598Y-60526376D01*
X41716657Y-60673566D01*
X41609433Y-60884003D01*
X41536446Y-61108631D01*
X41499500Y-61341902D01*
X41499500Y-61578097D01*
X41536446Y-61811368D01*
X41609433Y-62035996D01*
X41682441Y-62179280D01*
X41716657Y-62246433D01*
X41855483Y-62437510D01*
X42022490Y-62604517D01*
X42057127Y-62629683D01*
X42099792Y-62685013D01*
X42105771Y-62754626D01*
X42073165Y-62816421D01*
X42057130Y-62830315D01*
X42039365Y-62843222D01*
X42022488Y-62855484D01*
X41855485Y-63022487D01*
X41855485Y-63022488D01*
X41855483Y-63022490D01*
X41827942Y-63060397D01*
X41716657Y-63213566D01*
X41609433Y-63424003D01*
X41536446Y-63648631D01*
X41499500Y-63881902D01*
X41499500Y-64118097D01*
X41536446Y-64351368D01*
X41609433Y-64575996D01*
X41683653Y-64721659D01*
X41716657Y-64786433D01*
X41855483Y-64977510D01*
X42022490Y-65144517D01*
X42057127Y-65169683D01*
X42099792Y-65225013D01*
X42105771Y-65294626D01*
X42073165Y-65356421D01*
X42057130Y-65370315D01*
X42031966Y-65388598D01*
X42022487Y-65395485D01*
X41855485Y-65562487D01*
X41855485Y-65562488D01*
X41855483Y-65562490D01*
X41801760Y-65636433D01*
X41716657Y-65753566D01*
X41609433Y-65964003D01*
X41536446Y-66188631D01*
X41499500Y-66421902D01*
X41499500Y-66658097D01*
X41536446Y-66891368D01*
X41609433Y-67115996D01*
X41688710Y-67271584D01*
X41716657Y-67326433D01*
X41855483Y-67517510D01*
X42022490Y-67684517D01*
X42057127Y-67709683D01*
X42099792Y-67765013D01*
X42105771Y-67834626D01*
X42073165Y-67896421D01*
X42057130Y-67910315D01*
X42039365Y-67923222D01*
X42022488Y-67935484D01*
X41855485Y-68102487D01*
X41855485Y-68102488D01*
X41855483Y-68102490D01*
X41795862Y-68184550D01*
X41716657Y-68293566D01*
X41609433Y-68504003D01*
X41536446Y-68728631D01*
X41499500Y-68961902D01*
X41499500Y-69198097D01*
X41536446Y-69431368D01*
X41609433Y-69655996D01*
X41695737Y-69825375D01*
X41716657Y-69866433D01*
X41855483Y-70057510D01*
X42022490Y-70224517D01*
X42057127Y-70249683D01*
X42099792Y-70305013D01*
X42105771Y-70374626D01*
X42073165Y-70436421D01*
X42057130Y-70450315D01*
X42039365Y-70463222D01*
X42022488Y-70475484D01*
X41855485Y-70642487D01*
X41855485Y-70642488D01*
X41855483Y-70642490D01*
X41795862Y-70724550D01*
X41716657Y-70833566D01*
X41609433Y-71044003D01*
X41536446Y-71268631D01*
X41499500Y-71501902D01*
X41499500Y-71738097D01*
X41536446Y-71971368D01*
X41609433Y-72195996D01*
X41695737Y-72365375D01*
X41716657Y-72406433D01*
X41855483Y-72597510D01*
X42022490Y-72764517D01*
X42057127Y-72789683D01*
X42099792Y-72845013D01*
X42105771Y-72914626D01*
X42073165Y-72976421D01*
X42057130Y-72990315D01*
X42039365Y-73003222D01*
X42022488Y-73015484D01*
X41855485Y-73182487D01*
X41855485Y-73182488D01*
X41855483Y-73182490D01*
X41816688Y-73235887D01*
X41716657Y-73373566D01*
X41609433Y-73584003D01*
X41536446Y-73808631D01*
X41499500Y-74041902D01*
X41499500Y-74278097D01*
X41536446Y-74511368D01*
X41609433Y-74735996D01*
X41685362Y-74885013D01*
X41716657Y-74946433D01*
X41855483Y-75137510D01*
X42022490Y-75304517D01*
X42057127Y-75329683D01*
X42099792Y-75385013D01*
X42105771Y-75454626D01*
X42073165Y-75516421D01*
X42057130Y-75530315D01*
X42039365Y-75543222D01*
X42022488Y-75555484D01*
X41855485Y-75722487D01*
X41855485Y-75722488D01*
X41855483Y-75722490D01*
X41816686Y-75775890D01*
X41716657Y-75913566D01*
X41609433Y-76124003D01*
X41536446Y-76348631D01*
X41499500Y-76581902D01*
X41499500Y-76818097D01*
X41536446Y-77051368D01*
X41609433Y-77275996D01*
X41666104Y-77387218D01*
X41716657Y-77486433D01*
X41855483Y-77677510D01*
X42022490Y-77844517D01*
X42057127Y-77869683D01*
X42099792Y-77925013D01*
X42105771Y-77994626D01*
X42073165Y-78056421D01*
X42057130Y-78070315D01*
X42039365Y-78083222D01*
X42022488Y-78095484D01*
X41855485Y-78262487D01*
X41855485Y-78262488D01*
X41855483Y-78262490D01*
X41833389Y-78292900D01*
X41716657Y-78453566D01*
X41609433Y-78664003D01*
X41536446Y-78888631D01*
X41499500Y-79121902D01*
X41499500Y-79358097D01*
X41536446Y-79591368D01*
X41609433Y-79815996D01*
X41681211Y-79956867D01*
X41716657Y-80026433D01*
X41855483Y-80217510D01*
X42022490Y-80384517D01*
X42057127Y-80409683D01*
X42099792Y-80465013D01*
X42105771Y-80534626D01*
X42073165Y-80596421D01*
X42057130Y-80610315D01*
X42039365Y-80623222D01*
X42022488Y-80635484D01*
X41855485Y-80802487D01*
X41855485Y-80802488D01*
X41855483Y-80802490D01*
X41843012Y-80819655D01*
X41716657Y-80993566D01*
X41609433Y-81204003D01*
X41536446Y-81428631D01*
X41499500Y-81661902D01*
X41499500Y-81898097D01*
X41536446Y-82131368D01*
X41609433Y-82355996D01*
X41644347Y-82424517D01*
X41716657Y-82566433D01*
X41855483Y-82757510D01*
X42022490Y-82924517D01*
X42057127Y-82949683D01*
X42099792Y-83005013D01*
X42105771Y-83074626D01*
X42073165Y-83136421D01*
X42057130Y-83150315D01*
X42039365Y-83163222D01*
X42022488Y-83175484D01*
X41855485Y-83342487D01*
X41855485Y-83342488D01*
X41855483Y-83342490D01*
X41814539Y-83398845D01*
X41716657Y-83533566D01*
X41609433Y-83744003D01*
X41536446Y-83968631D01*
X41499500Y-84201902D01*
X41499500Y-84438097D01*
X41536446Y-84671368D01*
X41609433Y-84895996D01*
X41716657Y-85106433D01*
X41855483Y-85297510D01*
X42022490Y-85464517D01*
X42057127Y-85489683D01*
X42099792Y-85545013D01*
X42105771Y-85614626D01*
X42073165Y-85676421D01*
X42057130Y-85690315D01*
X42039365Y-85703222D01*
X42022488Y-85715484D01*
X41855485Y-85882487D01*
X41855485Y-85882488D01*
X41855483Y-85882490D01*
X41795862Y-85964550D01*
X41716657Y-86073566D01*
X41609433Y-86284003D01*
X41536446Y-86508631D01*
X41499500Y-86741902D01*
X41499500Y-86978097D01*
X41536446Y-87211368D01*
X41609433Y-87435996D01*
X41696582Y-87607033D01*
X41716657Y-87646433D01*
X41855483Y-87837510D01*
X42022490Y-88004517D01*
X42057127Y-88029683D01*
X42099792Y-88085013D01*
X42105771Y-88154626D01*
X42073165Y-88216421D01*
X42057130Y-88230315D01*
X42039365Y-88243222D01*
X42022488Y-88255484D01*
X41855485Y-88422487D01*
X41855485Y-88422488D01*
X41855483Y-88422490D01*
X41828594Y-88459500D01*
X41716657Y-88613566D01*
X41609433Y-88824003D01*
X41536446Y-89048631D01*
X41499500Y-89281902D01*
X41499500Y-89518097D01*
X41536446Y-89751368D01*
X41609433Y-89975996D01*
X41684658Y-90123632D01*
X41716657Y-90186433D01*
X41855483Y-90377510D01*
X42022490Y-90544517D01*
X42057127Y-90569683D01*
X42099792Y-90625013D01*
X42105771Y-90694626D01*
X42073165Y-90756421D01*
X42057130Y-90770315D01*
X42041038Y-90782007D01*
X42022488Y-90795484D01*
X41855485Y-90962487D01*
X41855485Y-90962488D01*
X41855483Y-90962490D01*
X41798568Y-91040826D01*
X41716657Y-91153566D01*
X41609433Y-91364003D01*
X41536446Y-91588631D01*
X41499500Y-91821902D01*
X41499500Y-92058097D01*
X41536446Y-92291368D01*
X41609433Y-92515996D01*
X41716657Y-92726433D01*
X41855483Y-92917510D01*
X42022490Y-93084517D01*
X42057127Y-93109683D01*
X42099792Y-93165013D01*
X42105771Y-93234626D01*
X42073165Y-93296421D01*
X42057130Y-93310315D01*
X42039365Y-93323222D01*
X42022488Y-93335484D01*
X41855485Y-93502487D01*
X41855485Y-93502488D01*
X41855483Y-93502490D01*
X41795862Y-93584550D01*
X41716657Y-93693566D01*
X41609433Y-93904003D01*
X41536446Y-94128631D01*
X41499500Y-94361902D01*
X41499500Y-94598097D01*
X41536446Y-94831368D01*
X41609433Y-95055996D01*
X41716657Y-95266433D01*
X41855483Y-95457510D01*
X42022490Y-95624517D01*
X42057127Y-95649683D01*
X42099792Y-95705013D01*
X42105771Y-95774626D01*
X42073165Y-95836421D01*
X42057130Y-95850315D01*
X42039365Y-95863222D01*
X42022488Y-95875484D01*
X41855485Y-96042487D01*
X41855485Y-96042488D01*
X41855483Y-96042490D01*
X41795862Y-96124550D01*
X41716657Y-96233566D01*
X41609433Y-96444003D01*
X41536446Y-96668631D01*
X41499500Y-96901902D01*
X41499500Y-97138097D01*
X41536446Y-97371368D01*
X41609433Y-97595996D01*
X41716657Y-97806433D01*
X41855483Y-97997510D01*
X42022490Y-98164517D01*
X42057127Y-98189683D01*
X42099792Y-98245013D01*
X42105771Y-98314626D01*
X42073165Y-98376421D01*
X42057130Y-98390315D01*
X42022490Y-98415483D01*
X42022487Y-98415485D01*
X41855485Y-98582487D01*
X41855485Y-98582488D01*
X41855483Y-98582490D01*
X41795862Y-98664550D01*
X41716657Y-98773566D01*
X41609433Y-98984003D01*
X41536446Y-99208631D01*
X41499500Y-99441902D01*
X41499500Y-99678097D01*
X41536446Y-99911368D01*
X41609433Y-100135996D01*
X41716657Y-100346433D01*
X41855483Y-100537510D01*
X42022490Y-100704517D01*
X42057127Y-100729683D01*
X42099792Y-100785013D01*
X42105771Y-100854626D01*
X42073165Y-100916421D01*
X42057130Y-100930315D01*
X42039365Y-100943222D01*
X42022488Y-100955484D01*
X41855485Y-101122487D01*
X41855485Y-101122488D01*
X41855483Y-101122490D01*
X41795862Y-101204550D01*
X41716657Y-101313566D01*
X41609433Y-101524003D01*
X41536446Y-101748631D01*
X41499500Y-101981902D01*
X41499500Y-102218097D01*
X41536446Y-102451368D01*
X41609433Y-102675996D01*
X41716657Y-102886433D01*
X41855483Y-103077510D01*
X42022490Y-103244517D01*
X42057127Y-103269683D01*
X42099792Y-103325013D01*
X42105771Y-103394626D01*
X42073165Y-103456421D01*
X42057130Y-103470315D01*
X42039365Y-103483222D01*
X42022488Y-103495484D01*
X41855485Y-103662487D01*
X41855485Y-103662488D01*
X41855483Y-103662490D01*
X41795862Y-103744550D01*
X41716657Y-103853566D01*
X41609433Y-104064003D01*
X41536446Y-104288631D01*
X41499500Y-104521902D01*
X41499500Y-104758097D01*
X41536446Y-104991368D01*
X41609433Y-105215996D01*
X41716657Y-105426433D01*
X41855483Y-105617510D01*
X42022490Y-105784517D01*
X42057127Y-105809683D01*
X42099792Y-105865013D01*
X42105771Y-105934626D01*
X42073165Y-105996421D01*
X42057130Y-106010315D01*
X42039365Y-106023222D01*
X42022488Y-106035484D01*
X41855485Y-106202487D01*
X41855485Y-106202488D01*
X41855483Y-106202490D01*
X41795862Y-106284550D01*
X41716657Y-106393566D01*
X41609433Y-106604003D01*
X41536446Y-106828631D01*
X41499500Y-107061902D01*
X41499500Y-107298097D01*
X41536446Y-107531368D01*
X41609433Y-107755996D01*
X41716657Y-107966433D01*
X41855483Y-108157510D01*
X42022490Y-108324517D01*
X42057127Y-108349683D01*
X42099792Y-108405013D01*
X42105771Y-108474626D01*
X42073165Y-108536421D01*
X42057130Y-108550315D01*
X42041810Y-108561446D01*
X42022488Y-108575484D01*
X41855485Y-108742487D01*
X41855485Y-108742488D01*
X41855483Y-108742490D01*
X41795862Y-108824550D01*
X41716657Y-108933566D01*
X41609433Y-109144003D01*
X41536446Y-109368631D01*
X41499500Y-109601902D01*
X41499500Y-109838097D01*
X41536446Y-110071368D01*
X41609433Y-110295996D01*
X41692577Y-110459174D01*
X41716657Y-110506433D01*
X41855483Y-110697510D01*
X42022490Y-110864517D01*
X42057127Y-110889683D01*
X42099792Y-110945013D01*
X42105771Y-111014626D01*
X42073165Y-111076421D01*
X42057130Y-111090315D01*
X42039365Y-111103222D01*
X42022488Y-111115484D01*
X41855485Y-111282487D01*
X41855485Y-111282488D01*
X41855483Y-111282490D01*
X41795862Y-111364550D01*
X41716657Y-111473566D01*
X41609433Y-111684003D01*
X41536446Y-111908631D01*
X41499500Y-112141902D01*
X41499500Y-112378097D01*
X41536446Y-112611368D01*
X41609433Y-112835996D01*
X41716657Y-113046433D01*
X41855483Y-113237510D01*
X42022490Y-113404517D01*
X42057127Y-113429683D01*
X42099792Y-113485013D01*
X42105771Y-113554626D01*
X42073165Y-113616421D01*
X42057130Y-113630315D01*
X42045493Y-113638770D01*
X42022488Y-113655484D01*
X41855485Y-113822487D01*
X41855485Y-113822488D01*
X41855483Y-113822490D01*
X41795862Y-113904550D01*
X41716657Y-114013566D01*
X41609433Y-114224003D01*
X41536446Y-114448631D01*
X41499500Y-114681902D01*
X41499500Y-114918097D01*
X41536446Y-115151368D01*
X41609433Y-115375996D01*
X41716657Y-115586433D01*
X41855483Y-115777510D01*
X42022490Y-115944517D01*
X42213567Y-116083343D01*
X42312991Y-116134002D01*
X42424003Y-116190566D01*
X42424005Y-116190566D01*
X42424008Y-116190568D01*
X42599551Y-116247605D01*
X42630215Y-116257569D01*
X42687890Y-116297007D01*
X42715088Y-116361366D01*
X42703173Y-116430212D01*
X42655929Y-116481688D01*
X42591896Y-116499500D01*
X28168104Y-116499500D01*
X28101065Y-116479815D01*
X28055310Y-116427011D01*
X28045366Y-116357853D01*
X28074391Y-116294297D01*
X28129785Y-116257569D01*
X28147439Y-116251832D01*
X28335992Y-116190568D01*
X28546433Y-116083343D01*
X28737510Y-115944517D01*
X28904517Y-115777510D01*
X29043343Y-115586433D01*
X29150568Y-115375992D01*
X29223553Y-115151368D01*
X29241680Y-115036920D01*
X29260500Y-114918097D01*
X29260500Y-114681902D01*
X29223553Y-114448631D01*
X29150566Y-114224003D01*
X29043342Y-114013566D01*
X28904517Y-113822490D01*
X28737510Y-113655483D01*
X28702872Y-113630317D01*
X28660207Y-113574989D01*
X28654228Y-113505375D01*
X28686833Y-113443580D01*
X28702873Y-113429682D01*
X28737510Y-113404517D01*
X28904517Y-113237510D01*
X29043343Y-113046433D01*
X29150568Y-112835992D01*
X29223553Y-112611368D01*
X29237153Y-112525500D01*
X29260500Y-112378097D01*
X29260500Y-112141902D01*
X29223553Y-111908631D01*
X29150566Y-111684003D01*
X29043342Y-111473566D01*
X28904517Y-111282490D01*
X28737510Y-111115483D01*
X28702872Y-111090317D01*
X28660207Y-111034989D01*
X28654228Y-110965375D01*
X28686833Y-110903580D01*
X28702873Y-110889682D01*
X28737510Y-110864517D01*
X28904517Y-110697510D01*
X29043343Y-110506433D01*
X29150568Y-110295992D01*
X29223553Y-110071368D01*
X29253445Y-109882637D01*
X29260500Y-109838097D01*
X29260500Y-109601902D01*
X29223553Y-109368631D01*
X29150566Y-109144003D01*
X29094002Y-109032991D01*
X29043343Y-108933567D01*
X28904517Y-108742490D01*
X28737510Y-108575483D01*
X28702872Y-108550317D01*
X28660207Y-108494989D01*
X28654228Y-108425375D01*
X28686833Y-108363580D01*
X28702873Y-108349682D01*
X28737510Y-108324517D01*
X28904517Y-108157510D01*
X29043343Y-107966433D01*
X29150568Y-107755992D01*
X29223553Y-107531368D01*
X29260500Y-107298097D01*
X29260500Y-107061902D01*
X29223553Y-106828631D01*
X29150566Y-106604003D01*
X29043342Y-106393566D01*
X28904517Y-106202490D01*
X28737510Y-106035483D01*
X28702872Y-106010317D01*
X28660207Y-105954989D01*
X28654228Y-105885375D01*
X28686833Y-105823580D01*
X28702873Y-105809682D01*
X28737510Y-105784517D01*
X28904517Y-105617510D01*
X29043343Y-105426433D01*
X29150568Y-105215992D01*
X29223553Y-104991368D01*
X29260500Y-104758097D01*
X29260500Y-104521902D01*
X29223553Y-104288631D01*
X29150566Y-104064003D01*
X29043342Y-103853566D01*
X28904517Y-103662490D01*
X28737510Y-103495483D01*
X28702872Y-103470317D01*
X28660207Y-103414989D01*
X28654228Y-103345375D01*
X28686833Y-103283580D01*
X28702873Y-103269682D01*
X28737510Y-103244517D01*
X28904517Y-103077510D01*
X29043343Y-102886433D01*
X29150568Y-102675992D01*
X29223553Y-102451368D01*
X29260500Y-102218097D01*
X29260500Y-101981902D01*
X29223553Y-101748631D01*
X29150566Y-101524003D01*
X29043342Y-101313566D01*
X28904517Y-101122490D01*
X28737510Y-100955483D01*
X28702872Y-100930317D01*
X28660207Y-100874989D01*
X28654228Y-100805375D01*
X28686833Y-100743580D01*
X28702873Y-100729682D01*
X28737510Y-100704517D01*
X28904517Y-100537510D01*
X29043343Y-100346433D01*
X29150568Y-100135992D01*
X29223553Y-99911368D01*
X29260500Y-99678097D01*
X29260500Y-99441902D01*
X29223553Y-99208631D01*
X29150566Y-98984003D01*
X29043342Y-98773566D01*
X28904517Y-98582490D01*
X28737510Y-98415483D01*
X28702872Y-98390317D01*
X28660207Y-98334989D01*
X28654228Y-98265375D01*
X28686833Y-98203580D01*
X28702873Y-98189682D01*
X28737510Y-98164517D01*
X28904517Y-97997510D01*
X29043343Y-97806433D01*
X29150568Y-97595992D01*
X29223553Y-97371368D01*
X29260500Y-97138097D01*
X29260500Y-96901902D01*
X29223553Y-96668631D01*
X29150566Y-96444003D01*
X29043342Y-96233566D01*
X28904517Y-96042490D01*
X28737510Y-95875483D01*
X28702872Y-95850317D01*
X28660207Y-95794989D01*
X28654228Y-95725375D01*
X28686833Y-95663580D01*
X28702873Y-95649682D01*
X28737510Y-95624517D01*
X28904517Y-95457510D01*
X29043343Y-95266433D01*
X29150568Y-95055992D01*
X29223553Y-94831368D01*
X29260500Y-94598097D01*
X29260500Y-94361902D01*
X29223553Y-94128631D01*
X29150566Y-93904003D01*
X29043342Y-93693566D01*
X28904517Y-93502490D01*
X28737510Y-93335483D01*
X28702872Y-93310317D01*
X28660207Y-93254989D01*
X28654228Y-93185375D01*
X28686833Y-93123580D01*
X28702873Y-93109682D01*
X28737510Y-93084517D01*
X28904517Y-92917510D01*
X29043343Y-92726433D01*
X29150568Y-92515992D01*
X29223553Y-92291368D01*
X29224335Y-92286433D01*
X29260500Y-92058097D01*
X29260500Y-91821902D01*
X29223553Y-91588631D01*
X29175560Y-91440925D01*
X29150568Y-91364008D01*
X29150566Y-91364005D01*
X29150566Y-91364003D01*
X29043342Y-91153566D01*
X28904517Y-90962490D01*
X28737510Y-90795483D01*
X28702872Y-90770317D01*
X28660207Y-90714989D01*
X28654228Y-90645375D01*
X28686833Y-90583580D01*
X28702873Y-90569682D01*
X28737510Y-90544517D01*
X28904517Y-90377510D01*
X29043343Y-90186433D01*
X29150568Y-89975992D01*
X29223553Y-89751368D01*
X29234626Y-89681456D01*
X29260500Y-89518097D01*
X29260500Y-89281902D01*
X29223553Y-89048631D01*
X29150566Y-88824003D01*
X29043342Y-88613566D01*
X28904517Y-88422490D01*
X28737510Y-88255483D01*
X28702872Y-88230317D01*
X28660207Y-88174989D01*
X28654228Y-88105375D01*
X28686833Y-88043580D01*
X28702873Y-88029682D01*
X28737510Y-88004517D01*
X28904517Y-87837510D01*
X29043343Y-87646433D01*
X29150568Y-87435992D01*
X29223553Y-87211368D01*
X29224061Y-87208160D01*
X29260500Y-86978097D01*
X29260500Y-86741902D01*
X29223553Y-86508631D01*
X29171020Y-86346953D01*
X29150568Y-86284008D01*
X29150566Y-86284005D01*
X29150566Y-86284003D01*
X29057888Y-86102114D01*
X29043343Y-86073567D01*
X28904517Y-85882490D01*
X28737510Y-85715483D01*
X28702872Y-85690317D01*
X28660207Y-85634989D01*
X28654228Y-85565375D01*
X28686833Y-85503580D01*
X28702873Y-85489682D01*
X28737510Y-85464517D01*
X28904517Y-85297510D01*
X29043343Y-85106433D01*
X29150568Y-84895992D01*
X29223553Y-84671368D01*
X29246425Y-84526960D01*
X29260500Y-84438097D01*
X29260500Y-84201902D01*
X29223553Y-83968631D01*
X29150566Y-83744003D01*
X29043342Y-83533566D01*
X28904517Y-83342490D01*
X28737510Y-83175483D01*
X28702872Y-83150317D01*
X28660207Y-83094989D01*
X28654228Y-83025375D01*
X28686833Y-82963580D01*
X28702873Y-82949682D01*
X28715127Y-82940779D01*
X28737510Y-82924517D01*
X28904517Y-82757510D01*
X29043343Y-82566433D01*
X29150568Y-82355992D01*
X29223553Y-82131368D01*
X29233838Y-82066433D01*
X29260500Y-81898097D01*
X29260500Y-81661902D01*
X29223553Y-81428631D01*
X29150566Y-81204003D01*
X29043342Y-80993566D01*
X28904517Y-80802490D01*
X28737510Y-80635483D01*
X28702872Y-80610317D01*
X28660207Y-80554989D01*
X28654228Y-80485375D01*
X28686833Y-80423580D01*
X28702873Y-80409682D01*
X28737510Y-80384517D01*
X28904517Y-80217510D01*
X29043343Y-80026433D01*
X29150568Y-79815992D01*
X29223553Y-79591368D01*
X29233838Y-79526433D01*
X29260500Y-79358097D01*
X29260500Y-79121902D01*
X29223553Y-78888631D01*
X29150566Y-78664003D01*
X29094002Y-78552991D01*
X29043343Y-78453567D01*
X28904517Y-78262490D01*
X28737510Y-78095483D01*
X28702872Y-78070317D01*
X28660207Y-78014989D01*
X28654228Y-77945375D01*
X28686833Y-77883580D01*
X28702873Y-77869682D01*
X28737510Y-77844517D01*
X28904517Y-77677510D01*
X29043343Y-77486433D01*
X29150568Y-77275992D01*
X29223553Y-77051368D01*
X29233838Y-76986433D01*
X29260500Y-76818097D01*
X29260500Y-76581902D01*
X29223553Y-76348631D01*
X29183031Y-76223920D01*
X29150568Y-76124008D01*
X29150566Y-76124005D01*
X29150566Y-76124003D01*
X29094002Y-76012991D01*
X29043343Y-75913567D01*
X28904517Y-75722490D01*
X28737510Y-75555483D01*
X28702872Y-75530317D01*
X28660207Y-75474989D01*
X28654228Y-75405375D01*
X28686833Y-75343580D01*
X28702873Y-75329682D01*
X28737510Y-75304517D01*
X28904517Y-75137510D01*
X29043343Y-74946433D01*
X29150568Y-74735992D01*
X29223553Y-74511368D01*
X29252042Y-74331497D01*
X29260500Y-74278097D01*
X29260500Y-74041902D01*
X29223553Y-73808631D01*
X29150566Y-73584003D01*
X29094002Y-73472991D01*
X29043343Y-73373567D01*
X28904517Y-73182490D01*
X28737510Y-73015483D01*
X28702872Y-72990317D01*
X28660207Y-72934989D01*
X28654228Y-72865375D01*
X28686833Y-72803580D01*
X28702873Y-72789682D01*
X28737510Y-72764517D01*
X28904517Y-72597510D01*
X29043343Y-72406433D01*
X29150568Y-72195992D01*
X29223553Y-71971368D01*
X29249407Y-71808132D01*
X29260500Y-71738097D01*
X29260500Y-71501902D01*
X29223553Y-71268631D01*
X29159627Y-71071890D01*
X29150568Y-71044008D01*
X29150566Y-71044005D01*
X29150566Y-71044003D01*
X29058764Y-70863833D01*
X29043343Y-70833567D01*
X28904517Y-70642490D01*
X28737510Y-70475483D01*
X28702872Y-70450317D01*
X28660207Y-70394989D01*
X28654228Y-70325375D01*
X28686833Y-70263580D01*
X28702873Y-70249682D01*
X28737510Y-70224517D01*
X28904517Y-70057510D01*
X29043343Y-69866433D01*
X29150568Y-69655992D01*
X29223553Y-69431368D01*
X29233838Y-69366433D01*
X29260500Y-69198097D01*
X29260500Y-68961902D01*
X29223553Y-68728631D01*
X29150566Y-68504003D01*
X29043342Y-68293566D01*
X28904517Y-68102490D01*
X28737510Y-67935483D01*
X28702872Y-67910317D01*
X28660207Y-67854989D01*
X28654228Y-67785375D01*
X28686833Y-67723580D01*
X28702873Y-67709682D01*
X28737510Y-67684517D01*
X28904517Y-67517510D01*
X29043343Y-67326433D01*
X29150568Y-67115992D01*
X29223553Y-66891368D01*
X29255538Y-66689424D01*
X29260500Y-66658097D01*
X29260500Y-66421902D01*
X29223553Y-66188631D01*
X29150566Y-65964003D01*
X29053819Y-65774128D01*
X29043343Y-65753567D01*
X28904517Y-65562490D01*
X28737510Y-65395483D01*
X28702872Y-65370317D01*
X28660207Y-65314989D01*
X28654228Y-65245375D01*
X28686833Y-65183580D01*
X28702873Y-65169682D01*
X28737510Y-65144517D01*
X28904517Y-64977510D01*
X29043343Y-64786433D01*
X29150568Y-64575992D01*
X29223553Y-64351368D01*
X29235806Y-64274008D01*
X29260500Y-64118097D01*
X29260500Y-63881902D01*
X29223553Y-63648631D01*
X29186636Y-63535013D01*
X29150568Y-63424008D01*
X29150566Y-63424005D01*
X29150566Y-63424003D01*
X29081019Y-63287510D01*
X29043343Y-63213567D01*
X28904517Y-63022490D01*
X28737510Y-62855483D01*
X28702872Y-62830317D01*
X28660207Y-62774989D01*
X28654228Y-62705375D01*
X28686833Y-62643580D01*
X28702873Y-62629682D01*
X28737510Y-62604517D01*
X28904517Y-62437510D01*
X29043343Y-62246433D01*
X29150568Y-62035992D01*
X29223553Y-61811368D01*
X29235806Y-61734008D01*
X29260500Y-61578097D01*
X29260500Y-61341902D01*
X29223553Y-61108631D01*
X29173173Y-60953580D01*
X29150568Y-60884008D01*
X29150566Y-60884005D01*
X29150566Y-60884003D01*
X29052407Y-60691356D01*
X29043343Y-60673567D01*
X28904517Y-60482490D01*
X28737510Y-60315483D01*
X28702872Y-60290317D01*
X28660207Y-60234989D01*
X28654228Y-60165375D01*
X28686833Y-60103580D01*
X28702873Y-60089682D01*
X28737510Y-60064517D01*
X28904517Y-59897510D01*
X29043343Y-59706433D01*
X29150568Y-59495992D01*
X29223553Y-59271368D01*
X29248637Y-59112993D01*
X29260500Y-59038097D01*
X29260500Y-58801902D01*
X29238331Y-58661942D01*
X29223553Y-58568632D01*
X29222310Y-58564809D01*
X29220312Y-58494971D01*
X29252557Y-58438809D01*
X32404549Y-55286819D01*
X32465872Y-55253334D01*
X32492230Y-55250500D01*
X41722547Y-55250500D01*
X41734628Y-55254047D01*
G37*
%TD.AperFunction*%
%TA.AperFunction,Conductor*%
G36*
X54595934Y-80777783D02*
G01*
X54651867Y-80819655D01*
X54676284Y-80885119D01*
X54676600Y-80893965D01*
X54676600Y-81583400D01*
X55743588Y-81583400D01*
X55710675Y-81640407D01*
X55676600Y-81767574D01*
X55676600Y-81899226D01*
X55710675Y-82026393D01*
X55743588Y-82083400D01*
X54676600Y-82083400D01*
X54676600Y-82881244D01*
X54683001Y-82940772D01*
X54683003Y-82940779D01*
X54733245Y-83075486D01*
X54733249Y-83075493D01*
X54819409Y-83190587D01*
X54819412Y-83190590D01*
X54934506Y-83276750D01*
X54934513Y-83276754D01*
X55069220Y-83326996D01*
X55069227Y-83326998D01*
X55128755Y-83333399D01*
X55128772Y-83333400D01*
X55926600Y-83333400D01*
X55926600Y-82266412D01*
X55983607Y-82299325D01*
X56110774Y-82333400D01*
X56242426Y-82333400D01*
X56369593Y-82299325D01*
X56426600Y-82266412D01*
X56426600Y-83333400D01*
X57224428Y-83333400D01*
X57224444Y-83333399D01*
X57283972Y-83326998D01*
X57283980Y-83326996D01*
X57332165Y-83309024D01*
X57401856Y-83304038D01*
X57463180Y-83337523D01*
X57496666Y-83398845D01*
X57499500Y-83425205D01*
X57499500Y-85284217D01*
X57479815Y-85351256D01*
X57463181Y-85371898D01*
X56112220Y-86722859D01*
X56112218Y-86722861D01*
X56042538Y-86792540D01*
X55972859Y-86862219D01*
X55863371Y-87026079D01*
X55863364Y-87026092D01*
X55787950Y-87208160D01*
X55787947Y-87208170D01*
X55749500Y-87401456D01*
X55749500Y-87401459D01*
X55749500Y-92598541D01*
X55749500Y-92598543D01*
X55749499Y-92598543D01*
X55787947Y-92791829D01*
X55787950Y-92791839D01*
X55863364Y-92973907D01*
X55863371Y-92973920D01*
X55972860Y-93137781D01*
X55972863Y-93137785D01*
X56116537Y-93281459D01*
X56116559Y-93281479D01*
X61988181Y-99153101D01*
X62021666Y-99214424D01*
X62024500Y-99240782D01*
X62024500Y-108852111D01*
X62016500Y-108879354D01*
X62011534Y-108907315D01*
X62006051Y-108914939D01*
X62004815Y-108919150D01*
X61991484Y-108936360D01*
X61989870Y-108938102D01*
X61880483Y-109047490D01*
X61850988Y-109088086D01*
X61845984Y-109093490D01*
X61822053Y-109107776D01*
X61799987Y-109124792D01*
X61792471Y-109125437D01*
X61785992Y-109129306D01*
X61758136Y-109128386D01*
X61730374Y-109130771D01*
X61723700Y-109127249D01*
X61716160Y-109127001D01*
X61693227Y-109111170D01*
X61668579Y-109098165D01*
X61659934Y-109088188D01*
X61658660Y-109087309D01*
X61658183Y-109086168D01*
X61654682Y-109082127D01*
X61629517Y-109047490D01*
X61462510Y-108880483D01*
X61271433Y-108741657D01*
X61060996Y-108634433D01*
X60836368Y-108561446D01*
X60603097Y-108524500D01*
X60603092Y-108524500D01*
X60366908Y-108524500D01*
X60366903Y-108524500D01*
X60133631Y-108561446D01*
X59909003Y-108634433D01*
X59698566Y-108741657D01*
X59589550Y-108820862D01*
X59507490Y-108880483D01*
X59507488Y-108880485D01*
X59507487Y-108880485D01*
X59340485Y-109047487D01*
X59340485Y-109047488D01*
X59340483Y-109047490D01*
X59303358Y-109098588D01*
X59201657Y-109238566D01*
X59094433Y-109449003D01*
X59021446Y-109673631D01*
X58984500Y-109906902D01*
X58984500Y-111143097D01*
X59021446Y-111376368D01*
X59094433Y-111600996D01*
X59200829Y-111809807D01*
X59201657Y-111811433D01*
X59340483Y-112002510D01*
X59507490Y-112169517D01*
X59698567Y-112308343D01*
X59797991Y-112359002D01*
X59909003Y-112415566D01*
X59909005Y-112415566D01*
X59909008Y-112415568D01*
X60029412Y-112454689D01*
X60133631Y-112488553D01*
X60366903Y-112525500D01*
X60366908Y-112525500D01*
X60603097Y-112525500D01*
X60836368Y-112488553D01*
X60837876Y-112488063D01*
X61060992Y-112415568D01*
X61271433Y-112308343D01*
X61462510Y-112169517D01*
X61629517Y-112002510D01*
X61654682Y-111967872D01*
X61710011Y-111925207D01*
X61779625Y-111919228D01*
X61841420Y-111951833D01*
X61855315Y-111967870D01*
X61880483Y-112002510D01*
X62047490Y-112169517D01*
X62238567Y-112308343D01*
X62337991Y-112359002D01*
X62449003Y-112415566D01*
X62449005Y-112415566D01*
X62449008Y-112415568D01*
X62569412Y-112454689D01*
X62673631Y-112488553D01*
X62906903Y-112525500D01*
X62906908Y-112525500D01*
X63143097Y-112525500D01*
X63376368Y-112488553D01*
X63377876Y-112488063D01*
X63600992Y-112415568D01*
X63811433Y-112308343D01*
X64002510Y-112169517D01*
X64169517Y-112002510D01*
X64274182Y-111858450D01*
X64329512Y-111815786D01*
X64399126Y-111809807D01*
X64460921Y-111842413D01*
X64495278Y-111903252D01*
X64498500Y-111931337D01*
X64498500Y-113638770D01*
X64478815Y-113705809D01*
X64462181Y-113726451D01*
X61725451Y-116463181D01*
X61664128Y-116496666D01*
X61637770Y-116499500D01*
X43408104Y-116499500D01*
X43341065Y-116479815D01*
X43295310Y-116427011D01*
X43285366Y-116357853D01*
X43314391Y-116294297D01*
X43369785Y-116257569D01*
X43387439Y-116251832D01*
X43575992Y-116190568D01*
X43786433Y-116083343D01*
X43977510Y-115944517D01*
X44144517Y-115777510D01*
X44283343Y-115586433D01*
X44390568Y-115375992D01*
X44463553Y-115151368D01*
X44481680Y-115036920D01*
X44500500Y-114918097D01*
X44500500Y-114681902D01*
X44463553Y-114448631D01*
X44390566Y-114224003D01*
X44283342Y-114013566D01*
X44144517Y-113822490D01*
X43977510Y-113655483D01*
X43942872Y-113630317D01*
X43900207Y-113574989D01*
X43894228Y-113505375D01*
X43926833Y-113443580D01*
X43942873Y-113429682D01*
X43977510Y-113404517D01*
X44144517Y-113237510D01*
X44283343Y-113046433D01*
X44390568Y-112835992D01*
X44463553Y-112611368D01*
X44477153Y-112525500D01*
X44500500Y-112378097D01*
X44500500Y-112141902D01*
X44463553Y-111908631D01*
X44390566Y-111684003D01*
X44283342Y-111473566D01*
X44144517Y-111282490D01*
X43977510Y-111115483D01*
X43942872Y-111090317D01*
X43900207Y-111034989D01*
X43894228Y-110965375D01*
X43926833Y-110903580D01*
X43942873Y-110889682D01*
X43977510Y-110864517D01*
X44144517Y-110697510D01*
X44283343Y-110506433D01*
X44390568Y-110295992D01*
X44463553Y-110071368D01*
X44489602Y-109906902D01*
X45474500Y-109906902D01*
X45474500Y-111143097D01*
X45511446Y-111376368D01*
X45584433Y-111600996D01*
X45690829Y-111809807D01*
X45691657Y-111811433D01*
X45830483Y-112002510D01*
X45997490Y-112169517D01*
X46188567Y-112308343D01*
X46287991Y-112359002D01*
X46399003Y-112415566D01*
X46399005Y-112415566D01*
X46399008Y-112415568D01*
X46519412Y-112454689D01*
X46623631Y-112488553D01*
X46856903Y-112525500D01*
X46856908Y-112525500D01*
X47093097Y-112525500D01*
X47326368Y-112488553D01*
X47327876Y-112488063D01*
X47550992Y-112415568D01*
X47761433Y-112308343D01*
X47952510Y-112169517D01*
X48119517Y-112002510D01*
X48144992Y-111967446D01*
X48200318Y-111924783D01*
X48269931Y-111918802D01*
X48331727Y-111951407D01*
X48345625Y-111967446D01*
X48370863Y-112002183D01*
X48537813Y-112169133D01*
X48728828Y-112307914D01*
X48939195Y-112415102D01*
X49163744Y-112488063D01*
X49163750Y-112488065D01*
X49265000Y-112504101D01*
X49265000Y-110958012D01*
X49322007Y-110990925D01*
X49449174Y-111025000D01*
X49580826Y-111025000D01*
X49707993Y-110990925D01*
X49765000Y-110958012D01*
X49765000Y-112504100D01*
X49866249Y-112488065D01*
X49866255Y-112488063D01*
X50090804Y-112415102D01*
X50301171Y-112307914D01*
X50492186Y-112169133D01*
X50659133Y-112002186D01*
X50797914Y-111811171D01*
X50905102Y-111600802D01*
X50978065Y-111376247D01*
X51015000Y-111143052D01*
X51015000Y-110775000D01*
X49948012Y-110775000D01*
X49980925Y-110717993D01*
X50015000Y-110590826D01*
X50015000Y-110459174D01*
X49980925Y-110332007D01*
X49948012Y-110275000D01*
X51015000Y-110275000D01*
X51015000Y-109906947D01*
X50978065Y-109673752D01*
X50905102Y-109449197D01*
X50797914Y-109238828D01*
X50659133Y-109047813D01*
X50492186Y-108880866D01*
X50301171Y-108742085D01*
X50090802Y-108634897D01*
X49866247Y-108561934D01*
X49765000Y-108545897D01*
X49765000Y-110091988D01*
X49707993Y-110059075D01*
X49580826Y-110025000D01*
X49449174Y-110025000D01*
X49322007Y-110059075D01*
X49265000Y-110091988D01*
X49265000Y-108545897D01*
X49163752Y-108561934D01*
X48939197Y-108634897D01*
X48728828Y-108742085D01*
X48537813Y-108880866D01*
X48370866Y-109047813D01*
X48370861Y-109047819D01*
X48345624Y-109082554D01*
X48290293Y-109125218D01*
X48220680Y-109131196D01*
X48158885Y-109098588D01*
X48144997Y-109082560D01*
X48119517Y-109047490D01*
X47952510Y-108880483D01*
X47761433Y-108741657D01*
X47550996Y-108634433D01*
X47326368Y-108561446D01*
X47093097Y-108524500D01*
X47093092Y-108524500D01*
X46856908Y-108524500D01*
X46856903Y-108524500D01*
X46623631Y-108561446D01*
X46399003Y-108634433D01*
X46188566Y-108741657D01*
X46079550Y-108820862D01*
X45997490Y-108880483D01*
X45997488Y-108880485D01*
X45997487Y-108880485D01*
X45830485Y-109047487D01*
X45830485Y-109047488D01*
X45830483Y-109047490D01*
X45793358Y-109098588D01*
X45691657Y-109238566D01*
X45584433Y-109449003D01*
X45511446Y-109673631D01*
X45474500Y-109906902D01*
X44489602Y-109906902D01*
X44493445Y-109882637D01*
X44500500Y-109838096D01*
X44500500Y-109601902D01*
X44463553Y-109368631D01*
X44390566Y-109144003D01*
X44334002Y-109032991D01*
X44283343Y-108933567D01*
X44144517Y-108742490D01*
X43977510Y-108575483D01*
X43942872Y-108550317D01*
X43900207Y-108494989D01*
X43894228Y-108425375D01*
X43926833Y-108363580D01*
X43942873Y-108349682D01*
X43977510Y-108324517D01*
X44144517Y-108157510D01*
X44283343Y-107966433D01*
X44390568Y-107755992D01*
X44463553Y-107531368D01*
X44500500Y-107298097D01*
X44500500Y-107061902D01*
X44463553Y-106828631D01*
X44390566Y-106604003D01*
X44283342Y-106393566D01*
X44144517Y-106202490D01*
X43977510Y-106035483D01*
X43942872Y-106010317D01*
X43900207Y-105954989D01*
X43894228Y-105885375D01*
X43926833Y-105823580D01*
X43942873Y-105809682D01*
X43977510Y-105784517D01*
X44144517Y-105617510D01*
X44283343Y-105426433D01*
X44390568Y-105215992D01*
X44463553Y-104991368D01*
X44500500Y-104758097D01*
X44500500Y-104521902D01*
X44463553Y-104288631D01*
X44390566Y-104064003D01*
X44283342Y-103853566D01*
X44144517Y-103662490D01*
X43977510Y-103495483D01*
X43942872Y-103470317D01*
X43900207Y-103414989D01*
X43894228Y-103345375D01*
X43926833Y-103283580D01*
X43942873Y-103269682D01*
X43977510Y-103244517D01*
X44144517Y-103077510D01*
X44283343Y-102886433D01*
X44390568Y-102675992D01*
X44463553Y-102451368D01*
X44500500Y-102218097D01*
X44500500Y-101981902D01*
X44463553Y-101748631D01*
X44390566Y-101524003D01*
X44283342Y-101313566D01*
X44144517Y-101122490D01*
X43977510Y-100955483D01*
X43942872Y-100930317D01*
X43900207Y-100874989D01*
X43894228Y-100805375D01*
X43926833Y-100743580D01*
X43942873Y-100729682D01*
X43977510Y-100704517D01*
X44144517Y-100537510D01*
X44283343Y-100346433D01*
X44390568Y-100135992D01*
X44463553Y-99911368D01*
X44500500Y-99678097D01*
X44500500Y-99441902D01*
X44463553Y-99208631D01*
X44390566Y-98984003D01*
X44283342Y-98773566D01*
X44144517Y-98582490D01*
X43977510Y-98415483D01*
X43942872Y-98390317D01*
X43900207Y-98334989D01*
X43894228Y-98265375D01*
X43926833Y-98203580D01*
X43942873Y-98189682D01*
X43977510Y-98164517D01*
X44144517Y-97997510D01*
X44283343Y-97806433D01*
X44390568Y-97595992D01*
X44463553Y-97371368D01*
X44500500Y-97138097D01*
X44500500Y-96901902D01*
X44463553Y-96668631D01*
X44390566Y-96444003D01*
X44283342Y-96233566D01*
X44144517Y-96042490D01*
X43977510Y-95875483D01*
X43942872Y-95850317D01*
X43900207Y-95794989D01*
X43894228Y-95725375D01*
X43926833Y-95663580D01*
X43942873Y-95649682D01*
X43977510Y-95624517D01*
X44144517Y-95457510D01*
X44283343Y-95266433D01*
X44390568Y-95055992D01*
X44463553Y-94831368D01*
X44500500Y-94598097D01*
X44500500Y-94361902D01*
X44463553Y-94128631D01*
X44390566Y-93904003D01*
X44283342Y-93693566D01*
X44144517Y-93502490D01*
X43977510Y-93335483D01*
X43942872Y-93310317D01*
X43900207Y-93254989D01*
X43894228Y-93185375D01*
X43926833Y-93123580D01*
X43942873Y-93109682D01*
X43977510Y-93084517D01*
X44144517Y-92917510D01*
X44283343Y-92726433D01*
X44390568Y-92515992D01*
X44463553Y-92291368D01*
X44464335Y-92286433D01*
X44500500Y-92058097D01*
X44500500Y-91821902D01*
X44463553Y-91588631D01*
X44415560Y-91440925D01*
X44390568Y-91364008D01*
X44390566Y-91364005D01*
X44390566Y-91364003D01*
X44283342Y-91153566D01*
X44144517Y-90962490D01*
X43977510Y-90795483D01*
X43942872Y-90770317D01*
X43900207Y-90714989D01*
X43894228Y-90645375D01*
X43926833Y-90583580D01*
X43942873Y-90569682D01*
X43977510Y-90544517D01*
X44140125Y-90381902D01*
X45474500Y-90381902D01*
X45474500Y-91618097D01*
X45511446Y-91851368D01*
X45584433Y-92075996D01*
X45678090Y-92259807D01*
X45691657Y-92286433D01*
X45830483Y-92477510D01*
X45997490Y-92644517D01*
X46188567Y-92783343D01*
X46287991Y-92834002D01*
X46399003Y-92890566D01*
X46399005Y-92890566D01*
X46399008Y-92890568D01*
X46481927Y-92917510D01*
X46623631Y-92963553D01*
X46856903Y-93000500D01*
X46856908Y-93000500D01*
X47093097Y-93000500D01*
X47326368Y-92963553D01*
X47355461Y-92954100D01*
X47550992Y-92890568D01*
X47761433Y-92783343D01*
X47952510Y-92644517D01*
X48119517Y-92477510D01*
X48154073Y-92429947D01*
X48209399Y-92387283D01*
X48279012Y-92381302D01*
X48340808Y-92413907D01*
X48354707Y-92429946D01*
X48370863Y-92452183D01*
X48537813Y-92619133D01*
X48728828Y-92757914D01*
X48939195Y-92865102D01*
X49163744Y-92938063D01*
X49163750Y-92938065D01*
X49265000Y-92954101D01*
X49265000Y-91408012D01*
X49322007Y-91440925D01*
X49449174Y-91475000D01*
X49580826Y-91475000D01*
X49707993Y-91440925D01*
X49765000Y-91408012D01*
X49765000Y-92954100D01*
X49866249Y-92938065D01*
X49866255Y-92938063D01*
X50090804Y-92865102D01*
X50301171Y-92757914D01*
X50492186Y-92619133D01*
X50659133Y-92452186D01*
X50797914Y-92261171D01*
X50905102Y-92050802D01*
X50978065Y-91826247D01*
X51015000Y-91593052D01*
X51015000Y-91225000D01*
X49948012Y-91225000D01*
X49980925Y-91167993D01*
X50015000Y-91040826D01*
X50015000Y-90909174D01*
X49980925Y-90782007D01*
X49948012Y-90725000D01*
X51015000Y-90725000D01*
X51015000Y-90356947D01*
X50978065Y-90123752D01*
X50905102Y-89899197D01*
X50797914Y-89688828D01*
X50659133Y-89497813D01*
X50492186Y-89330866D01*
X50301171Y-89192085D01*
X50090802Y-89084897D01*
X49866247Y-89011934D01*
X49765000Y-88995897D01*
X49765000Y-90541988D01*
X49707993Y-90509075D01*
X49580826Y-90475000D01*
X49449174Y-90475000D01*
X49322007Y-90509075D01*
X49265000Y-90541988D01*
X49265000Y-88995897D01*
X49163752Y-89011934D01*
X48939197Y-89084897D01*
X48728828Y-89192085D01*
X48537813Y-89330866D01*
X48370866Y-89497813D01*
X48370859Y-89497822D01*
X48336544Y-89545052D01*
X48281214Y-89587718D01*
X48211601Y-89593696D01*
X48149806Y-89561090D01*
X48135910Y-89545052D01*
X48119521Y-89522496D01*
X48119517Y-89522490D01*
X47952510Y-89355483D01*
X47761433Y-89216657D01*
X47712368Y-89191657D01*
X47550996Y-89109433D01*
X47326368Y-89036446D01*
X47093097Y-88999500D01*
X47093092Y-88999500D01*
X46856908Y-88999500D01*
X46856903Y-88999500D01*
X46623631Y-89036446D01*
X46399003Y-89109433D01*
X46188566Y-89216657D01*
X46098765Y-89281902D01*
X45997490Y-89355483D01*
X45997488Y-89355485D01*
X45997487Y-89355485D01*
X45830485Y-89522487D01*
X45830485Y-89522488D01*
X45830483Y-89522490D01*
X45790698Y-89577249D01*
X45691657Y-89713566D01*
X45584433Y-89924003D01*
X45511446Y-90148631D01*
X45474500Y-90381902D01*
X44140125Y-90381902D01*
X44144517Y-90377510D01*
X44283343Y-90186433D01*
X44390568Y-89975992D01*
X44463553Y-89751368D01*
X44474626Y-89681456D01*
X44500500Y-89518097D01*
X44500500Y-89281902D01*
X44463553Y-89048631D01*
X44390566Y-88824003D01*
X44283342Y-88613566D01*
X44144517Y-88422490D01*
X43977510Y-88255483D01*
X43942872Y-88230317D01*
X43900207Y-88174989D01*
X43894228Y-88105375D01*
X43926833Y-88043580D01*
X43942873Y-88029682D01*
X43977510Y-88004517D01*
X44144517Y-87837510D01*
X44283343Y-87646433D01*
X44390568Y-87435992D01*
X44463553Y-87211368D01*
X44464061Y-87208160D01*
X44500500Y-86978097D01*
X44500500Y-86741902D01*
X44463553Y-86508631D01*
X44411020Y-86346953D01*
X44390568Y-86284008D01*
X44390566Y-86284005D01*
X44390566Y-86284003D01*
X44297888Y-86102114D01*
X44283343Y-86073567D01*
X44144517Y-85882490D01*
X43977510Y-85715483D01*
X43942872Y-85690317D01*
X43900207Y-85634989D01*
X43894228Y-85565375D01*
X43926833Y-85503580D01*
X43942873Y-85489682D01*
X43977510Y-85464517D01*
X44144517Y-85297510D01*
X44283343Y-85106433D01*
X44390568Y-84895992D01*
X44463553Y-84671368D01*
X44468750Y-84638551D01*
X44498678Y-84575420D01*
X44557990Y-84538488D01*
X44627852Y-84539485D01*
X44678904Y-84570271D01*
X46087048Y-85978415D01*
X46087049Y-85978416D01*
X46150462Y-86041829D01*
X46191585Y-86082952D01*
X46314498Y-86165080D01*
X46314511Y-86165087D01*
X46451082Y-86221656D01*
X46451087Y-86221658D01*
X46451091Y-86221658D01*
X46451092Y-86221659D01*
X46596079Y-86250500D01*
X48775500Y-86250500D01*
X48842539Y-86270185D01*
X48888294Y-86322989D01*
X48899500Y-86374500D01*
X48899500Y-86624357D01*
X48914976Y-86741902D01*
X48933730Y-86884346D01*
X48971707Y-87026079D01*
X49001602Y-87137648D01*
X49001605Y-87137658D01*
X49101953Y-87379920D01*
X49101958Y-87379930D01*
X49233075Y-87607033D01*
X49392718Y-87815081D01*
X49392726Y-87815090D01*
X49578140Y-88000504D01*
X49578148Y-88000511D01*
X49578149Y-88000512D01*
X49583371Y-88004519D01*
X49786196Y-88160154D01*
X50013299Y-88291271D01*
X50013309Y-88291276D01*
X50255571Y-88391624D01*
X50255581Y-88391628D01*
X50508884Y-88459500D01*
X50768880Y-88493730D01*
X50768887Y-88493730D01*
X51031113Y-88493730D01*
X51031120Y-88493730D01*
X51291116Y-88459500D01*
X51544419Y-88391628D01*
X51786697Y-88291273D01*
X52013803Y-88160154D01*
X52221851Y-88000512D01*
X52221855Y-88000507D01*
X52221860Y-88000504D01*
X52407274Y-87815090D01*
X52407277Y-87815085D01*
X52407282Y-87815081D01*
X52566924Y-87607033D01*
X52698043Y-87379927D01*
X52798398Y-87137649D01*
X52866270Y-86884346D01*
X52900500Y-86624350D01*
X52900500Y-86362110D01*
X52866270Y-86102114D01*
X52798398Y-85848811D01*
X52798286Y-85848541D01*
X52698046Y-85606539D01*
X52698041Y-85606529D01*
X52566924Y-85379426D01*
X52407281Y-85171378D01*
X52407274Y-85171370D01*
X52221860Y-84985956D01*
X52221851Y-84985948D01*
X52013803Y-84826305D01*
X51786700Y-84695188D01*
X51786690Y-84695183D01*
X51544428Y-84594835D01*
X51544421Y-84594833D01*
X51544419Y-84594832D01*
X51291116Y-84526960D01*
X51154386Y-84508958D01*
X51057159Y-84496158D01*
X50993263Y-84467891D01*
X50954792Y-84409567D01*
X50953961Y-84339702D01*
X50985662Y-84285540D01*
X52600637Y-82670566D01*
X53326846Y-81944357D01*
X54464919Y-80806284D01*
X54526242Y-80772799D01*
X54595934Y-80777783D01*
G37*
%TD.AperFunction*%
%TA.AperFunction,Conductor*%
G36*
X62500000Y-67455826D02*
G01*
X62534075Y-67582993D01*
X62599901Y-67697007D01*
X62692993Y-67790099D01*
X62807007Y-67855925D01*
X62934174Y-67890000D01*
X63065826Y-67890000D01*
X63192993Y-67855925D01*
X63307007Y-67790099D01*
X63400099Y-67697007D01*
X63465925Y-67582993D01*
X63500000Y-67455826D01*
X63500000Y-67390000D01*
X63876000Y-67390000D01*
X63943039Y-67409685D01*
X63988794Y-67462489D01*
X64000000Y-67514000D01*
X64000000Y-68890000D01*
X64047828Y-68890000D01*
X64047844Y-68889999D01*
X64107372Y-68883598D01*
X64107379Y-68883596D01*
X64242086Y-68833354D01*
X64242089Y-68833352D01*
X64300188Y-68789859D01*
X64365652Y-68765441D01*
X64433925Y-68780292D01*
X64483331Y-68829696D01*
X64498500Y-68889125D01*
X64498500Y-89568662D01*
X64478815Y-89635701D01*
X64426011Y-89681456D01*
X64356853Y-89691400D01*
X64293297Y-89662375D01*
X64274182Y-89641548D01*
X64213317Y-89557776D01*
X64169517Y-89497490D01*
X64061819Y-89389792D01*
X64028334Y-89328469D01*
X64025500Y-89302111D01*
X64025500Y-77926456D01*
X63998885Y-77792661D01*
X63997375Y-77785068D01*
X63987051Y-77733164D01*
X63948474Y-77640032D01*
X63946771Y-77635922D01*
X63946769Y-77635914D01*
X63911635Y-77551093D01*
X63911634Y-77551092D01*
X63911632Y-77551086D01*
X63873907Y-77494626D01*
X63802139Y-77387217D01*
X63659686Y-77244764D01*
X63659655Y-77244735D01*
X61786819Y-75371899D01*
X61753334Y-75310576D01*
X61750500Y-75284218D01*
X61750500Y-69006363D01*
X61770185Y-68939324D01*
X61822989Y-68893569D01*
X61887758Y-68883074D01*
X61952160Y-68889999D01*
X61952172Y-68890000D01*
X62000000Y-68890000D01*
X62000000Y-67514000D01*
X62019685Y-67446961D01*
X62072489Y-67401206D01*
X62124000Y-67390000D01*
X62500000Y-67390000D01*
X62500000Y-67455826D01*
G37*
%TD.AperFunction*%
%TA.AperFunction,Conductor*%
G36*
X48231257Y-57400185D02*
G01*
X48251899Y-57416819D01*
X57463181Y-66628101D01*
X57496666Y-66689424D01*
X57499500Y-66715782D01*
X57499500Y-73114911D01*
X57479815Y-73181950D01*
X57427011Y-73227705D01*
X57357853Y-73237649D01*
X57294297Y-73208624D01*
X57287819Y-73202592D01*
X57154112Y-73068885D01*
X57154110Y-73068883D01*
X56963033Y-72930057D01*
X56884417Y-72890000D01*
X56752596Y-72822833D01*
X56527968Y-72749846D01*
X56294697Y-72712900D01*
X56294692Y-72712900D01*
X56058508Y-72712900D01*
X56058503Y-72712900D01*
X55825231Y-72749846D01*
X55600603Y-72822833D01*
X55390166Y-72930057D01*
X55307225Y-72990318D01*
X55199090Y-73068883D01*
X55199088Y-73068885D01*
X55199087Y-73068885D01*
X55032085Y-73235887D01*
X55032085Y-73235888D01*
X55032083Y-73235890D01*
X54979233Y-73308631D01*
X54893257Y-73426966D01*
X54786033Y-73637403D01*
X54713046Y-73862031D01*
X54676100Y-74095302D01*
X54676100Y-74331497D01*
X54710111Y-74546232D01*
X54701157Y-74615525D01*
X54675319Y-74653311D01*
X51667047Y-77661584D01*
X51667045Y-77661586D01*
X51634935Y-77709646D01*
X51634933Y-77709649D01*
X51584914Y-77784507D01*
X51528343Y-77921082D01*
X51528340Y-77921092D01*
X51499500Y-78066079D01*
X51499500Y-80137770D01*
X51479815Y-80204809D01*
X51463181Y-80225451D01*
X48225451Y-83463181D01*
X48164128Y-83496666D01*
X48137770Y-83499500D01*
X47197857Y-83499500D01*
X47130818Y-83479815D01*
X47110176Y-83463181D01*
X45536819Y-81889823D01*
X45503334Y-81828500D01*
X45500500Y-81802142D01*
X45500500Y-80926079D01*
X45471659Y-80781092D01*
X45471658Y-80781091D01*
X45471658Y-80781087D01*
X45471656Y-80781082D01*
X45415087Y-80644511D01*
X45415085Y-80644507D01*
X45415084Y-80644505D01*
X45369807Y-80576743D01*
X45332952Y-80521584D01*
X44499913Y-79688545D01*
X44466428Y-79627222D01*
X44465121Y-79581466D01*
X44500500Y-79358097D01*
X44500500Y-79121902D01*
X44463553Y-78888631D01*
X44390566Y-78664003D01*
X44334002Y-78552991D01*
X44283343Y-78453567D01*
X44144517Y-78262490D01*
X43977510Y-78095483D01*
X43942872Y-78070317D01*
X43900207Y-78014989D01*
X43894228Y-77945375D01*
X43926833Y-77883580D01*
X43942873Y-77869682D01*
X43977510Y-77844517D01*
X44144517Y-77677510D01*
X44283343Y-77486433D01*
X44390568Y-77275992D01*
X44463553Y-77051368D01*
X44473838Y-76986433D01*
X44500500Y-76818097D01*
X44500500Y-76581902D01*
X44469754Y-76387785D01*
X44463553Y-76348632D01*
X44462310Y-76344809D01*
X44460312Y-76274971D01*
X44492557Y-76218809D01*
X45582952Y-75128416D01*
X45637597Y-75046632D01*
X45665084Y-75005495D01*
X45721658Y-74868913D01*
X45734467Y-74804519D01*
X45750500Y-74723920D01*
X45750500Y-73982230D01*
X45759144Y-73952790D01*
X45765667Y-73922805D01*
X45769422Y-73917787D01*
X45770185Y-73915191D01*
X45786812Y-73894555D01*
X45814261Y-73867106D01*
X45875580Y-73833623D01*
X45945271Y-73838606D01*
X46001206Y-73880477D01*
X46024413Y-73935391D01*
X46036446Y-74011368D01*
X46109433Y-74235996D01*
X46158094Y-74331497D01*
X46216657Y-74446433D01*
X46355483Y-74637510D01*
X46522490Y-74804517D01*
X46557127Y-74829683D01*
X46599792Y-74885013D01*
X46605771Y-74954626D01*
X46573165Y-75016421D01*
X46557130Y-75030315D01*
X46539365Y-75043222D01*
X46522488Y-75055484D01*
X46355485Y-75222487D01*
X46355485Y-75222488D01*
X46355483Y-75222490D01*
X46310635Y-75284218D01*
X46216657Y-75413566D01*
X46109433Y-75624003D01*
X46036446Y-75848631D01*
X45999500Y-76081902D01*
X45999500Y-76318097D01*
X46036446Y-76551368D01*
X46109433Y-76775996D01*
X46216657Y-76986433D01*
X46355483Y-77177510D01*
X46522490Y-77344517D01*
X46557127Y-77369683D01*
X46599792Y-77425013D01*
X46605771Y-77494626D01*
X46573165Y-77556421D01*
X46557130Y-77570315D01*
X46539365Y-77583222D01*
X46522488Y-77595484D01*
X46355485Y-77762487D01*
X46355485Y-77762488D01*
X46355483Y-77762490D01*
X46296958Y-77843043D01*
X46216657Y-77953566D01*
X46109433Y-78164003D01*
X46036446Y-78388631D01*
X45999500Y-78621902D01*
X45999500Y-78858097D01*
X46036446Y-79091368D01*
X46109433Y-79315996D01*
X46211172Y-79515669D01*
X46216657Y-79526433D01*
X46355483Y-79717510D01*
X46522490Y-79884517D01*
X46557127Y-79909683D01*
X46599792Y-79965013D01*
X46605771Y-80034626D01*
X46573165Y-80096421D01*
X46557130Y-80110315D01*
X46539365Y-80123222D01*
X46522488Y-80135484D01*
X46355485Y-80302487D01*
X46355485Y-80302488D01*
X46355483Y-80302490D01*
X46295889Y-80384514D01*
X46216657Y-80493566D01*
X46109433Y-80704003D01*
X46036446Y-80928631D01*
X45999500Y-81161902D01*
X45999500Y-81398097D01*
X46036446Y-81631368D01*
X46109433Y-81855996D01*
X46216657Y-82066433D01*
X46355483Y-82257510D01*
X46522490Y-82424517D01*
X46713567Y-82563343D01*
X46812991Y-82614002D01*
X46924003Y-82670566D01*
X46924005Y-82670566D01*
X46924008Y-82670568D01*
X47044412Y-82709689D01*
X47148631Y-82743553D01*
X47381903Y-82780500D01*
X47381908Y-82780500D01*
X47618097Y-82780500D01*
X47851368Y-82743553D01*
X48075992Y-82670568D01*
X48286433Y-82563343D01*
X48477510Y-82424517D01*
X48644517Y-82257510D01*
X48783343Y-82066433D01*
X48890568Y-81855992D01*
X48963553Y-81631368D01*
X48971150Y-81583400D01*
X49000500Y-81398097D01*
X49000500Y-81161902D01*
X48963553Y-80928631D01*
X48915614Y-80781092D01*
X48890568Y-80704008D01*
X48890566Y-80704005D01*
X48890566Y-80704003D01*
X48814639Y-80554989D01*
X48783343Y-80493567D01*
X48644517Y-80302490D01*
X48477510Y-80135483D01*
X48442872Y-80110317D01*
X48400207Y-80054989D01*
X48394228Y-79985375D01*
X48426833Y-79923580D01*
X48442873Y-79909682D01*
X48477510Y-79884517D01*
X48644517Y-79717510D01*
X48783343Y-79526433D01*
X48890568Y-79315992D01*
X48963553Y-79091368D01*
X48966758Y-79071130D01*
X49000500Y-78858097D01*
X49000500Y-78621902D01*
X48963553Y-78388631D01*
X48894979Y-78177585D01*
X48890568Y-78164008D01*
X48890566Y-78164005D01*
X48890566Y-78164003D01*
X48814639Y-78014989D01*
X48783343Y-77953567D01*
X48644517Y-77762490D01*
X48477510Y-77595483D01*
X48442872Y-77570317D01*
X48400207Y-77514989D01*
X48394228Y-77445375D01*
X48426833Y-77383580D01*
X48442873Y-77369682D01*
X48477510Y-77344517D01*
X48644517Y-77177510D01*
X48783343Y-76986433D01*
X48890568Y-76775992D01*
X48963553Y-76551368D01*
X48967390Y-76527141D01*
X49000500Y-76318097D01*
X49000500Y-76081902D01*
X48963553Y-75848631D01*
X48890566Y-75624003D01*
X48814639Y-75474989D01*
X48783343Y-75413567D01*
X48644517Y-75222490D01*
X48477510Y-75055483D01*
X48442872Y-75030317D01*
X48400207Y-74974989D01*
X48394228Y-74905375D01*
X48426833Y-74843580D01*
X48442873Y-74829682D01*
X48477510Y-74804517D01*
X48644517Y-74637510D01*
X48783343Y-74446433D01*
X48890568Y-74235992D01*
X48963553Y-74011368D01*
X48972831Y-73952790D01*
X49000500Y-73778097D01*
X49000500Y-73541902D01*
X48963553Y-73308631D01*
X48890566Y-73084003D01*
X48812126Y-72930057D01*
X48783343Y-72873567D01*
X48644517Y-72682490D01*
X48477510Y-72515483D01*
X48442872Y-72490317D01*
X48400207Y-72434989D01*
X48394228Y-72365375D01*
X48426833Y-72303580D01*
X48442873Y-72289682D01*
X48477510Y-72264517D01*
X48644517Y-72097510D01*
X48783343Y-71906433D01*
X48890568Y-71695992D01*
X48963553Y-71471368D01*
X48972171Y-71416954D01*
X49000500Y-71238097D01*
X49000500Y-71001902D01*
X48987104Y-70917324D01*
X48996059Y-70848031D01*
X49041055Y-70794579D01*
X49107806Y-70773939D01*
X49175120Y-70792664D01*
X49216965Y-70835927D01*
X49233077Y-70863835D01*
X49392718Y-71071881D01*
X49392726Y-71071890D01*
X49578140Y-71257304D01*
X49578148Y-71257311D01*
X49578149Y-71257312D01*
X49626554Y-71294454D01*
X49786196Y-71416954D01*
X50013299Y-71548071D01*
X50013309Y-71548076D01*
X50210935Y-71629935D01*
X50255581Y-71648428D01*
X50508884Y-71716300D01*
X50768880Y-71750530D01*
X50768887Y-71750530D01*
X51031113Y-71750530D01*
X51031120Y-71750530D01*
X51291116Y-71716300D01*
X51544419Y-71648428D01*
X51786697Y-71548073D01*
X52013803Y-71416954D01*
X52221851Y-71257312D01*
X52221855Y-71257307D01*
X52221860Y-71257304D01*
X52407274Y-71071890D01*
X52407277Y-71071885D01*
X52407282Y-71071881D01*
X52566924Y-70863833D01*
X52698043Y-70636727D01*
X52708664Y-70611087D01*
X52731287Y-70556468D01*
X52798398Y-70394449D01*
X52866270Y-70141146D01*
X52900500Y-69881150D01*
X52900500Y-69618910D01*
X52866270Y-69358914D01*
X52798398Y-69105611D01*
X52757288Y-69006363D01*
X52698046Y-68863339D01*
X52698041Y-68863329D01*
X52566924Y-68636226D01*
X52407281Y-68428178D01*
X52407274Y-68428170D01*
X52221860Y-68242756D01*
X52221851Y-68242748D01*
X52013803Y-68083105D01*
X51786700Y-67951988D01*
X51786690Y-67951983D01*
X51544428Y-67851635D01*
X51544421Y-67851633D01*
X51544419Y-67851632D01*
X51291116Y-67783760D01*
X51233339Y-67776153D01*
X51031127Y-67749530D01*
X51031120Y-67749530D01*
X50768880Y-67749530D01*
X50768872Y-67749530D01*
X50537772Y-67779956D01*
X50508884Y-67783760D01*
X50410955Y-67810000D01*
X50255581Y-67851632D01*
X50255571Y-67851635D01*
X50013309Y-67951983D01*
X50013299Y-67951988D01*
X49786196Y-68083105D01*
X49578148Y-68242748D01*
X49392718Y-68428178D01*
X49233076Y-68636225D01*
X49231884Y-68638291D01*
X49231366Y-68638783D01*
X49230819Y-68639604D01*
X49230635Y-68639481D01*
X49181314Y-68686504D01*
X49112706Y-68699723D01*
X49047843Y-68673751D01*
X49007318Y-68616835D01*
X49000500Y-68576285D01*
X49000500Y-68461902D01*
X48963553Y-68228631D01*
X48922566Y-68102487D01*
X48890568Y-68004008D01*
X48890566Y-68004005D01*
X48890566Y-68004003D01*
X48812930Y-67851635D01*
X48783343Y-67793567D01*
X48644517Y-67602490D01*
X48477510Y-67435483D01*
X48286433Y-67296657D01*
X48075996Y-67189433D01*
X47906302Y-67134296D01*
X47856940Y-67104046D01*
X47500001Y-66747106D01*
X47500000Y-66747106D01*
X47143059Y-67104046D01*
X47093697Y-67134296D01*
X46924003Y-67189433D01*
X46713566Y-67296657D01*
X46604550Y-67375862D01*
X46522490Y-67435483D01*
X46522488Y-67435485D01*
X46522487Y-67435485D01*
X46355485Y-67602487D01*
X46355485Y-67602488D01*
X46355483Y-67602490D01*
X46305668Y-67671054D01*
X46216657Y-67793566D01*
X46109433Y-68004003D01*
X46036446Y-68228631D01*
X45999500Y-68461902D01*
X45999500Y-68698099D01*
X45999882Y-68702956D01*
X45998552Y-68703060D01*
X45990364Y-68766331D01*
X45964536Y-68804095D01*
X44417052Y-70351578D01*
X44417049Y-70351581D01*
X44385805Y-70398341D01*
X44385806Y-70398342D01*
X44334914Y-70474506D01*
X44300965Y-70556468D01*
X44281691Y-70580384D01*
X44264168Y-70605600D01*
X44259972Y-70607335D01*
X44257123Y-70610872D01*
X44227979Y-70620571D01*
X44199606Y-70632310D01*
X44195137Y-70631501D01*
X44190829Y-70632936D01*
X44161074Y-70625341D01*
X44130851Y-70619875D01*
X44126028Y-70616395D01*
X44123130Y-70615656D01*
X44101869Y-70599733D01*
X44100269Y-70598242D01*
X43977510Y-70475483D01*
X43936753Y-70445871D01*
X43931223Y-70440718D01*
X43917111Y-70416910D01*
X43900207Y-70394989D01*
X43899544Y-70387273D01*
X43895597Y-70380614D01*
X43896596Y-70352955D01*
X43894228Y-70325375D01*
X43897841Y-70318526D01*
X43898121Y-70310790D01*
X43913914Y-70288064D01*
X43926833Y-70263580D01*
X43937130Y-70254657D01*
X43937994Y-70253415D01*
X43939086Y-70252963D01*
X43942873Y-70249682D01*
X43977510Y-70224517D01*
X44144517Y-70057510D01*
X44283343Y-69866433D01*
X44390568Y-69655992D01*
X44463553Y-69431368D01*
X44473838Y-69366433D01*
X44500500Y-69198097D01*
X44500500Y-68961902D01*
X44463553Y-68728631D01*
X44390566Y-68504003D01*
X44283342Y-68293566D01*
X44144517Y-68102490D01*
X43977510Y-67935483D01*
X43942872Y-67910317D01*
X43900207Y-67854989D01*
X43894228Y-67785375D01*
X43926833Y-67723580D01*
X43942873Y-67709682D01*
X43977510Y-67684517D01*
X44144517Y-67517510D01*
X44283343Y-67326433D01*
X44390568Y-67115992D01*
X44463553Y-66891368D01*
X44495538Y-66689424D01*
X44500500Y-66658097D01*
X44500500Y-66421902D01*
X44463553Y-66188631D01*
X44390566Y-65964003D01*
X44293819Y-65774128D01*
X44283343Y-65753567D01*
X44144517Y-65562490D01*
X43977510Y-65395483D01*
X43942872Y-65370317D01*
X43900207Y-65314989D01*
X43894228Y-65245375D01*
X43926833Y-65183580D01*
X43942873Y-65169682D01*
X43977510Y-65144517D01*
X44144517Y-64977510D01*
X44283343Y-64786433D01*
X44390568Y-64575992D01*
X44463553Y-64351368D01*
X44475806Y-64274008D01*
X44500500Y-64118097D01*
X44500500Y-63881902D01*
X44463553Y-63648631D01*
X44426636Y-63535013D01*
X44390568Y-63424008D01*
X44390566Y-63424005D01*
X44390566Y-63424003D01*
X44321019Y-63287510D01*
X44283343Y-63213567D01*
X44144517Y-63022490D01*
X43977510Y-62855483D01*
X43942872Y-62830317D01*
X43930039Y-62813675D01*
X43913710Y-62800443D01*
X43909132Y-62786562D01*
X43900207Y-62774989D01*
X43898408Y-62754050D01*
X43891825Y-62734089D01*
X43895478Y-62719935D01*
X43894228Y-62705375D01*
X43904034Y-62686789D01*
X43909288Y-62666437D01*
X43922268Y-62652231D01*
X43926833Y-62643580D01*
X43931509Y-62639016D01*
X43936910Y-62634014D01*
X43977510Y-62604517D01*
X44086897Y-62495129D01*
X44088640Y-62493516D01*
X44117879Y-62478979D01*
X44146531Y-62463334D01*
X44150124Y-62462947D01*
X44151204Y-62462411D01*
X44153135Y-62462623D01*
X44172889Y-62460500D01*
X44244218Y-62460500D01*
X44311257Y-62480185D01*
X44331899Y-62496819D01*
X45963181Y-64128102D01*
X45996666Y-64189425D01*
X45999500Y-64215783D01*
X45999500Y-64547869D01*
X45999501Y-64547876D01*
X46005908Y-64607483D01*
X46056202Y-64742328D01*
X46056206Y-64742335D01*
X46142452Y-64857544D01*
X46142455Y-64857547D01*
X46257664Y-64943793D01*
X46265454Y-64948047D01*
X46263725Y-64951211D01*
X46305915Y-64982734D01*
X46330393Y-65048175D01*
X46315604Y-65116462D01*
X46307036Y-65130021D01*
X46217084Y-65253829D01*
X46109897Y-65464197D01*
X46036934Y-65688752D01*
X46000000Y-65921947D01*
X46000000Y-66158052D01*
X46036934Y-66391247D01*
X46109898Y-66615805D01*
X46146078Y-66686813D01*
X46146078Y-66686814D01*
X47058765Y-65774127D01*
X47084157Y-65760261D01*
X47034075Y-65847007D01*
X47000000Y-65974174D01*
X47000000Y-66105826D01*
X47034075Y-66232993D01*
X47099901Y-66347007D01*
X47192993Y-66440099D01*
X47307007Y-66505925D01*
X47434174Y-66540000D01*
X47565826Y-66540000D01*
X47692993Y-66505925D01*
X47807007Y-66440099D01*
X47900099Y-66347007D01*
X47965925Y-66232993D01*
X48000000Y-66105826D01*
X48000000Y-65974174D01*
X47965925Y-65847007D01*
X47913592Y-65756364D01*
X47941233Y-65774128D01*
X48853919Y-66686814D01*
X48890104Y-66615797D01*
X48963065Y-66391247D01*
X49000000Y-66158052D01*
X49000000Y-65921947D01*
X48963065Y-65688752D01*
X48890102Y-65464197D01*
X48782914Y-65253828D01*
X48692964Y-65130023D01*
X48669484Y-65064216D01*
X48685309Y-64996162D01*
X48734640Y-64948220D01*
X48734546Y-64948047D01*
X48735169Y-64947706D01*
X48735415Y-64947468D01*
X48736480Y-64946990D01*
X48742326Y-64943797D01*
X48742331Y-64943796D01*
X48857546Y-64857546D01*
X48943796Y-64742331D01*
X48994091Y-64607483D01*
X49000500Y-64547873D01*
X49000499Y-62452128D01*
X48994091Y-62392517D01*
X48943796Y-62257669D01*
X48943795Y-62257668D01*
X48943793Y-62257664D01*
X48857547Y-62142455D01*
X48857544Y-62142452D01*
X48742335Y-62056206D01*
X48742328Y-62056202D01*
X48607482Y-62005908D01*
X48607483Y-62005908D01*
X48547883Y-61999501D01*
X48547881Y-61999500D01*
X48547873Y-61999500D01*
X48547865Y-61999500D01*
X46715783Y-61999500D01*
X46648744Y-61979815D01*
X46628102Y-61963181D01*
X45494209Y-60829289D01*
X45494206Y-60829285D01*
X45494206Y-60829286D01*
X45487139Y-60822219D01*
X45487139Y-60822218D01*
X45347782Y-60682861D01*
X45347781Y-60682860D01*
X45347780Y-60682859D01*
X45183920Y-60573371D01*
X45183911Y-60573366D01*
X45062862Y-60523226D01*
X45062860Y-60523225D01*
X45055165Y-60520038D01*
X45001836Y-60497949D01*
X44865912Y-60470912D01*
X44862137Y-60470161D01*
X44862133Y-60470160D01*
X44808543Y-60459500D01*
X44808541Y-60459500D01*
X44172889Y-60459500D01*
X44146489Y-60451748D01*
X44119327Y-60447335D01*
X44110727Y-60441247D01*
X44105850Y-60439815D01*
X44089989Y-60427715D01*
X44087543Y-60425516D01*
X43977510Y-60315483D01*
X43913061Y-60268658D01*
X43908268Y-60264349D01*
X43893169Y-60239884D01*
X43875617Y-60217122D01*
X43874517Y-60209661D01*
X43871573Y-60204891D01*
X43871820Y-60191367D01*
X43867550Y-60162404D01*
X43869104Y-60142657D01*
X43129408Y-59402962D01*
X43192993Y-59385925D01*
X43307007Y-59320099D01*
X43400099Y-59227007D01*
X43465925Y-59112993D01*
X43482962Y-59049408D01*
X44222658Y-59789105D01*
X44222658Y-59789104D01*
X44282914Y-59706169D01*
X44282918Y-59706163D01*
X44390102Y-59495802D01*
X44463065Y-59271247D01*
X44500000Y-59038052D01*
X44500000Y-58801947D01*
X44463065Y-58568752D01*
X44390102Y-58344197D01*
X44282914Y-58133828D01*
X44222658Y-58050894D01*
X44222658Y-58050893D01*
X43482962Y-58790590D01*
X43465925Y-58727007D01*
X43400099Y-58612993D01*
X43307007Y-58519901D01*
X43192993Y-58454075D01*
X43129409Y-58437037D01*
X43869105Y-57697340D01*
X43867551Y-57677594D01*
X43868345Y-57673813D01*
X43867190Y-57670129D01*
X43875468Y-57639902D01*
X43881915Y-57609216D01*
X43884922Y-57605385D01*
X43885647Y-57602741D01*
X43894462Y-57593235D01*
X43908269Y-57575650D01*
X43913060Y-57571342D01*
X43977510Y-57524517D01*
X44087543Y-57414483D01*
X44089989Y-57412285D01*
X44118649Y-57398558D01*
X44146531Y-57383334D01*
X44151568Y-57382792D01*
X44153004Y-57382105D01*
X44155294Y-57382391D01*
X44172889Y-57380500D01*
X48164218Y-57380500D01*
X48231257Y-57400185D01*
G37*
%TD.AperFunction*%
%TD*%
%TA.AperFunction,NonConductor*%
G36*
X65442539Y-25520185D02*
G01*
X65488294Y-25572989D01*
X65499500Y-25624500D01*
X65499500Y-55828770D01*
X65479815Y-55895809D01*
X65427011Y-55941564D01*
X65357853Y-55951508D01*
X65294297Y-55922483D01*
X65287819Y-55916451D01*
X64501280Y-55129913D01*
X64467795Y-55068590D01*
X64466488Y-55022834D01*
X64471779Y-54989433D01*
X64482293Y-54923046D01*
X64500500Y-54808097D01*
X64500500Y-54571902D01*
X64463553Y-54338631D01*
X64390566Y-54114003D01*
X64283342Y-53903566D01*
X64144517Y-53712490D01*
X63977510Y-53545483D01*
X63942872Y-53520317D01*
X63900207Y-53464989D01*
X63894228Y-53395375D01*
X63926833Y-53333580D01*
X63942873Y-53319682D01*
X63977510Y-53294517D01*
X64144517Y-53127510D01*
X64283343Y-52936433D01*
X64390568Y-52725992D01*
X64463553Y-52501368D01*
X64466967Y-52479815D01*
X64500500Y-52268097D01*
X64500500Y-52031902D01*
X64463553Y-51798631D01*
X64390566Y-51574003D01*
X64334002Y-51462991D01*
X64283343Y-51363567D01*
X64144517Y-51172490D01*
X63977510Y-51005483D01*
X63942872Y-50980317D01*
X63900207Y-50924989D01*
X63894228Y-50855375D01*
X63926833Y-50793580D01*
X63942873Y-50779682D01*
X63977510Y-50754517D01*
X64144517Y-50587510D01*
X64283343Y-50396433D01*
X64390568Y-50185992D01*
X64463553Y-49961368D01*
X64485549Y-49822490D01*
X64500500Y-49728097D01*
X64500500Y-49491902D01*
X64463553Y-49258631D01*
X64390566Y-49034003D01*
X64319488Y-48894505D01*
X64283343Y-48823567D01*
X64144517Y-48632490D01*
X63977510Y-48465483D01*
X63786433Y-48326657D01*
X63575996Y-48219433D01*
X63351368Y-48146446D01*
X63118097Y-48109500D01*
X63118092Y-48109500D01*
X62881908Y-48109500D01*
X62881903Y-48109500D01*
X62648631Y-48146446D01*
X62424003Y-48219433D01*
X62213566Y-48326657D01*
X62104550Y-48405862D01*
X62022490Y-48465483D01*
X62022488Y-48465485D01*
X62022487Y-48465485D01*
X61855485Y-48632487D01*
X61855485Y-48632488D01*
X61855483Y-48632490D01*
X61795862Y-48714550D01*
X61716657Y-48823566D01*
X61609433Y-49034003D01*
X61536446Y-49258631D01*
X61499500Y-49491902D01*
X61499500Y-49728097D01*
X61536446Y-49961368D01*
X61609433Y-50185996D01*
X61716657Y-50396433D01*
X61855483Y-50587510D01*
X62022490Y-50754517D01*
X62057127Y-50779683D01*
X62099792Y-50835013D01*
X62105771Y-50904626D01*
X62073165Y-50966421D01*
X62057130Y-50980315D01*
X62039365Y-50993222D01*
X62022488Y-51005484D01*
X61855485Y-51172487D01*
X61855485Y-51172488D01*
X61855483Y-51172490D01*
X61795862Y-51254550D01*
X61716657Y-51363566D01*
X61609433Y-51574003D01*
X61536446Y-51798631D01*
X61499500Y-52031902D01*
X61499500Y-52268097D01*
X61536446Y-52501368D01*
X61609433Y-52725996D01*
X61716657Y-52936433D01*
X61855483Y-53127510D01*
X62022490Y-53294517D01*
X62057127Y-53319683D01*
X62099792Y-53375013D01*
X62105771Y-53444626D01*
X62073165Y-53506421D01*
X62057130Y-53520315D01*
X62039365Y-53533222D01*
X62022488Y-53545484D01*
X61855485Y-53712487D01*
X61855485Y-53712488D01*
X61855483Y-53712490D01*
X61795862Y-53794550D01*
X61716657Y-53903566D01*
X61609433Y-54114003D01*
X61536447Y-54338630D01*
X61524413Y-54414609D01*
X61494483Y-54477743D01*
X61435172Y-54514674D01*
X61365309Y-54513676D01*
X61314259Y-54482891D01*
X58786819Y-51955451D01*
X58753334Y-51894128D01*
X58750500Y-51867770D01*
X58750500Y-49176079D01*
X58721659Y-49031092D01*
X58721658Y-49031091D01*
X58721658Y-49031087D01*
X58665084Y-48894505D01*
X58617685Y-48823567D01*
X58600318Y-48797575D01*
X58582954Y-48771586D01*
X58582952Y-48771584D01*
X55978421Y-46167052D01*
X55978414Y-46167046D01*
X55904729Y-46117812D01*
X55904729Y-46117813D01*
X55855491Y-46084913D01*
X55718917Y-46028343D01*
X55718907Y-46028340D01*
X55573920Y-45999500D01*
X55573918Y-45999500D01*
X30926082Y-45999500D01*
X30926076Y-45999500D01*
X30897242Y-46005234D01*
X30897243Y-46005235D01*
X30781093Y-46028339D01*
X30781083Y-46028342D01*
X30701081Y-46061479D01*
X30701082Y-46061480D01*
X30644505Y-46084915D01*
X30562372Y-46139795D01*
X30521585Y-46167047D01*
X30521581Y-46167050D01*
X24712181Y-51976451D01*
X24650858Y-52009936D01*
X24581166Y-52004952D01*
X24525233Y-51963080D01*
X24500816Y-51897616D01*
X24500500Y-51888770D01*
X24500500Y-34877973D01*
X33449500Y-34877973D01*
X33449500Y-35122026D01*
X33487678Y-35363072D01*
X33563097Y-35595187D01*
X33673896Y-35812642D01*
X33817339Y-36010076D01*
X33817343Y-36010081D01*
X33989918Y-36182656D01*
X33989923Y-36182660D01*
X34162136Y-36307779D01*
X34187361Y-36326106D01*
X34404815Y-36436904D01*
X34636924Y-36512321D01*
X34877973Y-36550500D01*
X34877974Y-36550500D01*
X35122026Y-36550500D01*
X35122027Y-36550500D01*
X35363076Y-36512321D01*
X35595185Y-36436904D01*
X35812639Y-36326106D01*
X36010083Y-36182655D01*
X36182655Y-36010083D01*
X36326106Y-35812639D01*
X36436904Y-35595185D01*
X36512321Y-35363076D01*
X36550500Y-35122027D01*
X36550500Y-34877973D01*
X53449500Y-34877973D01*
X53449500Y-35122026D01*
X53487678Y-35363072D01*
X53563097Y-35595187D01*
X53673896Y-35812642D01*
X53817339Y-36010076D01*
X53817343Y-36010081D01*
X53989918Y-36182656D01*
X53989923Y-36182660D01*
X54162136Y-36307779D01*
X54187361Y-36326106D01*
X54404815Y-36436904D01*
X54636924Y-36512321D01*
X54877973Y-36550500D01*
X54877974Y-36550500D01*
X55122026Y-36550500D01*
X55122027Y-36550500D01*
X55363076Y-36512321D01*
X55595185Y-36436904D01*
X55812639Y-36326106D01*
X56010083Y-36182655D01*
X56182655Y-36010083D01*
X56326106Y-35812639D01*
X56436904Y-35595185D01*
X56512321Y-35363076D01*
X56550500Y-35122027D01*
X56550500Y-34877973D01*
X56512321Y-34636924D01*
X56436904Y-34404815D01*
X56326106Y-34187361D01*
X56307779Y-34162136D01*
X56182660Y-33989923D01*
X56182656Y-33989918D01*
X56010081Y-33817343D01*
X56010076Y-33817339D01*
X55812642Y-33673896D01*
X55812641Y-33673895D01*
X55812639Y-33673894D01*
X55595185Y-33563096D01*
X55363076Y-33487679D01*
X55363074Y-33487678D01*
X55363072Y-33487678D01*
X55194769Y-33461021D01*
X55122027Y-33449500D01*
X54877973Y-33449500D01*
X54822093Y-33458350D01*
X54636927Y-33487678D01*
X54404812Y-33563097D01*
X54187357Y-33673896D01*
X53989923Y-33817339D01*
X53989918Y-33817343D01*
X53817343Y-33989918D01*
X53817339Y-33989923D01*
X53673896Y-34187357D01*
X53563097Y-34404812D01*
X53487678Y-34636927D01*
X53449500Y-34877973D01*
X36550500Y-34877973D01*
X36512321Y-34636924D01*
X36436904Y-34404815D01*
X36326106Y-34187361D01*
X36307779Y-34162136D01*
X36182660Y-33989923D01*
X36182656Y-33989918D01*
X36010081Y-33817343D01*
X36010076Y-33817339D01*
X35812642Y-33673896D01*
X35812641Y-33673895D01*
X35812639Y-33673894D01*
X35595185Y-33563096D01*
X35363076Y-33487679D01*
X35363074Y-33487678D01*
X35363072Y-33487678D01*
X35194769Y-33461021D01*
X35122027Y-33449500D01*
X34877973Y-33449500D01*
X34822093Y-33458350D01*
X34636927Y-33487678D01*
X34404812Y-33563097D01*
X34187357Y-33673896D01*
X33989923Y-33817339D01*
X33989918Y-33817343D01*
X33817343Y-33989918D01*
X33817339Y-33989923D01*
X33673896Y-34187357D01*
X33563097Y-34404812D01*
X33487678Y-34636927D01*
X33449500Y-34877973D01*
X24500500Y-34877973D01*
X24500500Y-30631902D01*
X33499500Y-30631902D01*
X33499500Y-30868097D01*
X33536446Y-31101368D01*
X33609433Y-31325996D01*
X33716657Y-31536433D01*
X33855483Y-31727510D01*
X34022490Y-31894517D01*
X34213567Y-32033343D01*
X34312991Y-32084002D01*
X34424003Y-32140566D01*
X34424005Y-32140566D01*
X34424008Y-32140568D01*
X34544412Y-32179689D01*
X34648631Y-32213553D01*
X34881903Y-32250500D01*
X34881908Y-32250500D01*
X35118097Y-32250500D01*
X35351368Y-32213553D01*
X35575992Y-32140568D01*
X35786433Y-32033343D01*
X35977510Y-31894517D01*
X36144517Y-31727510D01*
X36283343Y-31536433D01*
X36390568Y-31325992D01*
X36463553Y-31101368D01*
X36500500Y-30868097D01*
X36500500Y-30631902D01*
X53510200Y-30631902D01*
X53510200Y-30868097D01*
X53547146Y-31101368D01*
X53620133Y-31325996D01*
X53727357Y-31536433D01*
X53866183Y-31727510D01*
X54033190Y-31894517D01*
X54224267Y-32033343D01*
X54323691Y-32084002D01*
X54434703Y-32140566D01*
X54434705Y-32140566D01*
X54434708Y-32140568D01*
X54555112Y-32179689D01*
X54659331Y-32213553D01*
X54892603Y-32250500D01*
X54892608Y-32250500D01*
X55128797Y-32250500D01*
X55362068Y-32213553D01*
X55586692Y-32140568D01*
X55797133Y-32033343D01*
X55988210Y-31894517D01*
X56155217Y-31727510D01*
X56294043Y-31536433D01*
X56401268Y-31325992D01*
X56474253Y-31101368D01*
X56511200Y-30868097D01*
X56511200Y-30631902D01*
X56474253Y-30398631D01*
X56401266Y-30174003D01*
X56294042Y-29963566D01*
X56155217Y-29772490D01*
X55988210Y-29605483D01*
X55797133Y-29466657D01*
X55586696Y-29359433D01*
X55362068Y-29286446D01*
X55128797Y-29249500D01*
X55128792Y-29249500D01*
X54892608Y-29249500D01*
X54892603Y-29249500D01*
X54659331Y-29286446D01*
X54434703Y-29359433D01*
X54224266Y-29466657D01*
X54115250Y-29545862D01*
X54033190Y-29605483D01*
X54033188Y-29605485D01*
X54033187Y-29605485D01*
X53866185Y-29772487D01*
X53866185Y-29772488D01*
X53866183Y-29772490D01*
X53806562Y-29854550D01*
X53727357Y-29963566D01*
X53620133Y-30174003D01*
X53547146Y-30398631D01*
X53510200Y-30631902D01*
X36500500Y-30631902D01*
X36463553Y-30398631D01*
X36390566Y-30174003D01*
X36283342Y-29963566D01*
X36144517Y-29772490D01*
X35977510Y-29605483D01*
X35786433Y-29466657D01*
X35575996Y-29359433D01*
X35351368Y-29286446D01*
X35118097Y-29249500D01*
X35118092Y-29249500D01*
X34881908Y-29249500D01*
X34881903Y-29249500D01*
X34648631Y-29286446D01*
X34424003Y-29359433D01*
X34213566Y-29466657D01*
X34104550Y-29545862D01*
X34022490Y-29605483D01*
X34022488Y-29605485D01*
X34022487Y-29605485D01*
X33855485Y-29772487D01*
X33855485Y-29772488D01*
X33855483Y-29772490D01*
X33795862Y-29854550D01*
X33716657Y-29963566D01*
X33609433Y-30174003D01*
X33536446Y-30398631D01*
X33499500Y-30631902D01*
X24500500Y-30631902D01*
X24500500Y-25624500D01*
X24520185Y-25557461D01*
X24572989Y-25511706D01*
X24624500Y-25500500D01*
X65375500Y-25500500D01*
X65442539Y-25520185D01*
G37*
%TD.AperFunction*%
%TA.AperFunction,NonConductor*%
G36*
X31335809Y-54020185D02*
G01*
X31381564Y-54072989D01*
X31391508Y-54142147D01*
X31362483Y-54205703D01*
X31356451Y-54212181D01*
X29438904Y-56129727D01*
X29377581Y-56163212D01*
X29307889Y-56158228D01*
X29251956Y-56116356D01*
X29228750Y-56061444D01*
X29228052Y-56057043D01*
X29223553Y-56028632D01*
X29150568Y-55804008D01*
X29150566Y-55804005D01*
X29150566Y-55804003D01*
X29094002Y-55692991D01*
X29043343Y-55593567D01*
X28904517Y-55402490D01*
X28737510Y-55235483D01*
X28546433Y-55096657D01*
X28513198Y-55079723D01*
X28335996Y-54989433D01*
X28111368Y-54916446D01*
X27878097Y-54879500D01*
X27878092Y-54879500D01*
X27731229Y-54879500D01*
X27664190Y-54859815D01*
X27618435Y-54807011D01*
X27608491Y-54737853D01*
X27637516Y-54674297D01*
X27643548Y-54667819D01*
X28274548Y-54036819D01*
X28335871Y-54003334D01*
X28362229Y-54000500D01*
X31268770Y-54000500D01*
X31335809Y-54020185D01*
G37*
%TD.AperFunction*%
%TA.AperFunction,NonConductor*%
G36*
X55204809Y-47520185D02*
G01*
X55225451Y-47536819D01*
X57213181Y-49524549D01*
X57246666Y-49585872D01*
X57249500Y-49612230D01*
X57249500Y-52303918D01*
X57249500Y-52303920D01*
X57249499Y-52303920D01*
X57278340Y-52448907D01*
X57278343Y-52448917D01*
X57334913Y-52585490D01*
X57334914Y-52585491D01*
X57334916Y-52585495D01*
X57360586Y-52623912D01*
X57360587Y-52623915D01*
X57417043Y-52708410D01*
X57417047Y-52708415D01*
X61498719Y-56790087D01*
X61501340Y-56794888D01*
X61505901Y-56797912D01*
X61517905Y-56825224D01*
X61532204Y-56851410D01*
X61532397Y-56858196D01*
X61534015Y-56861876D01*
X61533511Y-56897166D01*
X61524413Y-56954608D01*
X61494484Y-57017743D01*
X61435172Y-57054674D01*
X61365310Y-57053676D01*
X61314259Y-57022891D01*
X56958421Y-52667052D01*
X56958414Y-52667046D01*
X56884729Y-52617812D01*
X56884729Y-52617813D01*
X56835491Y-52584913D01*
X56698917Y-52528343D01*
X56698907Y-52528340D01*
X56553920Y-52499500D01*
X56553918Y-52499500D01*
X35518804Y-52499500D01*
X35451765Y-52479815D01*
X35406010Y-52427011D01*
X35396066Y-52357853D01*
X35425091Y-52294297D01*
X35480485Y-52257569D01*
X35502241Y-52250500D01*
X35686692Y-52190568D01*
X35897133Y-52083343D01*
X36088210Y-51944517D01*
X36255217Y-51777510D01*
X36394043Y-51586433D01*
X36501268Y-51375992D01*
X36574253Y-51151368D01*
X36582172Y-51101368D01*
X36611200Y-50918097D01*
X36611200Y-50681903D01*
X36605582Y-50646435D01*
X36605582Y-50646434D01*
X36603280Y-50631902D01*
X53510200Y-50631902D01*
X53510200Y-50868097D01*
X53547146Y-51101368D01*
X53620133Y-51325996D01*
X53645610Y-51375996D01*
X53727357Y-51536433D01*
X53866183Y-51727510D01*
X54033190Y-51894517D01*
X54224267Y-52033343D01*
X54322396Y-52083342D01*
X54434703Y-52140566D01*
X54434705Y-52140566D01*
X54434708Y-52140568D01*
X54555112Y-52179689D01*
X54659331Y-52213553D01*
X54892603Y-52250500D01*
X54892608Y-52250500D01*
X55128797Y-52250500D01*
X55362068Y-52213553D01*
X55432814Y-52190566D01*
X55586692Y-52140568D01*
X55797133Y-52033343D01*
X55988210Y-51894517D01*
X56155217Y-51727510D01*
X56294043Y-51536433D01*
X56401268Y-51325992D01*
X56474253Y-51101368D01*
X56511200Y-50868097D01*
X56511200Y-50631902D01*
X56474253Y-50398631D01*
X56401266Y-50174003D01*
X56294042Y-49963566D01*
X56292445Y-49961368D01*
X56155217Y-49772490D01*
X55988210Y-49605483D01*
X55797133Y-49466657D01*
X55586696Y-49359433D01*
X55362068Y-49286446D01*
X55128797Y-49249500D01*
X55128792Y-49249500D01*
X54892608Y-49249500D01*
X54892603Y-49249500D01*
X54659331Y-49286446D01*
X54434703Y-49359433D01*
X54224266Y-49466657D01*
X54115250Y-49545862D01*
X54033190Y-49605483D01*
X54033188Y-49605485D01*
X54033187Y-49605485D01*
X53866185Y-49772487D01*
X53866185Y-49772488D01*
X53866183Y-49772490D01*
X53829858Y-49822487D01*
X53727357Y-49963566D01*
X53620133Y-50174003D01*
X53547146Y-50398631D01*
X53510200Y-50631902D01*
X36603280Y-50631902D01*
X36574253Y-50448631D01*
X36501266Y-50224003D01*
X36394042Y-50013566D01*
X36255217Y-49822490D01*
X36088210Y-49655483D01*
X35897133Y-49516657D01*
X35686696Y-49409433D01*
X35462068Y-49336446D01*
X35228797Y-49299500D01*
X35228792Y-49299500D01*
X34992608Y-49299500D01*
X34992603Y-49299500D01*
X34759331Y-49336446D01*
X34534703Y-49409433D01*
X34324266Y-49516657D01*
X34263416Y-49560868D01*
X34133190Y-49655483D01*
X34133188Y-49655485D01*
X34133187Y-49655485D01*
X33966185Y-49822487D01*
X33966185Y-49822488D01*
X33966183Y-49822490D01*
X33906562Y-49904550D01*
X33827357Y-50013566D01*
X33720133Y-50224003D01*
X33647146Y-50448631D01*
X33610200Y-50681902D01*
X33610200Y-50918097D01*
X33647146Y-51151368D01*
X33720133Y-51375996D01*
X33821024Y-51574003D01*
X33827357Y-51586433D01*
X33966183Y-51777510D01*
X34133190Y-51944517D01*
X34324267Y-52083343D01*
X34423691Y-52134002D01*
X34534703Y-52190566D01*
X34534705Y-52190566D01*
X34534708Y-52190568D01*
X34710251Y-52247605D01*
X34740915Y-52257569D01*
X34798590Y-52297007D01*
X34825788Y-52361366D01*
X34813873Y-52430212D01*
X34766629Y-52481688D01*
X34702596Y-52499500D01*
X27926080Y-52499500D01*
X27781092Y-52528340D01*
X27781082Y-52528343D01*
X27644507Y-52584914D01*
X27556820Y-52643505D01*
X27556819Y-52643506D01*
X27521581Y-52667050D01*
X27521580Y-52667051D01*
X25713181Y-54475451D01*
X25651858Y-54508936D01*
X25582166Y-54503952D01*
X25526233Y-54462080D01*
X25501816Y-54396616D01*
X25501500Y-54387770D01*
X25501500Y-53361229D01*
X25521185Y-53294190D01*
X25537819Y-53273548D01*
X31274548Y-47536819D01*
X31335871Y-47503334D01*
X31362229Y-47500500D01*
X55137770Y-47500500D01*
X55204809Y-47520185D01*
G37*
%TD.AperFunction*%
%TA.AperFunction,NonConductor*%
G36*
X64460920Y-58013003D02*
G01*
X64495278Y-58073842D01*
X64498500Y-58101927D01*
X64498500Y-58898072D01*
X64478815Y-58965111D01*
X64426011Y-59010866D01*
X64356853Y-59020810D01*
X64293297Y-58991785D01*
X64274182Y-58970958D01*
X64269934Y-58965111D01*
X64144517Y-58792490D01*
X63977510Y-58625483D01*
X63942872Y-58600317D01*
X63900207Y-58544989D01*
X63894228Y-58475375D01*
X63926833Y-58413580D01*
X63942873Y-58399682D01*
X63977510Y-58374517D01*
X64144517Y-58207510D01*
X64274183Y-58029039D01*
X64329512Y-57986376D01*
X64399125Y-57980397D01*
X64460920Y-58013003D01*
G37*
%TD.AperFunction*%
%TA.AperFunction,NonConductor*%
G36*
X56184809Y-54020185D02*
G01*
X56205451Y-54036819D01*
X61498719Y-59330086D01*
X61532204Y-59391409D01*
X61533511Y-59437165D01*
X61499500Y-59651902D01*
X61499500Y-59888097D01*
X61536446Y-60121368D01*
X61609433Y-60345996D01*
X61661069Y-60447335D01*
X61714909Y-60553003D01*
X61716658Y-60556434D01*
X61717429Y-60557496D01*
X61717598Y-60557969D01*
X61719203Y-60560589D01*
X61718652Y-60560926D01*
X61740907Y-60623303D01*
X61725080Y-60691356D01*
X61674973Y-60740050D01*
X61606495Y-60753924D01*
X61541387Y-60728573D01*
X61529428Y-60718060D01*
X55023549Y-54212181D01*
X54990064Y-54150858D01*
X54995048Y-54081166D01*
X55036920Y-54025233D01*
X55102384Y-54000816D01*
X55111230Y-54000500D01*
X56117770Y-54000500D01*
X56184809Y-54020185D01*
G37*
%TD.AperFunction*%
%TA.AperFunction,NonConductor*%
G36*
X64460920Y-60553003D02*
G01*
X64495278Y-60613842D01*
X64498500Y-60641927D01*
X64498500Y-61438072D01*
X64478815Y-61505111D01*
X64426011Y-61550866D01*
X64356853Y-61560810D01*
X64293297Y-61531785D01*
X64274182Y-61510958D01*
X64269934Y-61505111D01*
X64144517Y-61332490D01*
X63977510Y-61165483D01*
X63942872Y-61140317D01*
X63900207Y-61084989D01*
X63894228Y-61015375D01*
X63926833Y-60953580D01*
X63942873Y-60939682D01*
X63977510Y-60914517D01*
X64144517Y-60747510D01*
X64274183Y-60569039D01*
X64329512Y-60526376D01*
X64399125Y-60520397D01*
X64460920Y-60553003D01*
G37*
%TD.AperFunction*%
%TA.AperFunction,NonConductor*%
G36*
X25706703Y-61268517D02*
G01*
X25713181Y-61274549D01*
X26297751Y-61859119D01*
X26328001Y-61908481D01*
X26369433Y-62035996D01*
X26442441Y-62179280D01*
X26476657Y-62246433D01*
X26615483Y-62437510D01*
X26782490Y-62604517D01*
X26817127Y-62629683D01*
X26859792Y-62685013D01*
X26865771Y-62754626D01*
X26833165Y-62816421D01*
X26817130Y-62830315D01*
X26799365Y-62843222D01*
X26782488Y-62855484D01*
X26615485Y-63022487D01*
X26615485Y-63022488D01*
X26615483Y-63022490D01*
X26552600Y-63109041D01*
X26487687Y-63198386D01*
X26432357Y-63241051D01*
X26387369Y-63249500D01*
X26112229Y-63249500D01*
X26045190Y-63229815D01*
X26024548Y-63213181D01*
X25537819Y-62726451D01*
X25504334Y-62665128D01*
X25501500Y-62638770D01*
X25501500Y-61362230D01*
X25521185Y-61295191D01*
X25573989Y-61249436D01*
X25643147Y-61239492D01*
X25706703Y-61268517D01*
G37*
%TD.AperFunction*%
%TA.AperFunction,NonConductor*%
G36*
X64460920Y-63093003D02*
G01*
X64495278Y-63153842D01*
X64498500Y-63181927D01*
X64498500Y-63978072D01*
X64478815Y-64045111D01*
X64426011Y-64090866D01*
X64356853Y-64100810D01*
X64293297Y-64071785D01*
X64274182Y-64050958D01*
X64249885Y-64017516D01*
X64144517Y-63872490D01*
X63977510Y-63705483D01*
X63942872Y-63680317D01*
X63900207Y-63624989D01*
X63894228Y-63555375D01*
X63926833Y-63493580D01*
X63942873Y-63479682D01*
X63977510Y-63454517D01*
X64144517Y-63287510D01*
X64274183Y-63109039D01*
X64329512Y-63066376D01*
X64399125Y-63060397D01*
X64460920Y-63093003D01*
G37*
%TD.AperFunction*%
%TA.AperFunction,NonConductor*%
G36*
X24705703Y-64017516D02*
G01*
X24712181Y-64023548D01*
X25167048Y-64478415D01*
X25167049Y-64478416D01*
X25236497Y-64547864D01*
X25271585Y-64582952D01*
X25394498Y-64665080D01*
X25394511Y-64665087D01*
X25525346Y-64719280D01*
X25531087Y-64721658D01*
X25531091Y-64721658D01*
X25531092Y-64721659D01*
X25676079Y-64750500D01*
X25676082Y-64750500D01*
X26387369Y-64750500D01*
X26454408Y-64770185D01*
X26487685Y-64801613D01*
X26615483Y-64977510D01*
X26782490Y-65144517D01*
X26817127Y-65169683D01*
X26859792Y-65225013D01*
X26865771Y-65294626D01*
X26833165Y-65356421D01*
X26817130Y-65370315D01*
X26791966Y-65388598D01*
X26782487Y-65395485D01*
X26615485Y-65562487D01*
X26615485Y-65562488D01*
X26615483Y-65562490D01*
X26523748Y-65688752D01*
X26516475Y-65698763D01*
X26461145Y-65741428D01*
X26428316Y-65749279D01*
X26426086Y-65749498D01*
X26281092Y-65778340D01*
X26281082Y-65778343D01*
X26144511Y-65834912D01*
X26144504Y-65834916D01*
X26128992Y-65845281D01*
X26121183Y-65850499D01*
X26121182Y-65850499D01*
X26021585Y-65917046D01*
X26021578Y-65917052D01*
X24712181Y-67226450D01*
X24650858Y-67259935D01*
X24581166Y-67254951D01*
X24525233Y-67213079D01*
X24500816Y-67147615D01*
X24500500Y-67138769D01*
X24500500Y-64111229D01*
X24520185Y-64044190D01*
X24572989Y-63998435D01*
X24642147Y-63988491D01*
X24705703Y-64017516D01*
G37*
%TD.AperFunction*%
%TA.AperFunction,NonConductor*%
G36*
X48865551Y-69494263D02*
G01*
X48899909Y-69555101D01*
X48902072Y-69599369D01*
X48899500Y-69618904D01*
X48899500Y-69881157D01*
X48934221Y-70144874D01*
X48923456Y-70213910D01*
X48877076Y-70266166D01*
X48809807Y-70285051D01*
X48743006Y-70264571D01*
X48710964Y-70233946D01*
X48646249Y-70144874D01*
X48644517Y-70142490D01*
X48477510Y-69975483D01*
X48442872Y-69950317D01*
X48400207Y-69894989D01*
X48394228Y-69825375D01*
X48426833Y-69763580D01*
X48442873Y-69749682D01*
X48477510Y-69724517D01*
X48644517Y-69557510D01*
X48678815Y-69510301D01*
X48734142Y-69467637D01*
X48803756Y-69461657D01*
X48865551Y-69494263D01*
G37*
%TD.AperFunction*%
%TA.AperFunction,NonConductor*%
G36*
X45918834Y-71075047D02*
G01*
X45974767Y-71116919D01*
X45999184Y-71182383D01*
X45999500Y-71191229D01*
X45999500Y-71238097D01*
X46033511Y-71452833D01*
X46024556Y-71522126D01*
X45998719Y-71559912D01*
X45962181Y-71596450D01*
X45900858Y-71629935D01*
X45831166Y-71624951D01*
X45775233Y-71583079D01*
X45750816Y-71517615D01*
X45750500Y-71508769D01*
X45750500Y-71192229D01*
X45759144Y-71162788D01*
X45765668Y-71132802D01*
X45769422Y-71127786D01*
X45770185Y-71125190D01*
X45786819Y-71104548D01*
X45787819Y-71103548D01*
X45849142Y-71070063D01*
X45918834Y-71075047D01*
G37*
%TD.AperFunction*%
%TA.AperFunction,NonConductor*%
G36*
X57418834Y-75195707D02*
G01*
X57474767Y-75237579D01*
X57499184Y-75303043D01*
X57499500Y-75311889D01*
X57499500Y-75654911D01*
X57479815Y-75721950D01*
X57427011Y-75767705D01*
X57357853Y-75777649D01*
X57294297Y-75748624D01*
X57287819Y-75742592D01*
X57154112Y-75608885D01*
X57154106Y-75608880D01*
X57119473Y-75583718D01*
X57076807Y-75528389D01*
X57070828Y-75458775D01*
X57103433Y-75396980D01*
X57119473Y-75383082D01*
X57134865Y-75371899D01*
X57154110Y-75357917D01*
X57287819Y-75224208D01*
X57349142Y-75190723D01*
X57418834Y-75195707D01*
G37*
%TD.AperFunction*%
%TA.AperFunction,NonConductor*%
G36*
X57418834Y-77735707D02*
G01*
X57474767Y-77777579D01*
X57499184Y-77843043D01*
X57499500Y-77851889D01*
X57499500Y-78168900D01*
X57496949Y-78177585D01*
X57498238Y-78186547D01*
X57487259Y-78210587D01*
X57479815Y-78235939D01*
X57472974Y-78241866D01*
X57469213Y-78250103D01*
X57446978Y-78264392D01*
X57427011Y-78281694D01*
X57416496Y-78283981D01*
X57410435Y-78287877D01*
X57375500Y-78292900D01*
X57349489Y-78292900D01*
X57282450Y-78273215D01*
X57261808Y-78256581D01*
X57154112Y-78148885D01*
X57154106Y-78148880D01*
X57119473Y-78123718D01*
X57076807Y-78068389D01*
X57070828Y-77998775D01*
X57103433Y-77936980D01*
X57119473Y-77923082D01*
X57122226Y-77921082D01*
X57154110Y-77897917D01*
X57287819Y-77764208D01*
X57349142Y-77730723D01*
X57418834Y-77735707D01*
G37*
%TD.AperFunction*%
%TA.AperFunction,NonConductor*%
G36*
X53954809Y-55270185D02*
G01*
X53975451Y-55286819D01*
X61581584Y-62892952D01*
X61581589Y-62892956D01*
X61602277Y-62906779D01*
X61643873Y-62953587D01*
X61678980Y-63022488D01*
X61716657Y-63096433D01*
X61855483Y-63287510D01*
X62022490Y-63454517D01*
X62057127Y-63479683D01*
X62069959Y-63496323D01*
X62086289Y-63509556D01*
X62090868Y-63523440D01*
X62099792Y-63535013D01*
X62101590Y-63555947D01*
X62108174Y-63575910D01*
X62104520Y-63590064D01*
X62105771Y-63604626D01*
X62095963Y-63623212D01*
X62090711Y-63643562D01*
X62077730Y-63657768D01*
X62073165Y-63666421D01*
X62068490Y-63670984D01*
X62063086Y-63675988D01*
X62022490Y-63705483D01*
X61913102Y-63814870D01*
X61911360Y-63816484D01*
X61882116Y-63831023D01*
X61853469Y-63846666D01*
X61849876Y-63847052D01*
X61848797Y-63847589D01*
X61846865Y-63847376D01*
X61827111Y-63849500D01*
X61439455Y-63849500D01*
X61342812Y-63868724D01*
X61246167Y-63887947D01*
X61246161Y-63887949D01*
X61192834Y-63910037D01*
X61192834Y-63910038D01*
X61147315Y-63928892D01*
X61064089Y-63963366D01*
X61064079Y-63963371D01*
X60900218Y-64072860D01*
X60900214Y-64072863D01*
X60307999Y-64665080D01*
X60112220Y-64860859D01*
X60112218Y-64860861D01*
X60042538Y-64930540D01*
X59972859Y-65000219D01*
X59863371Y-65164080D01*
X59863364Y-65164093D01*
X59829612Y-65245579D01*
X59829607Y-65245593D01*
X59827989Y-65249500D01*
X59787949Y-65346164D01*
X59778139Y-65395483D01*
X59776589Y-65403274D01*
X59776588Y-65403278D01*
X59749500Y-65539456D01*
X59749500Y-65539459D01*
X59749500Y-75848541D01*
X59749500Y-75848543D01*
X59749499Y-75848543D01*
X59787947Y-76041829D01*
X59787950Y-76041839D01*
X59863364Y-76223907D01*
X59863371Y-76223920D01*
X59972860Y-76387781D01*
X59972863Y-76387785D01*
X60116537Y-76531459D01*
X60116559Y-76531479D01*
X61988181Y-78403101D01*
X62021666Y-78464424D01*
X62024500Y-78490782D01*
X62024500Y-89302111D01*
X62016500Y-89329354D01*
X62011534Y-89357315D01*
X62006051Y-89364939D01*
X62004815Y-89369150D01*
X61991484Y-89386360D01*
X61989870Y-89388102D01*
X61880483Y-89497490D01*
X61850988Y-89538086D01*
X61845984Y-89543490D01*
X61822053Y-89557776D01*
X61799987Y-89574792D01*
X61792471Y-89575437D01*
X61785992Y-89579306D01*
X61758136Y-89578386D01*
X61730374Y-89580771D01*
X61723700Y-89577249D01*
X61716160Y-89577001D01*
X61693227Y-89561170D01*
X61668579Y-89548165D01*
X61659934Y-89538188D01*
X61658660Y-89537309D01*
X61658183Y-89536168D01*
X61654682Y-89532127D01*
X61647685Y-89522496D01*
X61629517Y-89497490D01*
X61462510Y-89330483D01*
X61271433Y-89191657D01*
X61060996Y-89084433D01*
X60836368Y-89011446D01*
X60603097Y-88974500D01*
X60603092Y-88974500D01*
X60366908Y-88974500D01*
X60366903Y-88974500D01*
X60133631Y-89011446D01*
X59909003Y-89084433D01*
X59698566Y-89191657D01*
X59589550Y-89270862D01*
X59507490Y-89330483D01*
X59507488Y-89330485D01*
X59507487Y-89330485D01*
X59340485Y-89497487D01*
X59340485Y-89497488D01*
X59340483Y-89497490D01*
X59296683Y-89557776D01*
X59201657Y-89688566D01*
X59094433Y-89899003D01*
X59021446Y-90123631D01*
X58984500Y-90356902D01*
X58984500Y-91593097D01*
X59021446Y-91826368D01*
X59094433Y-92050996D01*
X59200829Y-92259807D01*
X59201657Y-92261433D01*
X59340483Y-92452510D01*
X59507490Y-92619517D01*
X59698567Y-92758343D01*
X59764287Y-92791829D01*
X59909003Y-92865566D01*
X59909005Y-92865566D01*
X59909008Y-92865568D01*
X59985944Y-92890566D01*
X60133631Y-92938553D01*
X60366903Y-92975500D01*
X60366908Y-92975500D01*
X60603097Y-92975500D01*
X60836368Y-92938553D01*
X60901131Y-92917510D01*
X61060992Y-92865568D01*
X61271433Y-92758343D01*
X61462510Y-92619517D01*
X61629517Y-92452510D01*
X61654682Y-92417872D01*
X61710011Y-92375207D01*
X61779625Y-92369228D01*
X61841420Y-92401833D01*
X61855315Y-92417870D01*
X61880483Y-92452510D01*
X62047490Y-92619517D01*
X62238567Y-92758343D01*
X62304287Y-92791829D01*
X62449003Y-92865566D01*
X62449005Y-92865566D01*
X62449008Y-92865568D01*
X62525944Y-92890566D01*
X62673631Y-92938553D01*
X62906903Y-92975500D01*
X62906908Y-92975500D01*
X63143097Y-92975500D01*
X63376368Y-92938553D01*
X63441131Y-92917510D01*
X63600992Y-92865568D01*
X63811433Y-92758343D01*
X64002510Y-92619517D01*
X64169517Y-92452510D01*
X64274182Y-92308450D01*
X64329512Y-92265786D01*
X64399126Y-92259807D01*
X64460921Y-92292413D01*
X64495278Y-92353252D01*
X64498500Y-92381337D01*
X64498500Y-109118662D01*
X64478815Y-109185701D01*
X64426011Y-109231456D01*
X64356853Y-109241400D01*
X64293297Y-109212375D01*
X64274182Y-109191548D01*
X64206642Y-109098588D01*
X64169517Y-109047490D01*
X64061819Y-108939792D01*
X64028334Y-108878469D01*
X64025500Y-108852111D01*
X64025500Y-98676456D01*
X64006808Y-98582490D01*
X64002235Y-98559500D01*
X63987051Y-98483164D01*
X63959016Y-98415483D01*
X63925675Y-98334989D01*
X63911635Y-98301092D01*
X63911633Y-98301088D01*
X63911632Y-98301086D01*
X63846481Y-98203580D01*
X63802139Y-98137217D01*
X63659686Y-97994764D01*
X63659655Y-97994735D01*
X57786819Y-92121899D01*
X57753334Y-92060576D01*
X57750500Y-92034218D01*
X57750500Y-87965782D01*
X57770185Y-87898743D01*
X57786819Y-87878101D01*
X58456760Y-87208160D01*
X59277140Y-86387781D01*
X59304419Y-86346953D01*
X59386632Y-86223914D01*
X59462051Y-86041835D01*
X59493747Y-85882490D01*
X59500500Y-85848543D01*
X59500500Y-66151456D01*
X59462052Y-65958170D01*
X59462051Y-65958169D01*
X59462051Y-65958165D01*
X59417455Y-65850499D01*
X59386635Y-65776092D01*
X59386628Y-65776079D01*
X59277139Y-65612218D01*
X59277136Y-65612214D01*
X59134686Y-65469764D01*
X59134655Y-65469735D01*
X49411479Y-55746559D01*
X49411459Y-55746537D01*
X49267785Y-55602863D01*
X49267781Y-55602860D01*
X49103920Y-55493371D01*
X49103916Y-55493369D01*
X49103914Y-55493368D01*
X49093515Y-55489060D01*
X49039114Y-55445221D01*
X49017048Y-55378927D01*
X49034327Y-55311228D01*
X49085463Y-55263617D01*
X49140969Y-55250500D01*
X53887770Y-55250500D01*
X53954809Y-55270185D01*
G37*
%TD.AperFunction*%
%TA.AperFunction,NonConductor*%
G36*
X26623004Y-67540877D02*
G01*
X26667351Y-67569378D01*
X26782490Y-67684517D01*
X26817814Y-67710181D01*
X26818457Y-67710662D01*
X26838947Y-67737979D01*
X26859792Y-67765013D01*
X26859865Y-67765868D01*
X26860381Y-67766556D01*
X26862848Y-67800603D01*
X26865771Y-67834626D01*
X26865369Y-67835386D01*
X26865432Y-67836242D01*
X26849104Y-67866211D01*
X26833165Y-67896421D01*
X26832184Y-67897270D01*
X26832006Y-67897598D01*
X26831464Y-67897894D01*
X26817130Y-67910315D01*
X26799365Y-67923222D01*
X26782488Y-67935484D01*
X26615485Y-68102487D01*
X26615485Y-68102488D01*
X26615483Y-68102490D01*
X26555862Y-68184550D01*
X26476657Y-68293566D01*
X26369433Y-68504003D01*
X26296446Y-68728631D01*
X26259500Y-68961902D01*
X26259500Y-69198097D01*
X26296446Y-69431368D01*
X26369433Y-69655996D01*
X26455737Y-69825375D01*
X26476657Y-69866433D01*
X26615483Y-70057510D01*
X26782490Y-70224517D01*
X26817127Y-70249683D01*
X26859792Y-70305013D01*
X26865771Y-70374626D01*
X26833165Y-70436421D01*
X26817130Y-70450315D01*
X26799365Y-70463222D01*
X26782488Y-70475484D01*
X26615485Y-70642487D01*
X26615485Y-70642488D01*
X26615483Y-70642490D01*
X26555862Y-70724550D01*
X26476657Y-70833566D01*
X26369433Y-71044003D01*
X26296446Y-71268631D01*
X26259500Y-71501902D01*
X26259500Y-71738097D01*
X26296446Y-71971368D01*
X26369433Y-72195996D01*
X26455737Y-72365375D01*
X26476657Y-72406433D01*
X26615483Y-72597510D01*
X26782490Y-72764517D01*
X26817127Y-72789683D01*
X26859792Y-72845013D01*
X26865771Y-72914626D01*
X26833165Y-72976421D01*
X26817130Y-72990315D01*
X26799365Y-73003222D01*
X26782488Y-73015484D01*
X26615485Y-73182487D01*
X26615485Y-73182488D01*
X26615483Y-73182490D01*
X26576688Y-73235887D01*
X26476657Y-73373566D01*
X26369433Y-73584003D01*
X26296446Y-73808631D01*
X26259500Y-74041902D01*
X26259500Y-74278097D01*
X26296446Y-74511368D01*
X26369433Y-74735996D01*
X26445362Y-74885013D01*
X26476657Y-74946433D01*
X26615483Y-75137510D01*
X26782490Y-75304517D01*
X26817127Y-75329683D01*
X26859792Y-75385013D01*
X26865771Y-75454626D01*
X26833165Y-75516421D01*
X26817130Y-75530315D01*
X26799365Y-75543222D01*
X26782488Y-75555484D01*
X26615485Y-75722487D01*
X26615485Y-75722488D01*
X26615483Y-75722490D01*
X26576686Y-75775890D01*
X26476657Y-75913566D01*
X26369433Y-76124003D01*
X26296446Y-76348631D01*
X26259500Y-76581902D01*
X26259500Y-76818097D01*
X26296446Y-77051368D01*
X26369433Y-77275996D01*
X26426104Y-77387218D01*
X26476657Y-77486433D01*
X26615483Y-77677510D01*
X26782490Y-77844517D01*
X26817127Y-77869683D01*
X26859792Y-77925013D01*
X26865771Y-77994626D01*
X26833165Y-78056421D01*
X26817130Y-78070315D01*
X26799365Y-78083222D01*
X26782488Y-78095484D01*
X26615485Y-78262487D01*
X26615485Y-78262488D01*
X26615483Y-78262490D01*
X26593389Y-78292900D01*
X26476657Y-78453566D01*
X26369433Y-78664003D01*
X26296446Y-78888631D01*
X26259500Y-79121902D01*
X26259500Y-79358097D01*
X26296446Y-79591368D01*
X26369433Y-79815996D01*
X26441211Y-79956867D01*
X26476657Y-80026433D01*
X26615483Y-80217510D01*
X26782490Y-80384517D01*
X26817127Y-80409683D01*
X26859792Y-80465013D01*
X26865771Y-80534626D01*
X26833165Y-80596421D01*
X26817130Y-80610315D01*
X26799365Y-80623222D01*
X26782488Y-80635484D01*
X26615485Y-80802487D01*
X26615485Y-80802488D01*
X26615483Y-80802490D01*
X26603012Y-80819655D01*
X26476657Y-80993566D01*
X26369433Y-81204003D01*
X26296446Y-81428631D01*
X26259500Y-81661902D01*
X26259500Y-81898097D01*
X26296446Y-82131368D01*
X26369433Y-82355996D01*
X26404347Y-82424517D01*
X26476657Y-82566433D01*
X26615483Y-82757510D01*
X26782490Y-82924517D01*
X26817127Y-82949683D01*
X26859792Y-83005013D01*
X26865771Y-83074626D01*
X26833165Y-83136421D01*
X26817130Y-83150315D01*
X26799365Y-83163222D01*
X26782488Y-83175484D01*
X26615485Y-83342487D01*
X26615485Y-83342488D01*
X26615483Y-83342490D01*
X26574539Y-83398845D01*
X26476657Y-83533566D01*
X26369433Y-83744003D01*
X26296446Y-83968631D01*
X26259500Y-84201902D01*
X26259500Y-84438097D01*
X26296446Y-84671368D01*
X26369433Y-84895996D01*
X26476657Y-85106433D01*
X26615483Y-85297510D01*
X26782490Y-85464517D01*
X26817127Y-85489683D01*
X26859792Y-85545013D01*
X26865771Y-85614626D01*
X26833165Y-85676421D01*
X26817130Y-85690315D01*
X26799365Y-85703222D01*
X26782488Y-85715484D01*
X26615485Y-85882487D01*
X26615485Y-85882488D01*
X26615483Y-85882490D01*
X26555862Y-85964550D01*
X26476657Y-86073566D01*
X26369433Y-86284003D01*
X26296446Y-86508631D01*
X26259500Y-86741902D01*
X26259500Y-86978097D01*
X26296446Y-87211368D01*
X26369433Y-87435996D01*
X26456582Y-87607033D01*
X26476657Y-87646433D01*
X26615483Y-87837510D01*
X26782490Y-88004517D01*
X26817127Y-88029683D01*
X26859792Y-88085013D01*
X26865771Y-88154626D01*
X26833165Y-88216421D01*
X26817130Y-88230315D01*
X26799365Y-88243222D01*
X26782488Y-88255484D01*
X26615485Y-88422487D01*
X26615485Y-88422488D01*
X26615483Y-88422490D01*
X26588594Y-88459500D01*
X26476657Y-88613566D01*
X26369433Y-88824003D01*
X26296446Y-89048631D01*
X26259500Y-89281902D01*
X26259500Y-89518097D01*
X26296446Y-89751368D01*
X26369433Y-89975996D01*
X26444658Y-90123632D01*
X26476657Y-90186433D01*
X26615483Y-90377510D01*
X26782490Y-90544517D01*
X26817127Y-90569683D01*
X26859792Y-90625013D01*
X26865771Y-90694626D01*
X26833165Y-90756421D01*
X26817130Y-90770315D01*
X26801038Y-90782007D01*
X26782488Y-90795484D01*
X26615485Y-90962487D01*
X26615485Y-90962488D01*
X26615483Y-90962490D01*
X26558568Y-91040826D01*
X26476657Y-91153566D01*
X26369433Y-91364003D01*
X26296446Y-91588631D01*
X26259500Y-91821902D01*
X26259500Y-92058097D01*
X26296446Y-92291368D01*
X26369433Y-92515996D01*
X26476657Y-92726433D01*
X26615483Y-92917510D01*
X26782490Y-93084517D01*
X26817127Y-93109683D01*
X26859792Y-93165013D01*
X26865771Y-93234626D01*
X26833165Y-93296421D01*
X26817130Y-93310315D01*
X26799365Y-93323222D01*
X26782488Y-93335484D01*
X26615485Y-93502487D01*
X26615485Y-93502488D01*
X26615483Y-93502490D01*
X26555862Y-93584550D01*
X26476657Y-93693566D01*
X26369433Y-93904003D01*
X26296446Y-94128631D01*
X26259500Y-94361902D01*
X26259500Y-94598097D01*
X26296446Y-94831368D01*
X26369433Y-95055996D01*
X26476657Y-95266433D01*
X26615483Y-95457510D01*
X26782490Y-95624517D01*
X26817127Y-95649683D01*
X26859792Y-95705013D01*
X26865771Y-95774626D01*
X26833165Y-95836421D01*
X26817130Y-95850315D01*
X26799365Y-95863222D01*
X26782488Y-95875484D01*
X26615485Y-96042487D01*
X26615485Y-96042488D01*
X26615483Y-96042490D01*
X26555862Y-96124550D01*
X26476657Y-96233566D01*
X26369433Y-96444003D01*
X26296446Y-96668631D01*
X26259500Y-96901902D01*
X26259500Y-97138097D01*
X26296446Y-97371368D01*
X26369433Y-97595996D01*
X26476657Y-97806433D01*
X26615483Y-97997510D01*
X26782490Y-98164517D01*
X26817127Y-98189683D01*
X26859792Y-98245013D01*
X26865771Y-98314626D01*
X26833165Y-98376421D01*
X26817130Y-98390315D01*
X26782490Y-98415483D01*
X26782487Y-98415485D01*
X26615485Y-98582487D01*
X26615485Y-98582488D01*
X26615483Y-98582490D01*
X26555862Y-98664550D01*
X26476657Y-98773566D01*
X26369433Y-98984003D01*
X26296446Y-99208631D01*
X26259500Y-99441902D01*
X26259500Y-99678097D01*
X26296446Y-99911368D01*
X26369433Y-100135996D01*
X26476657Y-100346433D01*
X26615483Y-100537510D01*
X26782490Y-100704517D01*
X26817127Y-100729683D01*
X26859792Y-100785013D01*
X26865771Y-100854626D01*
X26833165Y-100916421D01*
X26817130Y-100930315D01*
X26799365Y-100943222D01*
X26782488Y-100955484D01*
X26615485Y-101122487D01*
X26615485Y-101122488D01*
X26615483Y-101122490D01*
X26555862Y-101204550D01*
X26476657Y-101313566D01*
X26369433Y-101524003D01*
X26296446Y-101748631D01*
X26259500Y-101981902D01*
X26259500Y-102218097D01*
X26296446Y-102451368D01*
X26369433Y-102675996D01*
X26476657Y-102886433D01*
X26615483Y-103077510D01*
X26782490Y-103244517D01*
X26817127Y-103269683D01*
X26859792Y-103325013D01*
X26865771Y-103394626D01*
X26833165Y-103456421D01*
X26817130Y-103470315D01*
X26799365Y-103483222D01*
X26782488Y-103495484D01*
X26615485Y-103662487D01*
X26615485Y-103662488D01*
X26615483Y-103662490D01*
X26555862Y-103744550D01*
X26476657Y-103853566D01*
X26369433Y-104064003D01*
X26296446Y-104288631D01*
X26259500Y-104521902D01*
X26259500Y-104758097D01*
X26296446Y-104991368D01*
X26369433Y-105215996D01*
X26476657Y-105426433D01*
X26615483Y-105617510D01*
X26782490Y-105784517D01*
X26817127Y-105809683D01*
X26859792Y-105865013D01*
X26865771Y-105934626D01*
X26833165Y-105996421D01*
X26817130Y-106010315D01*
X26799365Y-106023222D01*
X26782488Y-106035484D01*
X26615485Y-106202487D01*
X26615485Y-106202488D01*
X26615483Y-106202490D01*
X26555862Y-106284550D01*
X26476657Y-106393566D01*
X26369433Y-106604003D01*
X26296446Y-106828631D01*
X26259500Y-107061902D01*
X26259500Y-107298097D01*
X26296446Y-107531368D01*
X26369433Y-107755996D01*
X26476657Y-107966433D01*
X26615483Y-108157510D01*
X26782490Y-108324517D01*
X26817127Y-108349683D01*
X26859792Y-108405013D01*
X26865771Y-108474626D01*
X26833165Y-108536421D01*
X26817130Y-108550315D01*
X26801810Y-108561446D01*
X26782488Y-108575484D01*
X26615485Y-108742487D01*
X26615485Y-108742488D01*
X26615483Y-108742490D01*
X26555862Y-108824550D01*
X26476657Y-108933566D01*
X26369433Y-109144003D01*
X26296446Y-109368631D01*
X26259500Y-109601902D01*
X26259500Y-109838097D01*
X26296446Y-110071368D01*
X26369433Y-110295996D01*
X26452577Y-110459174D01*
X26476657Y-110506433D01*
X26615483Y-110697510D01*
X26782490Y-110864517D01*
X26817127Y-110889683D01*
X26859792Y-110945013D01*
X26865771Y-111014626D01*
X26833165Y-111076421D01*
X26817130Y-111090315D01*
X26799365Y-111103222D01*
X26782488Y-111115484D01*
X26615485Y-111282487D01*
X26615485Y-111282488D01*
X26615483Y-111282490D01*
X26555862Y-111364550D01*
X26476657Y-111473566D01*
X26369433Y-111684003D01*
X26296446Y-111908631D01*
X26259500Y-112141902D01*
X26259500Y-112378097D01*
X26296446Y-112611368D01*
X26369433Y-112835996D01*
X26476657Y-113046433D01*
X26615483Y-113237510D01*
X26782490Y-113404517D01*
X26817127Y-113429683D01*
X26859792Y-113485013D01*
X26865771Y-113554626D01*
X26833165Y-113616421D01*
X26817130Y-113630315D01*
X26805493Y-113638770D01*
X26782488Y-113655484D01*
X26615485Y-113822487D01*
X26615485Y-113822488D01*
X26615483Y-113822490D01*
X26555862Y-113904550D01*
X26476657Y-114013566D01*
X26369433Y-114224003D01*
X26296446Y-114448631D01*
X26259500Y-114681902D01*
X26259500Y-114918097D01*
X26296446Y-115151368D01*
X26369433Y-115375996D01*
X26476657Y-115586433D01*
X26615483Y-115777510D01*
X26782490Y-115944517D01*
X26973567Y-116083343D01*
X27072991Y-116134002D01*
X27184003Y-116190566D01*
X27184005Y-116190566D01*
X27184008Y-116190568D01*
X27359551Y-116247605D01*
X27390215Y-116257569D01*
X27447890Y-116297007D01*
X27475088Y-116361366D01*
X27463173Y-116430212D01*
X27415929Y-116481688D01*
X27351896Y-116499500D01*
X26362229Y-116499500D01*
X26295190Y-116479815D01*
X26274548Y-116463181D01*
X26036819Y-116225451D01*
X26003334Y-116164128D01*
X26000500Y-116137770D01*
X26000500Y-68112229D01*
X26020185Y-68045190D01*
X26036815Y-68024552D01*
X26491989Y-67569377D01*
X26553312Y-67535893D01*
X26623004Y-67540877D01*
G37*
%TD.AperFunction*%
%TA.AperFunction,NonConductor*%
G36*
X65418834Y-114995048D02*
G01*
X65474767Y-115036920D01*
X65499184Y-115102384D01*
X65499500Y-115111230D01*
X65499500Y-121875500D01*
X65479815Y-121942539D01*
X65427011Y-121988294D01*
X65375500Y-121999500D01*
X24624500Y-121999500D01*
X24557461Y-121979815D01*
X24511706Y-121927011D01*
X24500500Y-121875500D01*
X24500500Y-119877973D01*
X33449500Y-119877973D01*
X33449500Y-120122026D01*
X33487678Y-120363072D01*
X33563097Y-120595187D01*
X33673896Y-120812642D01*
X33817339Y-121010076D01*
X33817343Y-121010081D01*
X33989918Y-121182656D01*
X33989923Y-121182660D01*
X34162136Y-121307779D01*
X34187361Y-121326106D01*
X34404815Y-121436904D01*
X34636924Y-121512321D01*
X34877973Y-121550500D01*
X34877974Y-121550500D01*
X35122026Y-121550500D01*
X35122027Y-121550500D01*
X35363076Y-121512321D01*
X35595185Y-121436904D01*
X35812639Y-121326106D01*
X36010083Y-121182655D01*
X36182655Y-121010083D01*
X36326106Y-120812639D01*
X36436904Y-120595185D01*
X36512321Y-120363076D01*
X36550500Y-120122027D01*
X36550500Y-119877973D01*
X53449500Y-119877973D01*
X53449500Y-120122026D01*
X53487678Y-120363072D01*
X53563097Y-120595187D01*
X53673896Y-120812642D01*
X53817339Y-121010076D01*
X53817343Y-121010081D01*
X53989918Y-121182656D01*
X53989923Y-121182660D01*
X54162136Y-121307779D01*
X54187361Y-121326106D01*
X54404815Y-121436904D01*
X54636924Y-121512321D01*
X54877973Y-121550500D01*
X54877974Y-121550500D01*
X55122026Y-121550500D01*
X55122027Y-121550500D01*
X55363076Y-121512321D01*
X55595185Y-121436904D01*
X55812639Y-121326106D01*
X56010083Y-121182655D01*
X56182655Y-121010083D01*
X56326106Y-120812639D01*
X56436904Y-120595185D01*
X56512321Y-120363076D01*
X56550500Y-120122027D01*
X56550500Y-119877973D01*
X56512321Y-119636924D01*
X56436904Y-119404815D01*
X56326106Y-119187361D01*
X56307779Y-119162136D01*
X56182660Y-118989923D01*
X56182656Y-118989918D01*
X56010081Y-118817343D01*
X56010076Y-118817339D01*
X55812642Y-118673896D01*
X55812641Y-118673895D01*
X55812639Y-118673894D01*
X55595185Y-118563096D01*
X55363076Y-118487679D01*
X55363074Y-118487678D01*
X55363072Y-118487678D01*
X55194769Y-118461021D01*
X55122027Y-118449500D01*
X54877973Y-118449500D01*
X54822093Y-118458350D01*
X54636927Y-118487678D01*
X54404812Y-118563097D01*
X54187357Y-118673896D01*
X53989923Y-118817339D01*
X53989918Y-118817343D01*
X53817343Y-118989918D01*
X53817339Y-118989923D01*
X53673896Y-119187357D01*
X53563097Y-119404812D01*
X53487678Y-119636927D01*
X53449500Y-119877973D01*
X36550500Y-119877973D01*
X36512321Y-119636924D01*
X36436904Y-119404815D01*
X36326106Y-119187361D01*
X36307779Y-119162136D01*
X36182660Y-118989923D01*
X36182656Y-118989918D01*
X36010081Y-118817343D01*
X36010076Y-118817339D01*
X35812642Y-118673896D01*
X35812641Y-118673895D01*
X35812639Y-118673894D01*
X35595185Y-118563096D01*
X35363076Y-118487679D01*
X35363074Y-118487678D01*
X35363072Y-118487678D01*
X35194769Y-118461021D01*
X35122027Y-118449500D01*
X34877973Y-118449500D01*
X34822093Y-118458350D01*
X34636927Y-118487678D01*
X34404812Y-118563097D01*
X34187357Y-118673896D01*
X33989923Y-118817339D01*
X33989918Y-118817343D01*
X33817343Y-118989918D01*
X33817339Y-118989923D01*
X33673896Y-119187357D01*
X33563097Y-119404812D01*
X33487678Y-119636927D01*
X33449500Y-119877973D01*
X24500500Y-119877973D01*
X24500500Y-117111230D01*
X24520185Y-117044191D01*
X24572989Y-116998436D01*
X24642147Y-116988492D01*
X24705703Y-117017517D01*
X24712181Y-117023549D01*
X25521580Y-117832948D01*
X25521584Y-117832951D01*
X25644498Y-117915080D01*
X25644511Y-117915087D01*
X25781082Y-117971656D01*
X25781087Y-117971658D01*
X25781091Y-117971658D01*
X25781092Y-117971659D01*
X25926079Y-118000500D01*
X25926082Y-118000500D01*
X62073920Y-118000500D01*
X62171462Y-117981096D01*
X62218913Y-117971658D01*
X62355495Y-117915084D01*
X62404729Y-117882186D01*
X62478416Y-117832952D01*
X65287819Y-115023549D01*
X65349142Y-114990064D01*
X65418834Y-114995048D01*
G37*
%TD.AperFunction*%
M02*
