M48
; DRILL file {KiCad 9.0.2-9.0.2-0~ubuntu22.04.1} date 2025-07-03T15:53:55-0400
; FORMAT={-:-/ absolute / inch / decimal}
; #@! TF.CreationDate,2025-07-03T15:53:55-04:00
; #@! TF.GenerationSoftware,Kicad,Pcbnew,9.0.2-9.0.2-0~ubuntu22.04.1
; #@! TF.FileFunction,Plated,1,2,PTH
FMAT,2
INCH
; #@! TA.AperFunction,Plated,PTH,ComponentDrill
T1C0.0394
%
G90
G05
T1
X1.0929Y-2.2197
X1.0929Y-2.3197
X1.0929Y-2.4197
X1.0929Y-2.5197
X1.0929Y-2.6197
X1.0929Y-2.7197
X1.0929Y-2.8197
X1.0929Y-2.9197
X1.0929Y-3.0197
X1.0929Y-3.1197
X1.0929Y-3.2197
X1.0929Y-3.3197
X1.0929Y-3.4197
X1.0929Y-3.5197
X1.0929Y-3.6197
X1.0929Y-3.7197
X1.0929Y-3.8197
X1.0929Y-3.9197
X1.0929Y-4.0197
X1.0929Y-4.1197
X1.0929Y-4.2197
X1.0929Y-4.3197
X1.0929Y-4.4197
X1.0929Y-4.5197
X1.6929Y-2.2197
X1.6929Y-2.3197
X1.6929Y-2.4197
X1.6929Y-2.5197
X1.6929Y-2.6197
X1.6929Y-2.7197
X1.6929Y-2.8197
X1.6929Y-2.9197
X1.6929Y-3.0197
X1.6929Y-3.1197
X1.6929Y-3.2197
X1.6929Y-3.3197
X1.6929Y-3.4197
X1.6929Y-3.5197
X1.6929Y-3.6197
X1.6929Y-3.7197
X1.6929Y-3.8197
X1.6929Y-3.9197
X1.6929Y-4.0197
X1.6929Y-4.1197
X1.6929Y-4.2197
X1.6929Y-4.3197
X1.6929Y-4.4197
X1.6929Y-4.5197
X1.8494Y-3.5827
X1.8494Y-4.3514
X1.8701Y-2.5
X1.8701Y-2.6
X1.8701Y-2.7
X1.8701Y-2.8
X1.8701Y-2.9
X1.8701Y-3.0
X1.8701Y-3.1
X1.8701Y-3.2
X1.9494Y-3.5817
X1.9494Y-4.3514
X2.2117Y-2.9218
X2.2117Y-3.0218
X2.2117Y-3.1218
X2.2117Y-3.2218
X2.3813Y-3.5817
X2.3813Y-4.3514
X2.4803Y-1.9531
X2.4803Y-2.0531
X2.4803Y-2.1531
X2.4803Y-2.2531
X2.4803Y-2.3531
X2.4803Y-2.4531
X2.4803Y-2.5531
X2.4803Y-2.6531
X2.4813Y-3.5817
X2.4813Y-4.3514
M30
