%TF.GenerationSoftware,KiCad,Pcbnew,9.0.2-9.0.2-0~ubuntu22.04.1*%
%TF.CreationDate,2025-07-03T15:54:24-04:00*%
%TF.ProjectId,TeensyDrone,5465656e-7379-4447-926f-6e652e6b6963,rev?*%
%TF.SameCoordinates,Original*%
%TF.FileFunction,Copper,L1,Top*%
%TF.FilePolarity,Positive*%
%FSLAX46Y46*%
G04 Gerber Fmt 4.6, Leading zero omitted, Abs format (unit mm)*
G04 Created by KiCad (PCBNEW 9.0.2-9.0.2-0~ubuntu22.04.1) date 2025-07-03 15:54:24*
%MOMM*%
%LPD*%
G01*
G04 APERTURE LIST*
%TA.AperFunction,NonConductor*%
%ADD10C,0.200000*%
%TD*%
%TA.AperFunction,ComponentPad*%
%ADD11C,2.000000*%
%TD*%
%TA.AperFunction,ComponentPad*%
%ADD12R,2.000000X2.000000*%
%TD*%
%TA.AperFunction,ComponentPad*%
%ADD13O,2.000000X3.000000*%
%TD*%
%TA.AperFunction,Conductor*%
%ADD14C,0.500000*%
%TD*%
%TA.AperFunction,Conductor*%
%ADD15C,1.000000*%
%TD*%
G04 APERTURE END LIST*
D10*
X36000000Y-120000000D02*
G75*
G02*
X34000000Y-120000000I-1000000J0D01*
G01*
X34000000Y-120000000D02*
G75*
G02*
X36000000Y-120000000I1000000J0D01*
G01*
X56000000Y-120000000D02*
G75*
G02*
X54000000Y-120000000I-1000000J0D01*
G01*
X54000000Y-120000000D02*
G75*
G02*
X56000000Y-120000000I1000000J0D01*
G01*
D11*
%TO.P,J1,8,Pin_8*%
%TO.N,unconnected-(J1-Pin_8-Pad8)*%
X47500000Y-81280000D03*
%TO.P,J1,7,Pin_7*%
%TO.N,unconnected-(J1-Pin_7-Pad7)*%
X47500000Y-78740000D03*
%TO.P,J1,6,Pin_6*%
%TO.N,unconnected-(J1-Pin_6-Pad6)*%
X47500000Y-76200000D03*
%TO.P,J1,5,Pin_5*%
%TO.N,unconnected-(J1-Pin_5-Pad5)*%
X47500000Y-73660000D03*
%TO.P,J1,4,SDA*%
%TO.N,Net-(J1-SDA)*%
X47500000Y-71120000D03*
%TO.P,J1,3,SCL*%
%TO.N,Net-(J1-SCL)*%
X47500000Y-68580000D03*
%TO.P,J1,2,GND*%
%TO.N,GND*%
X47500000Y-66040000D03*
D12*
%TO.P,J1,1,3.3V*%
%TO.N,Net-(J1-3.3V)*%
X47500000Y-63500000D03*
%TD*%
D11*
%TO.P,U1,0,RX1*%
%TO.N,Net-(J2-Servo1)*%
X27760000Y-58920000D03*
%TO.P,U1,1,TX1*%
%TO.N,Net-(J2-Servo2)*%
X27760000Y-61460000D03*
%TO.P,U1,2,OUT2*%
%TO.N,Net-(J2-Servo3)*%
X27760000Y-64000000D03*
%TO.P,U1,3,LRCLK2*%
%TO.N,Net-(J2-Servo4)*%
X27760000Y-66540000D03*
%TO.P,U1,3.3V,3.3V*%
%TO.N,Net-(J1-3.3V)*%
X43000000Y-61460000D03*
%TO.P,U1,3.3V_1*%
%TO.N,N/C*%
X27760000Y-91940000D03*
%TO.P,U1,4,BCLK2*%
%TO.N,unconnected-(U1-BCLK2-Pad4)*%
X27760000Y-69080000D03*
%TO.P,U1,5,IN2*%
%TO.N,unconnected-(U1-IN2-Pad5)*%
X27760000Y-71620000D03*
%TO.P,U1,5V,5V*%
%TO.N,5V*%
X43000000Y-56380000D03*
%TO.P,U1,6,OUT1D*%
%TO.N,unconnected-(U1-OUT1D-Pad6)*%
X27760000Y-74160000D03*
%TO.P,U1,7,RX2*%
%TO.N,unconnected-(U1-RX2-Pad7)*%
X27760000Y-76700000D03*
%TO.P,U1,8,TX2*%
%TO.N,unconnected-(U1-TX2-Pad8)*%
X27760000Y-79240000D03*
%TO.P,U1,9,OUT1C*%
%TO.N,unconnected-(U1-OUT1C-Pad9)*%
X27760000Y-81780000D03*
%TO.P,U1,10,CS1*%
%TO.N,unconnected-(U1-CS1-Pad10)*%
X27760000Y-84320000D03*
%TO.P,U1,11,MOSI*%
%TO.N,unconnected-(U1-MOSI-Pad11)*%
X27760000Y-86860000D03*
%TO.P,U1,12,MISO*%
%TO.N,unconnected-(U1-MISO-Pad12)*%
X27760000Y-89400000D03*
%TO.P,U1,13,SCK*%
%TO.N,unconnected-(U1-SCK-Pad13)*%
X43000000Y-89400000D03*
%TO.P,U1,14,A0*%
%TO.N,unconnected-(U1-A0-Pad14)*%
X43000000Y-86860000D03*
%TO.P,U1,15,A1*%
%TO.N,unconnected-(U1-A1-Pad15)*%
X43000000Y-84320000D03*
%TO.P,U1,16,A2*%
%TO.N,Net-(U2-TX)*%
X43000000Y-81780000D03*
%TO.P,U1,17,A3*%
%TO.N,Net-(U2-RX)*%
X43000000Y-79240000D03*
%TO.P,U1,18,A4*%
%TO.N,Net-(J1-SDA)*%
X43000000Y-76700000D03*
%TO.P,U1,19,A5*%
%TO.N,Net-(J1-SCL)*%
X43000000Y-74160000D03*
%TO.P,U1,20,A6*%
%TO.N,unconnected-(U1-A6-Pad20)*%
X43000000Y-71620000D03*
%TO.P,U1,21,A7*%
%TO.N,unconnected-(U1-A7-Pad21)*%
X43000000Y-69080000D03*
%TO.P,U1,22,A8*%
%TO.N,unconnected-(U1-A8-Pad22)*%
X43000000Y-66540000D03*
%TO.P,U1,23,A9*%
%TO.N,unconnected-(U1-A9-Pad23)*%
X43000000Y-64000000D03*
%TO.P,U1,24,A10*%
%TO.N,unconnected-(U1-A10-Pad24)*%
X27760000Y-94480000D03*
%TO.P,U1,25,A11*%
%TO.N,unconnected-(U1-A11-Pad25)*%
X27760000Y-97020000D03*
%TO.P,U1,26,A12*%
%TO.N,unconnected-(U1-A12-Pad26)*%
X27760000Y-99560000D03*
%TO.P,U1,27,A13*%
%TO.N,unconnected-(U1-A13-Pad27)*%
X27760000Y-102100000D03*
%TO.P,U1,28,RX7*%
%TO.N,unconnected-(U1-RX7-Pad28)*%
X27760000Y-104640000D03*
%TO.P,U1,29,TX7*%
%TO.N,unconnected-(U1-TX7-Pad29)*%
X27760000Y-107180000D03*
%TO.P,U1,30,CRX3*%
%TO.N,unconnected-(U1-CRX3-Pad30)*%
X27760000Y-109720000D03*
%TO.P,U1,31,CTX3*%
%TO.N,unconnected-(U1-CTX3-Pad31)*%
X27760000Y-112260000D03*
%TO.P,U1,32,OUT1B*%
%TO.N,unconnected-(U1-OUT1B-Pad32)*%
X27760000Y-114800000D03*
%TO.P,U1,33,MCLK2*%
%TO.N,unconnected-(U1-MCLK2-Pad33)*%
X43000000Y-114800000D03*
%TO.P,U1,34,RX8*%
%TO.N,unconnected-(U1-RX8-Pad34)*%
X43000000Y-112260000D03*
%TO.P,U1,35,TX8*%
%TO.N,unconnected-(U1-TX8-Pad35)*%
X43000000Y-109720000D03*
%TO.P,U1,36,CS2*%
%TO.N,unconnected-(U1-CS2-Pad36)*%
X43000000Y-107180000D03*
%TO.P,U1,37,CS3*%
%TO.N,unconnected-(U1-CS3-Pad37)*%
X43000000Y-104640000D03*
%TO.P,U1,38,A14*%
%TO.N,unconnected-(U1-A14-Pad38)*%
X43000000Y-102100000D03*
%TO.P,U1,39,A15*%
%TO.N,unconnected-(U1-A15-Pad39)*%
X43000000Y-99560000D03*
%TO.P,U1,40,A16*%
%TO.N,unconnected-(U1-A16-Pad40)*%
X43000000Y-97020000D03*
%TO.P,U1,41,A17*%
%TO.N,unconnected-(U1-A17-Pad41)*%
X43000000Y-94480000D03*
%TO.P,U1,GND,GND*%
%TO.N,GND*%
X43000000Y-58920000D03*
%TO.P,U1,GND_1*%
%TO.N,N/C*%
X27760000Y-56380000D03*
%TO.P,U1,GND_2*%
X43000000Y-91940000D03*
%TD*%
D12*
%TO.P,J2,1,GND*%
%TO.N,GND*%
X63000000Y-67390000D03*
D11*
%TO.P,J2,2,VBat*%
%TO.N,Net-(J2-VBat)*%
X63000000Y-64850000D03*
%TO.P,J2,3,Servo1*%
%TO.N,Net-(J2-Servo1)*%
X63000000Y-62310000D03*
%TO.P,J2,4,Servo2*%
%TO.N,Net-(J2-Servo2)*%
X63000000Y-59770000D03*
%TO.P,J2,5,Servo3*%
%TO.N,Net-(J2-Servo3)*%
X63000000Y-57230000D03*
%TO.P,J2,6,Servo4*%
%TO.N,Net-(J2-Servo4)*%
X63000000Y-54690000D03*
%TO.P,J2,7,Pin_7*%
%TO.N,unconnected-(J2-Pin_7-Pad7)*%
X63000000Y-52150000D03*
%TO.P,J2,8,Pin_8*%
%TO.N,unconnected-(J2-Pin_8-Pad8)*%
X63000000Y-49610000D03*
%TD*%
D12*
%TO.P,U2,1,GND*%
%TO.N,GND*%
X56176600Y-81833400D03*
D11*
%TO.P,U2,2,5V*%
%TO.N,5V*%
X56176600Y-79293400D03*
%TO.P,U2,3,TX*%
%TO.N,Net-(U2-TX)*%
X56176600Y-76753400D03*
%TO.P,U2,4,RX*%
%TO.N,Net-(U2-RX)*%
X56176600Y-74213400D03*
%TD*%
D13*
%TO.P,5V_BEC1,1,VBat*%
%TO.N,Net-(J2-VBat)*%
X63025000Y-90975000D03*
%TO.P,5V_BEC1,2,VBat*%
%TO.N,unconnected-(5V_BEC1-VBat-Pad2)*%
X60485000Y-90975000D03*
%TO.P,5V_BEC1,3,GND*%
%TO.N,GND*%
X49515000Y-90975000D03*
%TO.P,5V_BEC1,4,GND*%
%TO.N,unconnected-(5V_BEC1-GND-Pad4)*%
X46975000Y-91000000D03*
%TO.P,5V_BEC1,5,5V*%
%TO.N,5V*%
X63025000Y-110525000D03*
%TO.P,5V_BEC1,6,5V*%
%TO.N,unconnected-(5V_BEC1-5V-Pad6)*%
X60485000Y-110525000D03*
%TO.P,5V_BEC1,7,GND*%
%TO.N,GND*%
X49515000Y-110525000D03*
%TO.P,5V_BEC1,8,GND*%
%TO.N,unconnected-(5V_BEC1-GND-Pad8)*%
X46975000Y-110525000D03*
%TD*%
D14*
%TO.N,Net-(U2-RX)*%
X56176600Y-74491800D02*
X56176600Y-74213400D01*
D15*
%TO.N,5V*%
X42950000Y-56380000D02*
X43027000Y-56380000D01*
%TD*%
M02*
